<?xml version="1.0" encoding="UTF-8"?><svg xmlns="http://www.w3.org/2000/svg" viewBox="0 0 100.07 100.1"><defs><style>.cls-1{fill:none;stroke:#000;stroke-linecap:round;stroke-linejoin:round;stroke-width:4px;}</style></defs><g id="Default_Hexagon_copy"><g id="Default"><path class="cls-1" d="m95.04,68.82V31.25c0-3.65-1.99-7.01-5.19-8.77L54.85,3.27c-3-1.65-6.63-1.65-9.62,0L10.22,22.48c-3.2,1.76-5.19,5.12-5.19,8.77v37.57c0,3.65,1.99,7.01,5.19,8.77l35,19.21c3,1.65,6.63,1.65,9.62,0l35-19.21c3.2-1.76,5.19-5.12,5.19-8.77Z"/></g></g><g id="Your_Icon"><path class="cls-1" d="m39.04,19.65l-1.84.82c-.89.39-1.54,1.17-1.77,2.11l-.13.52c-.31,1.23.53,2.46,1.79,2.62.95.12,1.89.23,2.13.23.41,0,7.71,3.5,11.25,5.2,1.22.59,2.18,1.61,2.7,2.86h0c.78,1.88,2.82,2.9,4.79,2.4h0c2-.51,3.24-2.52,2.8-4.53l-.11-.53.85-.27c1.36-.44,2.45-1.39,3.08-2.61s.18-2.63-.96-3.3h0c-1.03-.6-2.31-.57-3.31.08l-.68.44c-.98.05-1.95-.15-2.82-.59l-10.55-5.27-1.03-4.36c-.34-1.45-1.65-2.45-3.14-2.41h0c-2.08.06-3.82,1.58-4.17,3.62l-.29,1.7"/><g id="Your_Icon-2"><path d="m71.62,75.56c-.2,0-.3,0-.5-.1l-18.1-4.5c-1.1-.3-1.7-1.3-1.5-2.4.3-1.1,1.4-1.7,2.4-1.5l18.1,4.5c1.1.3,1.7,1.3,1.5,2.4-.2,1-1,1.6-1.9,1.6Z"/><path d="m27.52,76.46c-.8,0-1.5-.4-1.8-1.2-.5-1,0-2.2,1-2.7l5.4-2.5c1-.5,2.2,0,2.7,1s0,2.2-1,2.7l-5.4,2.5c-.3.1-.6.2-.9.2Z"/><path d="m28.82,68.76c-1.3,0-2.4-.4-3.3-1.3-1.4-1.4-1.7-3.6-.8-5.7,1.4-3.5,3.4-6.5,5.7-8.8,6.1-6.1,14.6-7.5,14.9-7.5.6-.1,1.3.1,1.7.6.5.4.7,1.1.6,1.7-.1.4-1.4,8.8-7.5,14.9-2.4,2.4-5.3,4.3-8.8,5.7h0c-.9.3-1.7.4-2.5.4Zm14.1-18.6c-2.7.9-6.5,2.5-9.6,5.6-2,2-3.6,4.5-4.9,7.5-.3.7-.2,1.2-.1,1.4.2.2.7.2,1.4-.1h0c3-1.2,5.5-2.9,7.5-4.9,3.1-3,4.8-6.9,5.7-9.5Z"/><path d="m52.32,85.26c-.6,0-1.2-.1-1.7-.4-2.1-1-4-2.3-5.5-3.9-3.7-4.2-4.7-9.9-4.7-10.1-.1-.6.1-1.3.6-1.7.5-.5,1.1-.7,1.7-.6.2,0,5.4.9,9.2,5.1,1.5,1.6,2.7,3.6,3.6,6,.7,1.8.4,3.6-.8,4.7-.7.6-1.5.9-2.4.9Zm-7-11.6c.6,1.5,1.5,3.2,2.7,4.6,1,1.1,2.2,2,3.6,2.7-.7-1.9-1.7-3.4-2.8-4.6-1-1.3-2.3-2.1-3.5-2.7Z"/><path d="m18.32,60.36c-.2,0-.5,0-.7-.1s-4.3-1.7-5.3-5.6c-.4-1.5-.3-3.2.2-5h0c.4-1.4,1.5-2.5,2.9-2.9,1.2-.4,2.5-.2,3.4.6,1.4,1.1,2.3,2.5,2.7,4,1,3.7-1.2,7.6-1.5,8-.3.7-1,1-1.7,1Zm-1.9-9.7c-.1,0-.1.1-.1.1h0c-.3,1.1-.4,2.1-.2,2.9.2.8.7,1.4,1.3,1.9.3-1,.5-2.1.3-3.1-.2-.7-.6-1.3-1.3-1.8Zm-2-.5h0Z"/><path d="m47.52,67.36c-.4,0-.7-.1-1-.3l-3.8-2.3c-.9-.6-1.2-1.8-.7-2.8.6-.9,1.8-1.2,2.8-.7l3.8,2.3c.9.6,1.2,1.8.7,2.8-.5.7-1.1,1-1.8,1Z"/><path d="m37.82,82.86c-1.1,0-2-.9-2-2v-3.7c0-1.1.9-2,2-2s2,.9,2,2v3.7c0,1.1-.9,2-2,2Z"/><path d="m60.32,82.36c-.5,0-1-.2-1.4-.6-.8-.8-.8-2,0-2.8l3-3c.8-.8,2-.8,2.8,0s.8,2,0,2.8l-3,3c-.4.4-.9.6-1.4.6Z"/><path d="m80.32,55.76c-.9,0-1.7-.6-1.9-1.6-.2-1.1.4-2.1,1.5-2.4l4.1-.9c1.1-.2,2.1.4,2.4,1.5.2,1.1-.4,2.1-1.5,2.4l-4.1.9c-.2.1-.4.1-.5.1Z"/><path d="m28.12,51.66c-.4,0-.8-.1-1.2-.4l-4.1-3c-.9-.7-1.1-1.9-.4-2.8s1.9-1.1,2.8-.4l4.1,3c.9.7,1.1,1.9.4,2.8-.4.5-1,.8-1.6.8Z"/><path d="m51.42,58.86c-1.1,0-2-.9-2-2v-4c0-1.1.9-2,2-2s2,.9,2,2v4c0,1.1-.8,2-2,2Z"/><path d="m76.52,50.16c-1.1,0-2-.9-2-2v-4c0-1.1.9-2,2-2s2,.9,2,2v4c0,1.1-.9,2-2,2Z"/><path d="m19.32,67.16c-.2,0-.4,0-.6-.1l-4-1.2c-1.1-.3-1.7-1.4-1.3-2.5.3-1.1,1.4-1.7,2.5-1.3l4.1,1.2c1.1.3,1.7,1.4,1.3,2.5-.3.8-1.1,1.4-2,1.4Z"/><g><g><path d="m62.12,54.66c3.3-5.8-2.2-7.9-2.2-7.9h0s-4.6,4.9,6,9.7h0c-1.4-.5-6-2.5-8.1,1.8"/><path d="m57.72,60.26c-.3,0-.6-.1-.9-.2-1-.5-1.4-1.7-.9-2.7.6-1.2,1.6-2.4,3-3.2-1.1-1.2-1.7-2.4-2-3.7-.5-2.8,1-4.7,1.4-5.1.5-.6,1.4-.9,2.2-.6.3.1,3.1,1.3,4.2,4.2.5,1.4.5,2.9,0,4.5.6.3,1.2.7,2,1,1,.5,1.4,1.6,1,2.6s-1.6,1.5-2.6,1.1h-.1c-3-1.2-4.6-.9-5.5.9-.3.8-1,1.2-1.8,1.2Z"/></g><path d="m77.42,73.16c-.8,0-1.6-.5-1.9-1.3s-.8-1.6-1.4-2.4l-.2-.3c-3.1-4.5-7.7-4.7-9.8-3.4-.6.3-1.3.4-1.9.1-.6-.3-1-.8-1.1-1.5-.2-1-.2-2.1,0-3.1.4-2.1,1.8-3.9,3.8-5.2,0-1.5.2-4.1,2.1-6.1.8-.8,1.8-1.5,3-1.9.7-.3,1.5-.1,2,.4.6.5.8,1.2.6,1.9v.1c-.4,1.9.8,4.5,3.8,5.9h0c3.9,1.8,6,1.6,7.3,1.3.6-.2,1.2,0,1.7.3.5.4.8.9.8,1.6,0,.4,0,.9-.1,1.3-.3,1.9-1.6,4.2-3.4,5.4.1,2.4-1.2,5.1-3.9,6.3-.3.1-.6.3-.9.4,0,.1-.3.2-.5.2Zm-10.5-12.1c3.6,0,7.6,1.8,10.4,5.8l.2.3c.3.4.6.8.8,1.2.7-.8.7-2,.5-2.6-.2-.5-.1-1.1.2-1.6.3-.5.8-.8,1.3-.9.3-.1.9-.7,1.4-1.3-2-.1-4.2-.7-6.8-1.8-2.7-1.3-4.7-3.4-5.7-5.8-.2.7-.2,1.4-.2,1.8.1,1.3-.6,2.6-1.7,3.3-.5.3-1.3.9-1.8,1.7.4,0,.9-.1,1.4-.1Z"/></g></g></g></svg>