<svg width="75" height="80" viewBox="0 0 75 80" fill="none" xmlns="http://www.w3.org/2000/svg">
<g clip-path="url(#clip0_152_875)">
<path d="M37.5 79.992C35.8899 79.9891 34.3065 79.5792 32.8963 78.8002L4.97074 63.4353C3.46719 62.6088 2.21267 61.3926 1.33827 59.9138C0.463866 58.4351 0.00167869 56.748 0 55.029V24.971C0.00167869 23.252 0.463866 21.565 1.33827 20.0862C2.21267 18.6075 3.46719 17.3913 4.97074 16.5647L32.8963 1.19177C34.305 0.408837 35.8893 -0.00195313 37.5 -0.00195312C39.1107 -0.00195312 40.695 0.408837 42.1037 1.19177L70.0293 16.5647C71.5328 17.3913 72.7873 18.6075 73.6617 20.0862C74.5361 21.565 74.9983 23.252 75 24.971V55.029C74.9983 56.748 74.5361 58.4351 73.6617 59.9138C72.7873 61.3926 71.5328 62.6088 70.0293 63.4353L42.1037 78.8082C40.6928 79.5844 39.1094 79.9916 37.5 79.992ZM37.5 3.20736C36.4252 3.21047 35.3686 3.48559 34.4282 4.00721L6.50266 19.3801C5.50157 19.9311 4.66628 20.7412 4.08387 21.726C3.50147 22.7108 3.1933 23.8342 3.19149 24.979V55.029C3.1933 56.1738 3.50147 57.2972 4.08387 58.282C4.66628 59.2668 5.50157 60.0769 6.50266 60.6279L34.4282 75.9928C35.3696 76.5109 36.4261 76.7825 37.5 76.7825C38.5739 76.7825 39.6304 76.5109 40.5718 75.9928L68.4973 60.6199C69.4984 60.0689 70.3337 59.2588 70.9161 58.274C71.4985 57.2892 71.8067 56.1658 71.8085 55.021V24.971C71.8067 23.8262 71.4985 22.7028 70.9161 21.718C70.3337 20.7332 69.4984 19.9231 68.4973 19.3721L40.5718 4.00721C39.6314 3.48559 38.5748 3.21047 37.5 3.20736Z" fill="black"/>
<path d="M56.6586 52.7711C56.448 52.7713 56.2395 52.7297 56.0451 52.6487C55.8506 52.5677 55.6741 52.4489 55.5256 52.2992L48.5043 45.2367C48.3566 45.0875 48.2396 44.9106 48.1601 44.7162C48.0805 44.5217 48.0399 44.3134 48.0407 44.1032C48.0414 43.893 48.0835 43.685 48.1644 43.4911C48.2453 43.2972 48.3635 43.1212 48.5123 42.9731C48.6611 42.825 48.8375 42.7077 49.0315 42.628C49.2255 42.5482 49.4333 42.5076 49.643 42.5083C49.8526 42.5091 50.0601 42.5512 50.2535 42.6323C50.447 42.7134 50.6226 42.832 50.7703 42.9811L57.7916 50.0437C57.9399 50.1923 58.0576 50.3687 58.1379 50.5629C58.2183 50.7571 58.2596 50.9652 58.2596 51.1755C58.2596 51.3857 58.2183 51.5939 58.1379 51.788C58.0576 51.9822 57.9399 52.1587 57.7916 52.3072C57.6425 52.4555 57.4656 52.5728 57.2712 52.6524C57.0768 52.732 56.8686 52.7724 56.6586 52.7711Z" fill="black"/>
<path d="M49.6373 38.2382C49.2159 38.2385 48.8115 38.0718 48.5123 37.7743C48.364 37.6257 48.2463 37.4493 48.166 37.2551C48.0856 37.0609 48.0443 36.8527 48.0443 36.6425C48.0443 36.4323 48.0856 36.2241 48.166 36.0299C48.2463 35.8357 48.364 35.6593 48.5123 35.5107L55.5336 28.4481C55.832 28.1469 56.2375 27.9769 56.6609 27.9754C57.0844 27.9739 57.4911 28.141 57.7916 28.4401C58.0921 28.7393 58.2617 29.1458 58.2632 29.5703C58.2647 29.9948 58.0979 30.4025 57.7996 30.7037L50.7783 37.7663C50.6289 37.9169 50.451 38.0363 50.2552 38.1173C50.0593 38.1983 49.8492 38.2394 49.6373 38.2382Z" fill="black"/>
<path d="M21.5522 45.8766C21.129 45.8766 20.7231 45.7081 20.4238 45.4081C20.1246 45.1081 19.9565 44.7012 19.9565 44.2769V36.0626C19.9565 35.6383 20.1246 35.2314 20.4238 34.9314C20.7231 34.6314 21.129 34.4629 21.5522 34.4629C21.9754 34.4629 22.3813 34.6314 22.6806 34.9314C22.9798 35.2314 23.1479 35.6383 23.1479 36.0626V44.2769C23.1479 44.7012 22.9798 45.1081 22.6806 45.4081C22.3813 45.7081 21.9754 45.8766 21.5522 45.8766Z" fill="black"/>
<path d="M40.1267 41.5735H39.9033C38.8261 41.4055 29.2676 39.8218 26.5229 35.7506C23.6346 31.4715 24.4086 25.5447 28.2463 22.5453C29.1387 21.8431 30.1669 21.3348 31.2658 21.0525C32.3647 20.7702 33.5101 20.7202 34.6293 20.9056C35.8633 21.1184 37.0404 21.5832 38.0877 22.2712C39.1349 22.9592 40.0299 23.8556 40.7171 24.9048C43.4219 28.904 41.89 39.086 41.6985 40.2297C41.6379 40.6042 41.4466 40.9449 41.1587 41.191C40.8708 41.4371 40.505 41.5727 40.1267 41.5735ZM33.2889 23.977C32.1621 23.9739 31.0678 24.3546 30.1852 25.0568C27.6479 27.0404 27.1772 31.0236 29.1479 33.943C30.4245 35.8386 35.2038 37.3663 38.7783 38.1022C39.241 34.167 39.3846 28.6401 38.0682 26.6885C37.6212 25.9968 37.0358 25.4058 36.3491 24.9528C35.6624 24.4998 34.8893 24.1948 34.0788 24.057C33.8181 24.0091 33.5539 23.9823 33.2889 23.977Z" fill="black"/>
<path d="M41.7623 47.1724C41.3434 47.1762 40.9365 47.0318 40.6134 46.7644C40.2435 46.47 40.003 46.0423 39.9432 45.5727V45.4927C39.9393 45.4475 39.9393 45.402 39.9432 45.3567V34.7029C39.9271 34.2425 40.0869 33.7933 40.39 33.4471C40.7133 33.0815 41.1649 32.8551 41.6506 32.8152H44.9538C45.8737 32.7432 46.7982 32.8704 47.6647 33.1883C48.5312 33.5062 49.3193 34.0073 49.9755 34.6575C50.6317 35.3077 51.1407 36.0919 51.4678 36.9568C51.7949 37.8216 51.9325 38.7469 51.8714 39.6699V40.2857C51.8714 44.4689 49.1666 47.1724 44.9777 47.1724H41.7863H41.7623ZM43.0948 43.973H44.9458C48.0416 43.973 48.6799 41.9654 48.6799 40.2857V39.6699C48.7318 38.6688 48.391 37.687 47.7304 36.9344C46.9621 36.2783 45.9689 35.9483 44.9618 36.0146H43.0948V43.973Z" fill="black"/>
<path d="M26.0123 47.1724H21.9112C16.8448 47.1724 13.5735 44.4689 13.5735 40.2858C13.5606 40.1822 13.5606 40.0774 13.5735 39.9738C13.5617 39.8702 13.5617 39.7655 13.5735 39.6619C13.5735 35.4787 16.8527 32.7753 21.9272 32.7753H26.0043C26.2528 32.7667 26.5005 32.808 26.7329 32.8968C26.9652 32.9855 27.1776 33.1198 27.3574 33.2919C27.5373 33.464 27.681 33.6704 27.7803 33.899C27.8795 34.1275 27.9321 34.3737 27.9352 34.6229V45.3248C27.9332 45.5736 27.8815 45.8196 27.7832 46.0481C27.6848 46.2766 27.5418 46.483 27.3626 46.6553C27.1834 46.8275 26.9716 46.962 26.7396 47.0508C26.5077 47.1396 26.2604 47.1809 26.0123 47.1724ZM16.765 39.9738C16.7772 40.0748 16.7772 40.1768 16.765 40.2778C16.765 43.6131 20.3634 43.973 21.9112 43.973H24.7437V35.9746H21.9272C20.3714 35.9746 16.765 36.3346 16.765 39.6699C16.7762 39.7709 16.7762 39.8728 16.765 39.9738Z" fill="black"/>
<path d="M33.2729 59.1701C31.4409 59.1715 29.6618 58.5545 28.2224 57.4184C24.3846 54.419 23.6107 48.4922 26.499 44.213C29.2437 40.1419 38.8022 38.5582 39.9033 38.3742C40.32 38.3097 40.7452 38.4131 41.086 38.6619C41.4269 38.9107 41.6557 39.2846 41.7224 39.7019C41.9139 40.8457 43.4458 51.0117 40.741 55.0349C40.0531 56.0835 39.1579 56.9794 38.1108 57.6673C37.0637 58.3552 35.8869 58.8204 34.6533 59.0341C34.1975 59.1164 33.7359 59.1619 33.2729 59.1701ZM38.7783 41.8455C35.2038 42.5814 30.4245 44.1091 29.1479 46.0047C27.1772 48.9161 27.6479 52.9073 30.1852 54.8909C30.7344 55.3247 31.3681 55.6385 32.0456 55.8121C32.723 55.9856 33.4292 56.0152 34.1187 55.8987C34.9292 55.7609 35.7023 55.4558 36.389 55.0029C37.0757 54.5499 37.6611 53.9589 38.1081 53.2672C39.3926 51.2996 39.241 45.7807 38.7783 41.8455Z" fill="black"/>
</g>
<defs>
<clipPath id="clip0_152_875">
<rect width="75" height="80" fill="white"/>
</clipPath>
</defs>
</svg>
