<?xml version="1.0" encoding="utf-8"?>
<!-- Generator: Adobe Illustrator 25.0.1, SVG Export Plug-In . SVG Version: 6.00 Build 0)  -->
<svg version="1.1" id="Your_Icon" xmlns="http://www.w3.org/2000/svg" xmlns:xlink="http://www.w3.org/1999/xlink" x="0px" y="0px"
	 viewBox="0 0 94.2 100.1" style="enable-background:new 0 0 94.2 100.1;" xml:space="preserve">
<g id="Default">
	<path d="M47.1,100.1c-2,0-4-0.5-5.8-1.5l-35-19.2c-3.8-2.1-6.2-6.1-6.2-10.5V31.3c0-4.4,2.4-8.4,6.2-10.5l35-19.2
		c3.6-2,7.9-2,11.5,0l35,19.2c3.8,2.1,6.2,6.1,6.2,10.5v37.6c0,4.4-2.4,8.4-6.2,10.5l-35,19.2C51.1,99.6,49.1,100.1,47.1,100.1z
		 M47.1,4.1c-1.3,0-2.6,0.3-3.9,1l-35,19.2c-2.6,1.4-4.1,4.1-4.1,7v37.6c0,2.9,1.6,5.6,4.1,7l35,19.2c2.4,1.3,5.3,1.3,7.7,0l35-19.2
		c2.6-1.4,4.2-4.1,4.2-7V31.3c0-2.9-1.6-5.6-4.2-7l-35-19.2C49.7,4.4,48.4,4.1,47.1,4.1z"/>
</g>
<path d="M35.1,64.1h-8.8c-1.1,0-2-0.9-2-2s0.9-2,2-2h8.8c1.1,0,2,0.9,2,2S36.2,64.1,35.1,64.1z"/>
<path d="M68.1,54.1H26.3c-1.1,0-2-0.9-2-2s0.9-2,2-2h41.8c1.1,0,2,0.9,2,2S69.2,54.1,68.1,54.1z"/>
<path d="M68.1,44.1H26.3c-1.1,0-2-0.9-2-2s0.9-2,2-2h41.8c1.1,0,2,0.9,2,2S69.2,44.1,68.1,44.1z"/>
<path d="M64.6,34.1h-35c-1.1,0-2-0.9-2-2s0.9-2,2-2h35c1.1,0,2,0.9,2,2C66.6,33.2,65.7,34.1,64.6,34.1z"/>
<path d="M67.2,64.1h-9.3c-1.1,0-2-0.9-2-2s0.9-2,2-2h9.3c1.1,0,2,0.9,2,2S68.3,64.1,67.2,64.1z"/>
<path d="M68.1,74.1h-42c-1.1,0-2-0.9-2-2V42.3c0-12.2,9.9-22.2,22-22.2h2c12.1,0,22,10,22,22.2v29.8C70.1,73.2,69.2,74.1,68.1,74.1z
	 M28.1,70.1h38V42.3c0-10-8.1-18.2-18-18.2h-2c-9.9,0-18,8.2-18,18.2V70.1z"/>
<path id="Path_794_1_" d="M41.1,66.7c0-3.6,3-6.6,6-6.6s6,2.9,6,6.6v5.4h-12V66.7z"/>
<path id="Path_795_1_" d="M79.1,36.1c-1.4,0-2.5-1.1-2.5-2.5s1.1-2.5,2.4-2.5l0,0h0.1c1.4,0,2.5,1.1,2.5,2.5S80.5,36.1,79.1,36.1z"
	/>
<path id="Path_796_1_" d="M14.1,36.1c-1.4,0-2.5-1.1-2.5-2.5s1.1-2.5,2.4-2.5l0,0h0.1c1.4,0,2.5,1.1,2.5,2.5S15.5,36.1,14.1,36.1
	L14.1,36.1z"/>
<path id="Path_797_1_" d="M75.1,46.1c-1.4,0-2.5-1.1-2.5-2.5s1.1-2.5,2.4-2.5l0,0h0.1c1.4,0,2.5,1.1,2.5,2.5S76.5,46.1,75.1,46.1
	L75.1,46.1z"/>
<path id="Path_798_1_" d="M16.1,68.1c-1.4,0-2.5-1.1-2.5-2.5s1.1-2.5,2.4-2.5l0,0h0.1c1.4,0,2.5,1.1,2.5,2.5S17.5,68.1,16.1,68.1
	L16.1,68.1z"/>
<path id="Path_799_1_" d="M79.1,62.1c-1.4,0-2.5-1.1-2.5-2.5s1.1-2.5,2.4-2.5l0,0h0.1c1.4,0,2.5,1.1,2.5,2.5S80.5,62.1,79.1,62.1
	L79.1,62.1z"/>
</svg>
