<?xml version="1.0" encoding="utf-8"?>
<!-- Generator: Adobe Illustrator 25.4.1, SVG Export Plug-In . SVG Version: 6.00 Build 0)  -->
<svg version="1.1" id="Layer_1" xmlns="http://www.w3.org/2000/svg" xmlns:xlink="http://www.w3.org/1999/xlink" x="0px" y="0px"
	 viewBox="0 0 100 100" enable-background="new 0 0 100 100" xml:space="preserve">
<g>
	<path fill="#231F20" d="M60,91.6L53.8,95c-2.4,1.3-5.3,1.3-7.7,0L11.7,76.1C8.8,74.5,7,71.4,7,68V32c0-3.4,1.8-6.5,4.7-8.1
		l14.938-8.247L24.4,22.8c-0.3,1.1,0.2,2.2,1.3,2.5c0.2,0.1,0.4,0.1,0.6,0.1c0.9,0,1.7-0.6,1.9-1.4l3.7-11.8
		c0.188-0.688,0.023-1.377-0.372-1.869c-0.317-0.434-0.786-0.689-1.298-0.749L19,6c-1-0.4-2.2,0.2-2.5,1.3c-0.3,1,0.2,2.2,1.3,2.5
		l7.094,2.267L9.8,20.4C5.6,22.7,3,27.1,3,32v36c0,4.9,2.6,9.3,6.8,11.6l34.4,18.9c1.8,1,3.8,1.5,5.8,1.5s4-0.5,5.7-1.5l6.2-3.4
		c1-0.5,1.3-1.7,0.8-2.7S61,91.1,60,91.6z"/>
	<path fill="#231F20" d="M90.2,20.4L55.8,1.5c-3.7-2-8-2-11.6,0L38,4.9c-1,0.5-1.3,1.7-0.8,2.7s1.7,1.3,2.7,0.8L46.1,5
		c2.4-1.3,5.3-1.3,7.7,0l34.3,18.9c2.9,1.6,4.7,4.7,4.7,8.1v36.1c0,3.4-1.8,6.5-4.7,8.1l-14.817,8.18L75.5,77.3
		c0.3-1.1-0.2-2.2-1.3-2.5c-1.1-0.3-2.2,0.2-2.5,1.3l-3.595,11.465c-0.313,0.569-0.326,1.292-0.005,1.935
		c0.209,0.314,0.503,0.568,0.834,0.744c0.115,0.064,0.237,0.117,0.366,0.156l0.051,0.016c0.015,0.004,0.028,0.01,0.043,0.014
		L80.9,94.1c0.2,0.1,0.4,0.1,0.6,0.1c0.9,0,1.7-0.6,1.9-1.4c0.3-1-0.2-2.2-1.3-2.5L74.905,88L90.2,79.6C94.4,77.3,97,72.9,97,68V32
		C97,27.1,94.4,22.7,90.2,20.4z"/>
	<path fill="#231F20" d="M33.495,33.796l-0.858,0.859c-3,3-3.301,6.6-0.801,9.1c0.1,0.1,0.1,0.2,0.199,0.2
		c0.1,0.1,0.1,0.1,0.199,0.2c1.1,1.1,2.5,1.7,3.9,1.7c1.701,0,3.5-0.8,5.002-2.7l0.917-0.917c1.505,2.079,3.896,3.416,6.382,3.416
		c0.299,0,0.6,0,0.9,0c1.898-0.3,3.6-1.2,4.699-2.8c1.199-1.7,1.6-3.8,1.199-5.9c-0.298-1.576-1.524-3.278-2.923-4.776l0.724-0.724
		c0.802-0.802,1.343-1.686,1.631-2.6h6.069c1.102,0,2-0.9,2-2c0-1.1-0.9-2-2-2h-6.445c-0.306-0.592-0.719-1.165-1.254-1.7
		l-0.301-0.3c-0.38-0.412-0.782-0.746-1.199-1.02v-6.08c0-1.1-0.9-2-2-2s-2,0.9-2,2v5.318c-1.15,0.244-2.184,0.866-3.1,1.782
		l-0.796,0.796c-1.456-1.345-3.086-2.509-4.603-2.796c-2.1-0.4-4.301,0-5.9,1.2c-1.602,1.1-2.602,2.8-2.801,4.7
		C29.992,29.439,31.306,32.123,33.495,33.796z M40.976,35.595l-0.552-0.552c0.275-0.081,0.55-0.172,0.825-0.271
		C41.148,35.046,41.058,35.32,40.976,35.595z M35.035,41.355c-0.1-0.1-0.1-0.2-0.199-0.2c0,0-0.102-0.1-0.201-0.1
		c-0.504-0.504-0.555-1.05-0.389-1.59l2.338,2.339C36.007,41.957,35.495,41.814,35.035,41.355z M50.836,40.455c-0.4,0.5-1,1.1-2,1.2
		c-1.898,0.2-3.799-1.3-4.199-3.4c-0.201-1.1,0.898-3.6,2.199-5.7c2.199,1.8,4.299,4,4.5,5.1
		C51.535,38.655,51.436,39.655,50.836,40.455z M47.434,25.755c0.301-0.3,0.801-0.7,1.301-0.7s1,0.4,1.301,0.7l0.301,0.3
		c0.9,0.9,0.9,1.7,0,2.6l-0.4,0.4l-2.9-3L47.434,25.755z M35.535,25.255c0.6-0.4,1.301-0.6,2-0.6c0.199,0,0.5,0,0.701,0.1
		c1.199,0.2,3.398,2.3,5.199,4.5c-2.1,1.3-4.6,2.4-5.699,2.2c-2.1-0.4-3.6-2.3-3.4-4.2C34.535,26.155,35.035,25.555,35.535,25.255z"
		/>
	<path fill="#231F20" d="M33.3,80.8c1.1,0,2-0.9,2-2.1v-6.164c0.232,0.036,0.466,0.064,0.7,0.064c0.4,0,0.8-0.1,1.2-0.2
		c2.6-0.8,4.6-2.1,6.2-3.9c3.9-4.4,3.9-11.4,3.9-11.7c0-1.1-0.9-2-2-2c-0.298,0-6.522,0.005-10.525,4.522
		C33.846,56.186,32.34,53.64,30.4,51.7c-5.4-5.5-14-5.5-14.4-5.5c-1.1,0-2,0.9-2,2c0,0.3,0,8.9,5.5,14.4c2.1,2.1,4.9,3.7,8.4,4.6
		c0.6,0.1,1.1,0.2,1.6,0.2c0.612,0,1.217-0.125,1.795-0.318c-0.018,0.268-0.014,0.532,0.005,0.795V78.8
		C31.3,79.9,32.2,80.8,33.3,80.8z M37.7,62c1.6-1.8,3.8-2.6,5.4-2.9c-0.2,2-0.9,4.8-2.8,6.7c-1,1.2-2.5,2.1-4.3,2.7
		c0,0.1-0.2,0.1-0.4-0.1c-0.131-0.196-0.253-0.442-0.3-0.752V67.1C35.8,65,36.6,63.2,37.7,62z M29,63.3c-2.8-0.7-5-1.9-6.6-3.6
		c-2.8-2.8-3.8-6.9-4.1-9.4c2.5,0.3,6.6,1.3,9.4,4.1c1.7,1.6,2.9,3.8,3.6,6.6c0.2,1-0.3,1.6-0.5,1.8C30.6,63.1,29.9,63.6,29,63.3z"
		/>
	<path fill="#231F20" d="M85.3,42.1c0.3,0,0.5,0,0.7,0l2.2,0.2V40c-0.1-4.9-3.7-9-8.4-9.7c-0.1,0-0.2,0-0.3,0s-0.2,0-0.3,0
		c-0.4,0-0.7,0-1.1,0c-0.4,0-0.9,0.1-1.4,0.1c-0.2,0-0.3,0-0.5,0c-0.5,0.1-0.9,0.1-1.3,0.2c-0.3,0-0.5,0.1-0.7,0.1
		c-0.3,0-0.6,0.1-0.9,0.2c-0.3,0-0.5,0.1-0.8,0.2c-0.2,0.1-0.3,0.1-0.5,0.2c-0.6,0.2-1.2,0.4-1.7,0.7l-0.2,0.1
		c-3.164,1.695-5.625,4.03-7.294,6.858c-0.204,0.172-0.378,0.387-0.506,0.642c-1.7,3.6-4,5.9-8.8,8.6l-3,1.7l3,1.7
		c1.011,0.599,2.064,1.086,3.149,1.461C55.778,53.672,54.741,54.283,53.5,55l-3,1.7l3,1.7c2.7,1.6,5.7,2.4,8.8,2.4
		c2.5,0,5.099-0.544,7.495-1.518L70.3,61c0.2,0.8,1,1.4,1.9,1.4c0.2,0,0.4-0.1,0.6,0c1.1-0.3,1.7-1.4,1.4-2.5l-0.754-2.562
		c0.051-0.034,0.105-0.065,0.155-0.099L74.6,60.9c0.2,0.9,1,1.5,1.9,1.5c0.2,0,0.4-0.1,0.6-0.1c1.1-0.3,1.7-1.4,1.4-2.5l-1.54-5.646
		c1.438-1.798,2.348-3.88,2.44-6.154C79.5,44.7,82.1,42.1,85.3,42.1z M71.9,35.4H72c0.4-0.2,0.9-0.4,1.4-0.6l0.3-0.1
		c0.2-0.1,0.4-0.1,0.6-0.2c0.2-0.1,0.5-0.1,0.7-0.2c0.2,0,0.3-0.1,0.5-0.1c0.4,0,0.7-0.1,1-0.1h0.4c0.6,0,1.2,0,1.8,0
		c2.2,0.2,4.1,1.7,4.9,3.8c-3.901,0.581-7.037,3.439-8.05,7.252c-2.283,2.588-7.734,4.524-11.919,4.882
		c0.314-1.025,0.539-2.188,0.669-3.535c0.2-1.625,0.619-3.05,1.174-4.294c0.143-0.266,0.29-0.525,0.426-0.806
		c0.033-0.066,0.052-0.135,0.077-0.202C67.675,38.093,70.202,36.283,71.9,35.4z M59.957,48.719
		c-0.112,0.385-0.246,0.735-0.395,1.066c-0.258-0.056-0.513-0.117-0.762-0.185C59.196,49.314,59.58,49.02,59.957,48.719z M62.2,56.7
		c-1.1,0-2.3-0.1-3.4-0.4c1.035-0.701,1.933-1.45,2.693-2.326C61.762,53.986,62.03,54,62.3,54c3.464,0,8.076-1.114,11.748-2.978
		C71.811,54.379,66.691,56.7,62.2,56.7z"/>
	<path fill="#231F20" d="M78.2,38.6c0.939,0,1.7-0.761,1.7-1.7c0-0.939-0.761-1.7-1.7-1.7c-0.939,0-1.7,0.761-1.7,1.7
		C76.5,37.839,77.261,38.6,78.2,38.6z"/>
	<path fill="#231F20" d="M69.2,70.9c0.2,0.3,0.4,0.7,0.8,1.1c0.8,0.8,2,0.8,2.8,0c0.7-0.7,0.7-2,0-2.8c-0.1-0.1-0.2-0.3-0.3-0.4
		c-0.6-1-1.8-2.9-5.5-3.1c-0.373,0-0.736,0.033-1.09,0.086C65.56,65.318,65.015,65,64.4,65c-1.8-0.1-3.4,0.6-4.6,2
		c-1.8,2-2.7,5.3-2.3,8.5c0.074,0.74,0.587,1.313,1.253,1.563c-0.706,0.033-1.609-0.231-1.853-0.963c-0.8-2.4-3-3.9-5.5-3.7
		c-2.7,0.2-4.9,2.4-5.5,5.6c-0.2,1.1,0.5,2.1,1.6,2.3s2.1-0.5,2.3-1.6c0.3-1.6,1.2-2.2,1.9-2.3c0.7-0.1,1.2,0.3,1.4,1
		c0.8,2.6,3.2,3.7,5.5,3.7c0.5,0,1,0,1.7-0.2c2.7-0.6,4.2-2.7,3.9-5.3c-0.3-2,0.3-4.1,1.3-5.2c0.5-0.7,1.1-0.7,1.4-0.7
		C68.5,69.7,68.7,70.1,69.2,70.9z"/>
</g>
</svg>
