<?xml version="1.0" encoding="utf-8"?>
<!-- Generator: Adobe Illustrator 25.2.3, SVG Export Plug-In . SVG Version: 6.00 Build 0)  -->
<svg version="1.1" id="Butcher_1" xmlns="http://www.w3.org/2000/svg" xmlns:xlink="http://www.w3.org/1999/xlink" x="0px" y="0px"
	 viewBox="0 0 99.6 99.6" style="enable-background:new 0 0 99.6 99.6;" xml:space="preserve">
<g>
	<g id="Default_3_">
		<path d="M50.1,99.9c-2,0-4-0.5-5.8-1.5l-35-19.2C5.4,77,3.1,73,3.1,68.6V31c0-4.4,2.4-8.5,6.2-10.6l35-19.2
			c3.6-1.9,7.9-1.9,11.5,0l35,19.2C94.7,22.6,97,26.6,97,31v37.6c0,4.3-2.4,8.4-6.2,10.5l-35,19.2C54.1,99.4,52.1,99.9,50.1,99.9z
			 M50.1,3.8c-1.3,0-2.7,0.3-3.9,1L11.3,24c-2.6,1.4-4.2,4.1-4.2,7v37.6c0,2.9,1.6,5.6,4.2,7.1l35,19.2c2.4,1.4,5.3,1.4,7.7,0
			l35-19.2c2.6-1.4,4.2-4.1,4.2-7V31c0-2.9-1.6-5.6-4.2-7.1L54,4.7C52.7,4.1,51.4,3.8,50.1,3.8z"/>
	</g>
	<g>
		<g>
			<g>
				<path d="M39.3,85.6c-0.8,0-1.5-0.4-1.8-1.2c-0.5-1,0-2.2,1-2.7c0.9-0.4,1.7-0.7,2.5-1.1c1.7-0.7,3.5-1.4,5.7-2.7
					c1-0.5,2.2-0.2,2.7,0.7c0.5,1,0.2,2.2-0.7,2.7c-2.5,1.4-4.4,2.2-6.2,3c-0.8,0.3-1.6,0.7-2.4,1C39.9,85.5,39.6,85.6,39.3,85.6z"
					/>
				<path d="M81.6,82.4c-1,0-1.8-0.7-2-1.7c-0.6-4.9-3.9-8.8-8.2-9.9c-1.9-0.5-3.8,3.4-4.4,5.3c-0.3,0.8-1,1.4-1.9,1.4h-9.8
					c-0.9,0-1.6-0.6-1.9-1.4c-0.6-1.8-2.6-5.8-4.4-5.3c-2.5,0.6-6,2.8-9.1,5.5c-0.8,0.7-2.1,0.7-2.8-0.2c-0.7-0.8-0.7-2.1,0.2-2.8
					c3.5-3.1,7.6-5.5,10.7-6.3c4.2-1.1,7.2,3.1,8.7,6.5h7c1.4-3.4,4.4-7.6,8.7-6.5c5.9,1.5,10.3,6.7,11.2,13.3
					c0.1,1.1-0.6,2.1-1.7,2.2C81.8,82.4,81.7,82.4,81.6,82.4z"/>
				<path d="M45.3,98.5c-0.1,0-0.2,0-0.3,0c-1.1-0.2-1.8-1.2-1.6-2.3l4.8-27.9c0.2-1.1,1.2-1.8,2.3-1.6c1.1,0.2,1.8,1.2,1.6,2.3
					l-4.8,27.9C47.1,97.8,46.3,98.5,45.3,98.5z"/>
				<path d="M73.2,87.4c-1,0-1.8-0.7-2-1.7L68.3,69c-0.2-1.1,0.5-2.1,1.6-2.3c1.1-0.2,2.1,0.5,2.3,1.6L75.1,85
					c0.2,1.1-0.5,2.1-1.6,2.3C73.4,87.4,73.3,87.4,73.2,87.4z"/>
			</g>
			<g>
				<g>
					<path d="M60.1,70.7c-11.4,0-20.7-9.3-20.7-20.8c0-2.9,0.6-5.7,1.7-8.2c0.4-1,1.6-1.5,2.6-1c1,0.4,1.5,1.6,1,2.6
						c-0.9,2-1.3,4.3-1.3,6.6c0,9.3,7.5,16.8,16.7,16.8c9.3,0,16.8-7.5,16.8-16.8c0-2.3-0.4-4.6-1.3-6.6c-0.4-1,0-2.2,1-2.6
						c1-0.4,2.2,0,2.6,1c1.1,2.5,1.7,5.3,1.7,8.2C80.9,61.4,71.6,70.7,60.1,70.7z"/>
				</g>
				<path d="M60.2,63.2c-6.2,0-6.3-4-6.3-4.2c0-1.1,0.9-2,2-2c1,0,1.8,0.7,2,1.7c0.2,0.2,0.8,0.5,2.3,0.5c1.7,0,2.4-0.4,2.5-0.6
					c0.2-1,1.1-1.7,2.1-1.6c1.1,0.1,1.9,1.1,1.8,2.2C66.7,59.3,66.3,63.2,60.2,63.2z M57.9,59L57.9,59L57.9,59z M57.9,59L57.9,59
					L57.9,59z M62.7,58.8L62.7,58.8L62.7,58.8z M62.7,58.8L62.7,58.8L62.7,58.8z M62.8,58.6L62.8,58.6L62.8,58.6z"/>
				<g>
					<circle id="Ellipse_228_5_" cx="53" cy="50.2" r="2"/>
					<circle id="Ellipse_229_3_" cx="67.5" cy="50.2" r="2"/>
				</g>
			</g>
			<path d="M60.2,31.2c-0.1,0-0.3,0-0.4,0l-11.9-2.3c-1.1-0.2-1.8-1.3-1.6-2.3c0.2-1.1,1.3-1.8,2.3-1.6l11.5,2.2L72,25
				c1.1-0.2,2.1,0.5,2.3,1.6s-0.5,2.1-1.6,2.3l-12.3,2.3C60.4,31.2,60.3,31.2,60.2,31.2z"/>
			<path d="M60.2,46.5c-0.1,0-0.2,0-0.2,0l-17.7-2c-0.9-0.1-1.6-0.8-1.8-1.7c-1.7-10.6,3.4-18,9.3-19.8c5.3-1.6,10.2-1.6,10.4-1.6
				c0.2,0,4.9-0.1,10.4,1.6c5.8,1.8,11,9.3,9.4,19.8c-0.1,0.9-0.9,1.6-1.8,1.7l-17.8,2C60.3,46.5,60.3,46.5,60.2,46.5z M78,42.5
				L78,42.5L78,42.5z M44.3,40.7l15.9,1.8l16-1.8c0.6-7.2-2.8-12.7-6.8-13.9c-4.8-1.5-9.1-1.4-9.2-1.4c-0.1,0-4.5,0-9.3,1.4
				C47,28,43.6,33.1,44.3,40.7z"/>
		</g>
		<g>
			<path d="M33.1,75.3c-1.1,0-2-0.9-2-2v-3.7l-11,0.1l0,0c-1,0-1.8-0.7-2-1.7c-3.1-18.5,1.3-30.2,1.5-30.7s0.6-0.9,1.1-1.1
				c0.5-0.2,1.1-0.2,1.6,0l11.6,5.1c0.7,0.3,1.2,1,1.2,1.8v24.5l0,0v5.7C35.1,74.4,34.2,75.3,33.1,75.3z M22.8,40.7
				c-1,3.8-2.7,12.7-0.9,24.9l9.3-0.1V44.4L22.8,40.7z"/>
			<circle cx="28.1" cy="47.1" r="1.6"/>
		</g>
		<path d="M35.9,89.7h-6c-2.6,0-4.7-2.1-4.7-4.7v-8.9c0-2.6,2.1-4.7,4.7-4.7h6c2.5,0,4.7,2.2,4.7,4.7V85
			C40.6,87.6,38.5,89.7,35.9,89.7z M29.9,75.4c-0.4,0-0.7,0.3-0.7,0.7V85c0,0.4,0.3,0.7,0.7,0.7h6c0.4,0,0.7-0.3,0.7-0.7v-8.9
			c0-0.3-0.3-0.7-0.7-0.7H29.9z"/>
	</g>
</g>
</svg>
