<?xml version="1.0" encoding="utf-8"?>
<!-- Generator: Adobe Illustrator 25.4.1, SVG Export Plug-In . SVG Version: 6.00 Build 0)  -->
<svg version="1.1" id="Layer_1" xmlns="http://www.w3.org/2000/svg" xmlns:xlink="http://www.w3.org/1999/xlink" x="0px" y="0px"
	 viewBox="0 0 94.2 100.1" style="enable-background:new 0 0 94.2 100.1;" xml:space="preserve">
<g id="Default_x5F_Hexagon_copy">
	<g id="Default_1_">
		<path d="M47,100.1c-2,0-4-0.5-5.8-1.5l-35-19.2C2.4,77.3,0,73.3,0,68.9V31.3c0-4.4,2.4-8.4,6.2-10.5l35-19.2c3.6-2,7.9-2,11.5,0
			l35,19.2c3.8,2.1,6.2,6.1,6.2,10.5v37.6c0,4.4-2.4,8.4-6.2,10.5l-35,19.2C51,99.6,49,100.1,47,100.1z M47,4.1
			c-1.3,0-2.6,0.3-3.9,1l-35,19.2c-2.6,1.4-4.1,4.1-4.1,7v37.6c0,2.9,1.6,5.6,4.1,7l35,19.2c2.4,1.3,5.3,1.3,7.7,0l35-19.2
			c2.6-1.4,4.2-4.1,4.2-7V31.3c0-2.9-1.6-5.6-4.2-7l-35-19.2C49.7,4.4,48.3,4.1,47,4.1z"/>
	</g>
</g>
<g id="Your_Icon">
	<g id="Group_170520_1_" transform="translate(700.689 483.372) rotate(-30)">
		<path d="M-377.8-716.9c-1.5-0.8-2.1-3.3-3-6.4c-0.3-1.1-0.6-2.1-0.8-2.9c-0.2-0.6-0.4-1.2-0.6-1.7c-0.7-1.9-1.2-3.4-1.3-5.1
			c-0.1-0.9,0-2.5,0.1-3.7c0.1-1.1,1.1-1.9,2.2-1.8c1.1,0.1,1.9,1.1,1.8,2.2c-0.2,1.5-0.1,2.5-0.1,2.7c0,0.1,0,0.2,0,0.2
			c0.1,1.2,0.5,2.4,1.1,4.1c0.2,0.5,0.4,1.1,0.6,1.8c0.3,0.9,0.6,2,0.9,3.1c0.3,1.1,0.7,2.6,1.1,3.6c0.3-0.2,0.5-0.5,0.5-0.9
			c0-0.1,0-0.3-0.1-0.4c-0.1-0.2-0.7-2.4-1.3-5.3c-0.2-0.7,0.1-1.5,0.7-2c1.9-1.6,2.4-5.2,2.5-6.5c0.1-1.1,1-2,2.1-1.9
			c1.1,0.1,2,1,1.9,2.1c0,0.6-0.3,5.4-3,8.5c0.5,2.2,1,3.9,1,3.9c0.2,0.5,0.2,1,0.2,1.6c-0.1,2.8-2.4,5.1-5.2,5
			C-377.1-716.6-377.4-716.7-377.8-716.9z"/>
		<path d="M-354.6-722.4c-0.6-0.3-1.1-0.8-1.5-1.4c-0.1-0.1-0.9-1.3-1-1.5l-3.6-6.2c-0.6-1-0.2-2.2,0.7-2.7s2.2-0.2,2.7,0.7l3.6,6.2
			c0.1,0.1,0.7,1.1,0.8,1.2c0.2,0.2,0.4,0.3,0.6,0.3c0.1,0,0.4,0,0.7-0.2c0.4-0.3,0.5-0.8,0.2-1.2l-7.8-13.4c-1.2-2.2-1.8-2.8-2.1-3
			c-1-0.4-1.5-1.6-1-2.6c0.4-1,1.6-1.5,2.6-1c1.6,0.7,2.9,2.7,4,4.6l0.1,0.2l7.7,13.1c1.3,2.2,0.8,5-1.3,6.5
			c-1.1,0.8-2.4,1.1-3.7,0.9C-353.6-721.9-354.1-722.1-354.6-722.4z"/>
		<path d="M-357.4-715.6c-0.8-0.4-1.4-1.1-1.8-1.9l-6.4-10.9c-0.6-1-0.2-2.2,0.7-2.7c1-0.6,2.2-0.2,2.7,0.7l6.4,11
			c0.3,0.5,0.8,0.7,1.2,0.5c0.4-0.2,0.6-0.6,0.4-1.1c-0.1-0.2-0.3-0.5-0.5-0.8c-0.2-0.3-0.3-0.5-0.3-0.5l-3.5-6.1
			c-0.6-1-0.2-2.2,0.7-2.7c1-0.6,2.2-0.2,2.7,0.7l3.7,6.4c0.6,1,0.7,1,0.7,1.2c1.1,2.5,0,5.4-2.4,6.5
			C-354.4-714.7-356-714.9-357.4-715.6z"/>
		<path d="M-367.8-710.8c-0.8-0.4-1.4-1.1-1.8-1.9l-5.7-10.2c-0.5-1-0.2-2.2,0.8-2.7c1-0.5,2.2-0.2,2.7,0.8l5.7,10.2
			c0.2,0.4,0.8,0.6,1.2,0.4c0.2-0.1,0.4-0.3,0.4-0.5c0-0.1,0.1-0.4,0-0.7l-4.3-7.2c-0.6-1-0.2-2.2,0.7-2.7c1-0.6,2.2-0.2,2.7,0.7
			l4.2,7.2c0.1,0.2,0.2,0.3,0.2,0.4c0.5,1.2,0.6,2.5,0.1,3.7c-0.5,1.2-1.4,2.2-2.6,2.7C-364.9-709.9-366.5-710-367.8-710.8z"/>
		<path d="M-361-710.5c-0.8-0.4-1.4-1.1-1.8-1.9l-7.7-13.2c-0.6-1-0.2-2.2,0.7-2.7c1-0.6,2.2-0.2,2.7,0.7l7.7,13.2
			c0.3,0.5,0.8,0.6,1.2,0.5c0.4-0.2,0.6-0.7,0.4-1.1l-3.5-6.1c-0.6-1-0.2-2.2,0.7-2.7c1-0.6,2.2-0.2,2.7,0.7l3.5,6
			c0.1,0.1,0.2,0.3,0.2,0.4c1.1,2.5,0,5.4-2.4,6.5C-358.1-709.6-359.7-709.7-361-710.5z"/>
	</g>
	<g id="Group_170520_2_" transform="translate(700.689 483.372) rotate(-30)">
		<path d="M-310.3-699.7C-310.3-699.7-310.3-699.7-310.3-699.7c-0.6-0.4-4.6-3-5.9-6.9c-2.2-0.7-3.8-1.1-3.9-1.1
			c-0.5-0.1-1-0.3-1.5-0.6c-2.4-1.5-3.2-4.6-1.7-7.1c1.2-2,4-1.3,7.9-0.2c1.1,0.3,2.1,0.6,2.9,0.7c0.6,0.1,1.2,0.2,1.8,0.3
			c2,0.3,3.5,0.6,5.1,1.4c0.7,0.3,2,1.1,3.3,2c0.9,0.7,1.1,1.9,0.4,2.8c-0.7,0.9-1.9,1.1-2.8,0.4c-1.3-0.9-2.2-1.4-2.4-1.5
			c-0.1,0-0.2-0.1-0.2-0.1c-1.1-0.5-2.3-0.8-4.1-1.1c-0.6-0.1-1.2-0.2-1.8-0.3c-0.9-0.2-2.1-0.5-3.2-0.8c-1.1-0.3-2.6-0.7-3.6-0.8
			c0,0.3,0.2,0.7,0.5,0.9c0.1,0.1,0.2,0.1,0.4,0.1c0.2,0,2.4,0.6,5.2,1.5c0.7,0.2,1.2,0.8,1.4,1.5c0.4,2.4,3.3,4.7,4.4,5.4
			c0.9,0.6,1.2,1.8,0.6,2.8C-308.2-699.4-309.4-699.1-310.3-699.7z"/>
		<path d="M-329.2-685c-1.3-0.8-2.2-2.1-2.4-3.7c-0.1-1.3,0.3-2.6,1.1-3.6c0.8-1,2-1.6,3.3-1.8c0.1,0,1.6-0.1,1.8-0.1h7.1
			c1.1,0,2,0.9,2,2c0,1.1-0.9,2-2,2l-7.1,0c-0.1,0-1.3,0.1-1.4,0.1c-0.3,0-0.5,0.2-0.6,0.3c-0.1,0.1-0.2,0.3-0.2,0.6
			c0.1,0.4,0.5,0.8,1,0.8l15.5-0.1c2.5,0,3.3-0.2,3.6-0.3c0.9-0.7,2.1-0.5,2.8,0.4c0.7,0.9,0.5,2.1-0.4,2.8c-1.4,1-3.7,1.1-6,1.1
			l-0.2,0l-15.2,0.1C-327.6-684.3-328.5-684.5-329.2-685z"/>
		<path d="M-333.8-690.7c-1.6-0.9-2.6-2.7-2.4-4.7c0.3-2.6,2.5-4.4,5-4.4l12.7-0.1c1.1,0,2,0.9,2,2c0,1.1-0.9,2-2,2l-12.7,0.1
			c-0.5,0-1,0.4-1,0.8c0,0.3,0.1,0.5,0.2,0.6c0.1,0.1,0.2,0.3,0.5,0.3c0.2,0,0.6,0,0.9,0s0.6,0,0.6,0h7c1.1,0,2,0.9,2,2s-0.9,2-2,2
			l-7.4,0c-1.1,0.1-1.2,0.1-1.4,0C-332.6-690.2-333.3-690.4-333.8-690.7z"/>
		<path d="M-332.8-702.2c-1.6-0.9-2.6-2.7-2.4-4.7c0.3-2.6,2.5-4.4,5-4.4l11.7,0.1c1.1,0,2,0.9,2,2c0,1.1-0.9,2-2,2l-11.7-0.1
			c-0.5,0-0.9,0.4-1,0.8c0,0.4,0.3,0.9,0.8,0.9l8.4-0.1c1.1,0,2,0.9,2,2c0,1.1-0.9,2-2,2l-8.3,0.1c-0.2,0-0.3,0-0.5,0
			C-331.6-701.7-332.2-701.9-332.8-702.2z"/>
		<path d="M-336.5-696.5c-0.5-0.3-1-0.7-1.3-1.1c-0.8-1-1.2-2.3-1.1-3.6c0.3-2.6,2.5-4.4,5-4.4l15.3-0.1c1.1,0,2,0.9,2,2
			c0,1.1-0.9,2-2,2l-15.3,0.1c-0.5,0-1,0.4-1,0.8c0,0.3,0.1,0.5,0.2,0.6c0.1,0.1,0.3,0.3,0.6,0.3l7.1,0c1.1,0,2,0.9,2,2
			c0,1.1-0.9,2-2,2h-7c-0.2,0-0.3,0-0.5,0C-335.2-695.9-335.9-696.1-336.5-696.5z"/>
	</g>
	<g id="Group_170520_3_" transform="translate(700.689 483.372) rotate(-30)">
		<path d="M-362.8-657.7c-0.3-0.2-0.5-0.4-0.7-0.6c-0.6-0.9-0.4-2.2,0.6-2.8c1-0.7,1.8-1.6,3-3c0.4-0.4,0.8-0.9,1.2-1.4
			c0.6-0.7,1.5-1.6,2.3-2.4c0.8-0.8,1.9-1.9,2.5-2.7c0,0-0.1,0-0.1-0.1c-0.3-0.1-0.6,0-0.9,0.1c-0.1,0.1-0.2,0.1-0.3,0.2
			c-0.1,0.1-1.8,1.8-3.9,3.8c-0.5,0.5-1.3,0.7-2,0.4c-2.3-0.8-5.8,0.5-6.9,1.1c-1,0.5-2.2,0.1-2.7-0.9c-0.5-1-0.1-2.2,0.9-2.7
			c0.5-0.3,4.8-2.4,8.9-1.6c1.7-1.5,2.9-2.8,2.9-2.8c0.3-0.4,0.8-0.7,1.3-1c1.2-0.7,2.6-0.8,3.9-0.4c1.3,0.4,2.4,1.3,3.1,2.5
			c1.1,2.1-0.9,4.1-3.7,7c-0.8,0.8-1.5,1.5-2.1,2.2c-0.4,0.5-0.8,1-1.2,1.4c-1.3,1.6-2.3,2.8-3.8,3.8
			C-361.4-657.3-362.2-657.3-362.8-657.7z"/>
		<path d="M-383.4-671c-0.5-0.3-0.9-0.8-1-1.5c-0.2-1.8,0.7-3.2,1.3-4.3c0.1-0.2,0.2-0.4,0.3-0.5l7.5-13.2c1.2-2.2,3.9-3.1,6.3-2.1
			c1.2,0.6,2.1,1.5,2.6,2.7c0.5,1.2,0.4,2.5-0.1,3.7c0,0.1-0.7,1.4-0.8,1.6l-3.6,6.2c-0.6,1-1.8,1.3-2.7,0.7s-1.3-1.8-0.7-2.7
			l3.6-6.2c0.1-0.1,0.6-1.1,0.6-1.3c0.1-0.3,0.1-0.5,0-0.6c0-0.1-0.2-0.4-0.5-0.5c-0.4-0.2-0.9,0-1.2,0.4l-7.5,13.2
			c-0.1,0.2-0.3,0.4-0.4,0.7c-0.3,0.6-0.8,1.3-0.8,1.7c0.1,1.1-0.6,2.1-1.7,2.2C-382.6-670.7-383-670.8-383.4-671z"/>
		<path d="M-368.4-674.9c-1-0.5-1.3-1.8-0.7-2.7l6.3-11.1c0.3-0.5,0.2-1-0.2-1.3c-0.2-0.2-0.5-0.1-0.6-0.1c-0.1,0-0.3,0.1-0.5,0.3
			c-0.1,0.2-0.3,0.5-0.4,0.8c-0.1,0.3-0.3,0.5-0.3,0.5l-3.5,6c-0.6,1-1.8,1.3-2.7,0.7s-1.3-1.8-0.7-2.7l3.7-6.4
			c0.5-1,0.6-1.1,0.7-1.2c0.8-1.1,1.9-1.8,3.2-2c1.3-0.2,2.6,0.1,3.6,0.8c2.1,1.6,2.6,4.4,1.3,6.5l-6.3,11
			C-366.2-674.7-367.5-674.4-368.4-674.9C-368.4-674.9-368.4-674.9-368.4-674.9z"/>
		<path d="M-358.7-669.3C-358.7-669.3-358.7-669.3-358.7-669.3c-1-0.6-1.3-1.8-0.7-2.8l6-10c0.3-0.4,0.2-1-0.2-1.3
			c-0.2-0.2-0.5-0.1-0.6-0.1s-0.4,0.1-0.6,0.4l-4.1,7.3c-0.5,1-1.8,1.3-2.7,0.8c0,0,0,0,0,0c-0.9-0.5-1.3-1.8-0.7-2.7l4.1-7.2
			c0.1-0.2,0.2-0.3,0.3-0.4c1.6-2.2,4.6-2.7,6.8-1.1c2.1,1.6,2.6,4.4,1.3,6.5l-6,10C-356.5-669-357.7-668.7-358.7-669.3z"/>
		<path d="M-363.4-672c-1-0.5-1.3-1.8-0.7-2.7l7.6-13.3c0.3-0.5,0.2-1-0.2-1.3c-0.2-0.2-0.5-0.1-0.6-0.1c-0.1,0-0.4,0.1-0.6,0.4
			l-3.5,6.1c-0.6,1-1.8,1.3-2.7,0.7s-1.3-1.8-0.7-2.7l3.5-6c0.1-0.1,0.2-0.3,0.3-0.4c0.8-1,1.9-1.8,3.2-2c1.3-0.2,2.6,0.1,3.6,0.8
			c2.1,1.6,2.6,4.4,1.3,6.5l-7.6,13.3C-361.3-671.8-362.5-671.5-363.4-672C-363.4-672-363.4-672-363.4-672z"/>
	</g>
	<path d="M24,71.5c-0.8,0-1.5-0.4-1.8-1.2c-0.5-1,0-2.2,1-2.7l5.4-2.5c1-0.5,2.2,0,2.7,1s0,2.2-1,2.7l-5.4,2.5
		C24.5,71.4,24.2,71.5,24,71.5z"/>
	<path d="M50.3,41.7c-0.5,0-1.1-0.1-1.6-0.3c-1.8-0.8-3.4-1.9-4.7-3.3c-3.2-3.5-4-8.4-4-8.6c-0.1-0.6,0.1-1.3,0.6-1.7
		c0.5-0.5,1.1-0.7,1.7-0.6c0.2,0,4.6,0.8,7.9,4.3c1.2,1.4,2.3,3.1,3,5.1l0,0c0.6,1.6,0.3,3.2-0.7,4.2C51.9,41.4,51.1,41.7,50.3,41.7
		z M45.2,32.5c0.4,1,1,2,1.8,2.8c0.6,0.6,1.3,1.2,2.1,1.7c-0.5-1.1-1.1-2.1-1.8-2.8C46.6,33.5,45.9,32.9,45.2,32.5z"/>
	<path d="M35.1,65c-0.2,0-0.5,0-0.7-0.1c-0.2-0.1-4.3-1.7-5.3-5.6c-0.4-1.5-0.3-3.2,0.2-5l0,0c0.4-1.4,1.5-2.5,2.9-2.9
		c1.2-0.4,2.5-0.2,3.4,0.6c1.4,1.1,2.3,2.5,2.7,4c1,3.7-1.2,7.6-1.5,8C36.4,64.7,35.7,65,35.1,65z M33.1,55.4
		c-0.3,1.1-0.4,2.1-0.2,2.9c0.2,0.8,0.7,1.4,1.3,1.9c0.3-1,0.5-2.1,0.3-3.1c-0.2-0.6-0.6-1.2-1.2-1.8C33.1,55.3,33.1,55.3,33.1,55.4
		L33.1,55.4z"/>
	<path d="M43.5,24.8c-0.4,0-0.7-0.1-1-0.3l-3.8-2.3c-0.9-0.6-1.2-1.8-0.7-2.8c0.6-0.9,1.8-1.2,2.8-0.7l3.8,2.3
		c0.9,0.6,1.2,1.8,0.7,2.8C44.8,24.5,44.1,24.8,43.5,24.8z"/>
	<path d="M74.6,70.9c-0.2,0-0.4,0-0.7-0.1l-4.8-1.7c-1-0.4-1.6-1.5-1.2-2.5c0.4-1,1.5-1.6,2.5-1.2l4.8,1.7c1,0.4,1.6,1.5,1.2,2.5
		C76.2,70.4,75.4,70.9,74.6,70.9z"/>
	<path d="M21.4,67.4c-1.1,0-2-0.9-2-2v-3.7c0-1.1,0.9-2,2-2s2,0.9,2,2v3.7C23.4,66.5,22.5,67.4,21.4,67.4z"/>
	<path d="M49.3,26.9c-0.5,0-1-0.2-1.4-0.6c-0.8-0.8-0.8-2,0-2.8l3-3c0.8-0.8,2-0.8,2.8,0s0.8,2,0,2.8l-3,3
		C50.3,26.7,49.8,26.9,49.3,26.9z"/>
	<path d="M72.7,63.6c-0.9,0-1.7-0.6-1.9-1.6c-0.2-1.1,0.4-2.1,1.5-2.4l4.1-0.9c1.1-0.2,2.1,0.4,2.4,1.5c0.2,1.1-0.4,2.1-1.5,2.4
		l-4.1,0.9C73,63.6,72.8,63.6,72.7,63.6z"/>
	<path d="M65.1,72.8c-0.4,0-0.8-0.1-1.2-0.4l-4.1-3c-0.9-0.7-1.1-1.9-0.4-2.8c0.7-0.9,1.9-1.1,2.8-0.4l4.1,3
		c0.9,0.7,1.1,1.9,0.4,2.8C66.3,72.5,65.7,72.8,65.1,72.8z"/>
	<path d="M55.4,33.8c-1.1,0-2-0.9-2-2v-4c0-1.1,0.9-2,2-2s2,0.9,2,2v4C57.4,32.9,56.5,33.8,55.4,33.8z"/>
	<path d="M66.3,64.8c-1.1,0-2-0.9-2-2v-4c0-1.1,0.9-2,2-2s2,0.9,2,2v4C68.3,64,67.4,64.8,66.3,64.8z"/>
	<path d="M24.9,59.1c-0.2,0-0.4,0-0.6-0.1l-4.1-1.2c-1.1-0.3-1.7-1.4-1.3-2.5s1.4-1.7,2.5-1.3l4.1,1.2c1.1,0.3,1.7,1.4,1.3,2.5
		C26.5,58.5,25.7,59.1,24.9,59.1z"/>
	<g>
		<g>
			<path d="M44.5,49.7c2.6-4.6-1.8-6.3-1.8-6.3l0,0c0,0-3.7,3.9,4.8,7.7l0,0c-1.1-0.4-4.8-2-6.5,1.4"/>
			<path d="M41,54.6c-0.3,0-0.6-0.1-0.9-0.2c-1-0.5-1.4-1.7-0.9-2.7c0.4-0.8,1.1-1.8,2.1-2.4c-0.7-0.9-1.2-1.8-1.3-2.7
				c-0.5-2.4,0.9-4.1,1.2-4.4c0.6-0.6,1.4-0.8,2.2-0.5c0.3,0.1,2.7,1.1,3.6,3.6c0.3,0.8,0.5,2,0.1,3.5c0.4,0.2,0.8,0.4,1.3,0.6
				c1,0.5,1.4,1.6,1,2.6c-0.4,1-1.6,1.5-2.6,1.1c-2.9-1.1-3.5-0.4-3.9,0.5C42.5,54.2,41.8,54.6,41,54.6z"/>
		</g>
		<path d="M56.7,64.8c-0.8,0-1.6-0.5-1.9-1.3c-0.2-0.6-0.6-1.2-1.1-1.8l-0.2-0.2c-2.3-3.4-5.7-3.5-7.3-2.6c-0.6,0.3-1.3,0.4-1.9,0.1
			c-0.6-0.3-1-0.8-1.1-1.5c-0.2-0.9-0.2-1.8,0-2.6c0.4-1.7,1.4-3.2,3-4.3c0-2,0.6-3.7,1.8-4.9c0.7-0.7,1.5-1.2,2.5-1.6
			c0.7-0.2,1.4-0.1,2,0.4s0.8,1.2,0.7,1.9c0,0,0,0.1,0,0.1c-0.2,1.4,0.6,3.2,2.8,4.2l0,0c3,1.4,4.5,1.2,5.5,1c0.6-0.2,1.2,0,1.7,0.3
			c0.5,0.4,0.8,0.9,0.8,1.6c0,0.4,0,0.8-0.1,1.1c-0.2,1.5-1.3,3.4-2.7,4.5c0,2-1.1,4.2-3.3,5.2c-0.3,0.1-0.5,0.2-0.8,0.3
			C57.2,64.8,56.9,64.8,56.7,64.8z M48.3,54.4c3,0,6.3,1.5,8.6,4.8l0.1,0.2c0.1,0.1,0.2,0.3,0.3,0.4c0.1-0.4,0.1-0.9,0.1-1.1
			c-0.2-0.5-0.1-1.1,0.2-1.6c0.3-0.5,0.8-0.8,1.3-0.9c0.1,0,0.2-0.2,0.4-0.3c-1.5-0.2-3-0.6-4.8-1.5l0,0c-1.8-0.8-3.2-2.1-4.1-3.5
			c0,0,0,0,0,0c0.1,1.2-0.6,2.4-1.6,3c-0.2,0.1-0.5,0.3-0.7,0.6C48.2,54.4,48.3,54.4,48.3,54.4z"/>
	</g>
</g>
</svg>
