<svg width="100" height="100" viewBox="0 0 100 100" fill="none" xmlns="http://www.w3.org/2000/svg">
<path d="M50.0203 2L6.78058 26.9649L6.28271 73.7706L50.8076 99L93.7019 75.759L94.2215 26.7315L50.0203 2Z" fill="#52372E"/>
<path d="M94.2624 68.9867V32.1383C94.2624 28.5599 92.3114 25.2647 89.1749 23.5408L54.8501 4.69657C51.9095 3.08161 48.3498 3.08161 45.4124 4.69657L11.0876 23.5408C7.95101 25.2647 6 28.5599 6 32.1383V68.9867C6 72.5651 7.95101 75.8604 11.0876 77.5843L45.4124 96.4285C48.3529 98.0435 51.9126 98.0435 54.8501 96.4285L89.1749 77.5843C92.3114 75.8604 94.2624 72.5651 94.2624 68.9867Z" stroke="white" stroke-width="3.92381" stroke-linecap="round" stroke-linejoin="round"/>
<path d="M6.06152 37.0461C6.6963 38.4743 7.29685 39.5167 7.5769 39.8466C8.62242 41.4366 10.0413 42.4199 12.2755 44.3523C14.5097 46.2815 17.9605 50.392 19.0061 49.8195C20.4934 48.998 21.0349 47.1248 20.2134 45.6374C20.0454 45.3324 19.8275 45.0586 19.5693 44.8284C19.5693 44.8284 17.9232 43.2352 16.0157 41.1317C17.304 37.5408 14.8458 32.8018 14.8458 32.8018" stroke="white" stroke-width="3.92381" stroke-linecap="round" stroke-linejoin="round"/>
<path d="M19.4619 19.2776C20.7253 19.122 23.0497 20.5254 24.0921 21.129L37.0428 28.5161C38.3404 29.238 38.8849 30.8188 38.3093 32.1848C37.6652 33.6037 35.9942 34.2354 34.5722 33.5913C34.4882 33.5539 33.2404 32.9285 33.1595 32.8818L27.1135 29.3905" stroke="white" stroke-width="3.92381" stroke-linecap="round" stroke-linejoin="round"/>
<path d="M24.4463 34.3737L35.2873 40.5411C36.56 41.3034 38.203 40.986 39.0991 39.8005C40.0077 38.534 39.7152 36.7697 38.4488 35.8611C38.3741 35.8082 37.1295 35.1734 37.0517 35.1299L31.1208 31.707" stroke="white" stroke-width="3.92381" stroke-linecap="round" stroke-linejoin="round"/>
<path d="M18.8979 43.9528L28.7526 49.8059C30.0253 50.5682 31.6682 50.2509 32.5644 49.0653C33.473 47.7989 33.1805 46.0346 31.914 45.1259C31.8394 45.073 31.7616 45.0233 31.6807 44.9766L24.5861 40.9688" stroke="white" stroke-width="3.92381" stroke-linecap="round" stroke-linejoin="round"/>
<path d="M21.6235 39.2616L34.6863 46.7141C35.959 47.4764 37.6019 47.159 38.4981 45.9735C39.4067 44.707 39.1142 42.9427 37.8478 42.0341C37.7731 41.9812 37.6953 41.9314 37.6144 41.8847L31.6835 38.4619" stroke="white" stroke-width="3.92381" stroke-linecap="round" stroke-linejoin="round"/>
<path d="M85.437 21.7019C83.8065 21.5183 82.5338 21.5183 82.0919 21.5961C80.1938 21.7081 78.6287 22.4425 75.8406 23.4133C73.0526 24.3842 67.7689 25.3177 67.7378 26.5094C67.7067 28.2084 69.0572 29.6149 70.7562 29.646C71.1047 29.6522 71.4501 29.5993 71.7799 29.4904C71.7799 29.4904 73.9829 28.8619 76.7585 28.2582C79.223 31.1676 84.5595 31.4103 84.5595 31.4103" stroke="white" stroke-width="3.92381" stroke-linecap="round" stroke-linejoin="round"/>
<path d="M93.9634 42.1787C93.4655 43.3487 91.0882 44.6618 90.0458 45.2624L77.1728 52.7864C75.9002 53.5487 74.2572 53.2314 73.361 52.0458C72.4524 50.7794 72.7449 49.015 74.0114 48.1064C74.086 48.0535 75.2529 47.285 75.3307 47.2383L81.3767 43.747" stroke="white" stroke-width="3.92381" stroke-linecap="round" stroke-linejoin="round"/>
<path d="M78.3998 38.9482L67.6366 45.2525C66.339 45.9744 65.7945 47.5551 66.3701 48.9211C67.0142 50.3401 68.6883 50.9717 70.1072 50.3276C70.1912 50.2903 71.3612 49.5279 71.4421 49.4843L77.373 46.0615" stroke="white" stroke-width="3.92381" stroke-linecap="round" stroke-linejoin="round"/>
<path d="M72.8754 29.3516L62.8807 34.9619C61.5831 35.6838 61.0386 37.2645 61.6143 38.6306C62.2584 40.0495 63.9293 40.6812 65.3514 40.037C65.4354 39.9997 65.5163 39.9561 65.5972 39.9095L72.614 35.7678" stroke="white" stroke-width="3.92381" stroke-linecap="round" stroke-linejoin="round"/>
<path d="M75.5766 34.0576L62.5917 41.6439C61.2941 42.3658 60.7495 43.9465 61.3252 45.3125C61.9693 46.7314 63.6403 47.3631 65.0623 46.719C65.1463 46.6817 65.2272 46.6381 65.3081 46.5914L71.239 43.1686" stroke="white" stroke-width="3.92381" stroke-linecap="round" stroke-linejoin="round"/>
<path d="M60.5011 92.8298C61.3537 91.1278 61.4999 89.407 62.0538 86.51C62.6077 83.61 64.4404 78.5691 63.4229 77.9467C61.9667 77.0692 60.0748 77.536 59.1973 78.9922C59.0168 79.291 58.8892 79.6146 58.8176 79.9569C58.8176 79.9569 58.2607 82.1817 57.3956 84.8826C53.6429 85.561 50.7646 90.0636 50.7646 90.0636" stroke="white" stroke-width="3.92381" stroke-linecap="round" stroke-linejoin="round"/>
<path d="M36.5656 91.5997C35.8001 90.5822 36.0304 89.0886 36.0304 87.8844L35.9526 72.9733C35.9277 71.489 37.0261 70.2257 38.4979 70.0421C40.0506 69.8896 41.4322 71.0222 41.5847 72.575C41.594 72.6683 41.6749 74.0592 41.6749 74.1526V81.1352" stroke="white" stroke-width="3.92381" stroke-linecap="round" stroke-linejoin="round"/>
<path d="M47.3196 80.9605L47.2418 68.4889C47.2667 67.0046 46.1683 65.7413 44.6965 65.5577C43.1437 65.4052 41.7622 66.5379 41.6097 68.0906C41.6004 68.1808 41.675 69.5749 41.675 69.6682V76.517" stroke="white" stroke-width="3.92381" stroke-linecap="round" stroke-linejoin="round"/>
<path d="M58.3952 80.9765L58.5352 69.5162C58.5601 68.032 57.4617 66.7686 55.9898 66.585C54.4371 66.4326 53.0555 67.5652 52.9031 69.1179C52.8937 69.2113 52.8906 69.3015 52.8906 69.3949L52.9684 77.5443" stroke="white" stroke-width="3.92381" stroke-linecap="round" stroke-linejoin="round"/>
<path d="M52.967 80.9592L52.8892 65.9205C52.9141 64.4363 51.8157 63.1729 50.3438 62.9893C48.7911 62.8369 47.4095 63.9695 47.2571 65.5222C47.2477 65.6156 47.2446 65.7058 47.2446 65.7992V72.648" stroke="white" stroke-width="3.92381" stroke-linecap="round" stroke-linejoin="round"/>
<path d="M27.5117 69.5755L32.7642 67.1328" stroke="white" stroke-width="3.92381" stroke-linecap="round" stroke-linejoin="round"/>
<path d="M54.3986 37.9959C55.0147 39.6016 54.0159 40.8058 52.5938 40.171C51.3709 39.6233 49.924 38.7521 48.6825 37.386C45.9131 34.3366 45.2285 29.9834 45.2285 29.9834C45.2285 29.9834 49.0372 30.5746 51.8066 33.624C53.0481 34.9901 53.8696 36.6175 54.3986 37.9959Z" stroke="white" stroke-width="3.92381" stroke-linecap="round" stroke-linejoin="round"/>
<path d="M34.5434 55.1856C34.9386 53.832 36.6313 53.1256 37.5991 53.9098C38.4299 54.585 39.2794 55.5527 39.6248 56.8534C40.3996 59.7597 38.3863 63.2168 38.3863 63.2168C38.3863 63.2168 35.116 61.9659 34.338 59.0596C33.9895 57.7589 34.2042 56.3493 34.5434 55.1856Z" stroke="white" stroke-width="3.92381" stroke-linecap="round" stroke-linejoin="round"/>
<path d="M46.6427 23.7818L42.9336 21.501" stroke="white" stroke-width="3.92381" stroke-linecap="round" stroke-linejoin="round"/>
<path d="M77.1603 69.0298L72.4492 67.4023" stroke="white" stroke-width="3.92381" stroke-linecap="round" stroke-linejoin="round"/>
<path d="M24.9902 65.5333V61.9082" stroke="white" stroke-width="3.92381" stroke-linecap="round" stroke-linejoin="round"/>
<path d="M55.2632 22.9229L52.3164 25.8665" stroke="white" stroke-width="3.92381" stroke-linecap="round" stroke-linejoin="round"/>
<path d="M75.27 61.8247L79.3339 60.8975" stroke="white" stroke-width="3.92381" stroke-linecap="round" stroke-linejoin="round"/>
<path d="M63.8247 67.9229L67.8356 70.8852" stroke="white" stroke-width="3.92381" stroke-linecap="round" stroke-linejoin="round"/>
<path d="M58.3125 28.708V32.6225" stroke="white" stroke-width="3.92381" stroke-linecap="round" stroke-linejoin="round"/>
<path d="M68.9932 59.1445V63.059" stroke="white" stroke-width="3.92381" stroke-linecap="round" stroke-linejoin="round"/>
<path d="M24.3901 56.2285L28.3824 57.4172" stroke="white" stroke-width="3.92381" stroke-linecap="round" stroke-linejoin="round"/>
<path d="M47.64 50.2065C50.2227 45.6977 45.9193 44.0205 45.9193 44.0205C45.9193 44.0205 42.3315 47.8136 50.6148 51.6161C49.5412 51.1898 45.9473 49.6589 44.2607 53.0195" fill="black"/>
<path d="M47.64 50.2065C50.2227 45.6977 45.9193 44.0205 45.9193 44.0205C45.9193 44.0205 42.3315 47.8136 50.6148 51.6161C49.5412 51.1898 45.9473 49.6589 44.2607 53.0195" stroke="white" stroke-width="3.92692" stroke-linecap="round" stroke-linejoin="round"/>
<path d="M58.2968 52.9826C55.2567 51.5886 53.9684 48.8223 54.4383 46.6068C54.4414 46.5881 54.4507 46.5695 54.4539 46.5508C53.7755 46.7997 53.1874 47.1669 52.7393 47.6399C51.6036 48.8348 51.4698 50.4435 51.5102 51.3988C51.532 51.8873 51.2924 52.3416 50.8786 52.5999C50.0664 53.1071 48.8155 54.1277 48.4732 55.7395C48.3519 56.309 48.3488 56.9157 48.4608 57.5256C50.9408 56.0227 55.4216 56.5455 58.2096 60.5937C58.7293 61.3405 59.2956 62.1029 59.6317 63.0177C59.8464 62.943 60.0611 62.8621 60.2696 62.7719C62.205 61.9473 62.5909 59.7069 62.1863 58.4156C63.4466 58.1355 64.825 56.2187 65.0117 54.8496C65.0491 54.5695 65.0646 54.3019 65.0584 54.0468C63.3875 54.4949 61.3898 54.4015 58.2937 52.9795L58.2968 52.9826Z" stroke="white" stroke-width="3.92381" stroke-linecap="round" stroke-linejoin="round"/>
</svg>
