<?xml version="1.0" encoding="utf-8"?>
<!-- Generator: Adobe Illustrator 24.3.0, SVG Export Plug-In . SVG Version: 6.00 Build 0)  -->
<svg version="1.1" xmlns="http://www.w3.org/2000/svg" xmlns:xlink="http://www.w3.org/1999/xlink" x="0px" y="0px"
	 viewBox="0 0 100 100" enable-background="new 0 0 100 100" xml:space="preserve">
<g id="Warning_x5F_Hexagon" display="none">
	<path display="inline" d="M60.457,91.874l14.907-24.93c0.009-0.016,0.019-0.031,0.029-0.047c1.101-1.785,3.01-2.85,5.107-2.85
		s4.006,1.065,5.107,2.85c0.01,0.016,0.019,0.031,0.029,0.047l6.744,11.278c2.881-2.251,4.62-5.713,4.62-9.44V31.217
		c0-4.38-2.386-8.41-6.225-10.518L55.774,1.488c-3.615-1.984-7.933-1.984-11.549,0l-35,19.212C5.385,22.807,3,26.838,3,31.217
		v37.566c0,4.38,2.385,8.41,6.225,10.517l35,19.211C46.033,99.504,48.017,100,50,100s3.967-0.496,5.775-1.489l3.966-2.177
		C59.397,94.831,59.634,93.227,60.457,91.874z"/>
	<path display="inline" d="M97.119,93.9L82.202,68.95c-0.781-1.267-2.623-1.267-3.405,0L63.881,93.9
		c-0.822,1.333,0.137,3.05,1.702,3.05h29.834C96.982,96.95,97.941,95.233,97.119,93.9z M79,78c0-0.828,0.672-1.5,1.5-1.5
		S82,77.172,82,78v7c0,0.828-0.672,1.5-1.5,1.5S79,85.828,79,85V78z M80.5,93c-1.105,0-2-0.895-2-2c0-1.105,0.895-2,2-2s2,0.895,2,2
		C82.5,92.105,81.605,93,80.5,93z"/>
</g>
<g id="TopLeft_x5F_Gap_x5F_Hexagon" display="none">
	<path display="inline" fill="none" stroke="#000000" stroke-width="4" stroke-linecap="round" stroke-linejoin="round" d="
		M5,32.046v36.74c0,3.65,1.988,7.01,5.188,8.766l35,19.214c2.997,1.645,6.627,1.645,9.625,0l35-19.214
		C93.012,75.795,95,72.436,95,68.786V31.214c0-3.65-1.988-7.01-5.188-8.766l-35-19.214c-2.997-1.645-6.627-1.645-9.625,0
		L22.009,15.958"/>
</g>
<g id="TopRight_x5F_Gap_x5F_Hexagon" display="none">
	<path display="inline" fill="none" stroke="#000000" stroke-width="4" stroke-linecap="round" stroke-linejoin="round" d="
		M95,32.046v36.74c0,3.65-1.988,7.01-5.188,8.766l-35,19.214c-2.997,1.645-6.627,1.645-9.625,0l-35-19.214
		C6.988,75.795,5,72.436,5,68.786V31.214c0-3.65,1.988-7.01,5.188-8.766l35-19.214c2.997-1.645,6.627-1.645,9.625,0l23.178,12.724"
		/>
</g>
<g id="BottomRight_x5F_Gap_x5F_Hexagon" display="none">
	<path display="inline" fill="none" stroke="#000000" stroke-width="4" stroke-linecap="round" stroke-linejoin="round" d="
		M95,67.954v-36.74c0-3.65-1.988-7.01-5.188-8.766l-35-19.214c-2.997-1.645-6.627-1.645-9.625,0l-35,19.214
		C6.988,24.205,5,27.564,5,31.214v37.572c0,3.65,1.988,7.01,5.188,8.766l35,19.214c2.997,1.645,6.627,1.645,9.625,0l23.178-12.724"
		/>
</g>
<g id="BottomLeft_x5F_Gap_x5F_Hexagon" display="none">
	<path display="inline" fill="none" stroke="#000000" stroke-width="4" stroke-linecap="round" stroke-linejoin="round" d="
		M5,67.954v-36.74c0-3.65,1.988-7.01,5.188-8.766l35-19.214c2.997-1.645,6.627-1.645,9.625,0l35,19.214
		C93.012,24.205,95,27.564,95,31.214v37.572c0,3.65-1.988,7.01-5.188,8.766l-35,19.214c-2.997,1.645-6.627,1.645-9.625,0
		L22.009,84.042"/>
</g>
<g id="Cycle_x5F_Hexagon" display="none">
	<path display="inline" fill="none" stroke="#000000" stroke-width="4" stroke-linecap="round" stroke-linejoin="round" d="
		M29.983,11.579L10.759,22.133C7.213,24.08,5,27.865,5,31.985v36.031c0,4.119,2.213,7.905,5.759,9.852L45.18,96.764
		c3.001,1.648,6.639,1.648,9.64,0l6.156-3.388"/>
	
		<polyline display="inline" fill="none" stroke="#000000" stroke-width="4" stroke-linecap="round" stroke-linejoin="round" points="
		18.4,7.856 29.983,11.579 26.324,23.386 	"/>
	<g display="inline">
		<path fill="none" stroke="#000000" stroke-width="4" stroke-linecap="round" stroke-linejoin="round" d="M69.939,88.464
			L89.162,77.91c3.546-1.947,5.759-5.732,5.759-9.852V32.028c0-4.119-2.213-7.905-5.759-9.852L54.741,3.279
			c-3.001-1.648-6.639-1.648-9.64,0l-6.156,3.388"/>
		<polyline fill="none" stroke="#000000" stroke-width="4" stroke-linecap="round" stroke-linejoin="round" points="81.521,92.187 
			69.939,88.464 73.597,76.657 		"/>
	</g>
	
		<polyline display="inline" fill="none" stroke="#000000" stroke-width="4" stroke-linecap="round" stroke-linejoin="round" points="
		81.521,92.187 69.939,88.464 73.597,76.657 	"/>
</g>
<g id="Default_x5F_Hexagon" display="none">
	<g id="Default" display="inline">
		<path fill="none" stroke="#000000" stroke-width="4" stroke-linecap="round" stroke-linejoin="round" d="M95,68.786V31.214
			c0-3.65-1.988-7.01-5.188-8.766l-35-19.214c-2.997-1.645-6.627-1.645-9.625,0l-35,19.214C6.988,24.205,5,27.564,5,31.214v37.572
			c0,3.65,1.988,7.01,5.188,8.766l35,19.214c2.997,1.645,6.627,1.645,9.625,0l35-19.214C93.012,75.795,95,72.436,95,68.786z"/>
	</g>
</g>
<g id="Layer_20">
</g>
<g id="_x2D_---SELECT_x5F_HEXAGON_x5F_STYLE----">
</g>
<g id="_x2D_-----------GRID------------" display="none">
</g>
<g id="Your_Icon">
</g>
<g id="_x2D_-------INNER_x5F_ELEMENT--------">
</g>
<g id="Modifier_x5F_Check_1_" display="none">
	<circle display="inline" cx="83" cy="83" r="17"/>
	
		<polyline display="inline" fill="none" stroke="#FFFFFF" stroke-width="4" stroke-linecap="round" stroke-linejoin="round" points="
		76,84 82,89 90,77 	"/>
</g>
<g id="Modifier_x5F_Add" display="none">
	<circle display="inline" cx="83" cy="83" r="17"/>
	<g display="inline">
		
			<line fill="none" stroke="#FFFFFF" stroke-width="4" stroke-linecap="round" stroke-linejoin="round" x1="83" y1="75" x2="83" y2="91"/>
		
			<line fill="none" stroke="#FFFFFF" stroke-width="4" stroke-linecap="round" stroke-linejoin="round" x1="91" y1="83" x2="75" y2="83"/>
	</g>
</g>
<g id="Modifier_x5F_Remove" display="none">
	<circle display="inline" cx="83" cy="83" r="17"/>
	
		<line display="inline" fill="none" stroke="#FFFFFF" stroke-width="4" stroke-linecap="round" stroke-linejoin="round" x1="91" y1="83" x2="75" y2="83"/>
</g>
<g id="Modifier_x5F_Exclude" display="none">
	<circle display="inline" cx="83" cy="83" r="17"/>
	
		<line display="inline" fill="none" stroke="#FFFFFF" stroke-width="4" stroke-linecap="round" stroke-linejoin="round" x1="89" y1="77" x2="77" y2="89"/>
	
		<line display="inline" fill="none" stroke="#FFFFFF" stroke-width="4" stroke-linecap="round" stroke-linejoin="round" x1="89" y1="89" x2="77" y2="77"/>
</g>
<g id="Modifier_x5F_Time" display="none">
	<circle display="inline" cx="83" cy="83" r="17"/>
	<g display="inline">
		<polyline fill="none" stroke="#FFFFFF" stroke-width="4" stroke-linecap="round" stroke-linejoin="round" points="83,75 83,85 
			90,88 		"/>
	</g>
</g>
<g id="_x2D_----------MODIFIER----------">
</g>
<g id="Layer_19">
	<path fill="none" stroke="#000000" stroke-width="4" stroke-linecap="round" stroke-linejoin="round" d="M-12.125,2.777"/>
	<g>
		<g id="Default_20_">
			<path fill="none" stroke="#000000" stroke-width="4" stroke-linecap="round" stroke-linejoin="round" d="M95,68.786V31.214
				c0-3.65-1.988-7.01-5.188-8.766l-35-19.214c-2.997-1.645-6.627-1.645-9.625,0l-35,19.214C6.988,24.205,5,27.564,5,31.214v37.572
				c0,3.65,1.988,7.01,5.188,8.766l35,19.214c2.997,1.645,6.627,1.645,9.625,0l35-19.214C93.012,75.795,95,72.436,95,68.786z"/>
		</g>
		<g>
			<g>
				<g>
					<g>
						<g id="Group_170521_6_" transform="translate(991.572 432.999)">
							
								<path id="Path_95785-2_6_" fill="none" stroke="#000000" stroke-width="4" stroke-linecap="round" stroke-linejoin="round" d="
								M-974.527-392.104l4.111,2.188c3.681,1.792,1.015,7.051-0.829,5.272c-1.526-1.423-5.899-3.611-8.172-4.7
								c-1.712-0.82-3.244-1.995-4.386-3.511c-1.782-2.366-2.31-4.927-2.747-7.469"/>
							<g id="Path_95789-2_9_">
								<g>
									<path fill="none" stroke="#000000" stroke-width="4" stroke-linecap="round" stroke-linejoin="round" d="M-967.53-404.473
										l8.568,4.075c1.183,0.563,2.598,0.06,3.161-1.123c0.033-0.07,0.063-0.142,0.09-0.215c0.393-1.183-0.17-2.473-1.305-2.989
										l-12.566-6.53c-3.189-1.517-8.543-1.541-11.23,0.374"/>
								</g>
							</g>
							
								<path id="Path_95788-2_6_" fill="none" stroke="#000000" stroke-width="4" stroke-linecap="round" stroke-linejoin="round" d="
								M-969.541-400.177l11.857,5.64c1.117,0.555,2.472,0.178,3.142-0.874c0.676-1.122,0.314-2.58-0.808-3.256
								c-0.066-0.04-0.135-0.077-0.205-0.11l-3.955-1.881"/>
							
								<path id="Path_95786-2_6_" fill="none" stroke="#000000" stroke-width="4" stroke-linecap="round" stroke-linejoin="round" d="
								M-970.411-389.966l7.874,3.626c1.117,0.555,2.472,0.178,3.142-0.874c0.676-1.122,0.314-2.58-0.808-3.256
								c-0.067-0.04-0.135-0.077-0.205-0.11l-11.219-5.336"/>
							
								<path id="Path_95787-2_6_" fill="none" stroke="#000000" stroke-width="4" stroke-linecap="round" stroke-linejoin="round" d="
								M-961.712-391.2l3.938,1.873c1.117,0.555,2.472,0.178,3.142-0.874c0.676-1.122,0.314-2.58-0.808-3.256
								c-0.067-0.04-0.135-0.077-0.205-0.11l-3.448-1.64"/>
						</g>
					</g>
				</g>
			</g>
			<g>
				<g>
					<g>
						<g id="Group_170521_2_" transform="translate(991.572 432.999)">
							
								<path id="Path_95785-2_2_" fill="none" stroke="#000000" stroke-width="4" stroke-linecap="round" stroke-linejoin="round" d="
								M-908.617-392.104l-4.111,2.188c-3.681,1.792-1.015,7.051,0.829,5.272c1.526-1.423,5.899-3.611,8.172-4.7
								c1.712-0.82,3.244-1.995,4.386-3.511c1.782-2.366,2.31-4.927,2.747-7.469"/>
							<g id="Path_95789-2_2_">
								<g>
									<path fill="none" stroke="#000000" stroke-width="4" stroke-linecap="round" stroke-linejoin="round" d="M-915.614-404.473
										l-8.568,4.075c-1.183,0.563-2.598,0.06-3.161-1.123c-0.033-0.07-0.063-0.142-0.09-0.215
										c-0.393-1.183,0.17-2.473,1.305-2.989l12.566-6.53c3.189-1.517,8.543-1.541,11.23,0.374"/>
								</g>
							</g>
							
								<path id="Path_95788-2_2_" fill="none" stroke="#000000" stroke-width="4" stroke-linecap="round" stroke-linejoin="round" d="
								M-913.603-400.177l-11.857,5.64c-1.117,0.555-2.472,0.178-3.142-0.874c-0.676-1.122-0.314-2.58,0.808-3.256
								c0.066-0.04,0.135-0.077,0.205-0.11l3.955-1.881"/>
							
								<path id="Path_95786-2_2_" fill="none" stroke="#000000" stroke-width="4" stroke-linecap="round" stroke-linejoin="round" d="
								M-912.733-389.966l-7.874,3.626c-1.117,0.555-2.472,0.178-3.142-0.874c-0.676-1.122-0.314-2.58,0.808-3.256
								c0.067-0.04,0.135-0.077,0.205-0.11l11.219-5.336"/>
							
								<path id="Path_95787-2_2_" fill="none" stroke="#000000" stroke-width="4" stroke-linecap="round" stroke-linejoin="round" d="
								M-921.432-391.2l-3.938,1.873c-1.117,0.555-2.472,0.178-3.142-0.874c-0.676-1.122-0.314-2.58,0.808-3.256
								c0.067-0.04,0.135-0.077,0.205-0.11l3.448-1.64"/>
						</g>
					</g>
				</g>
			</g>
		</g>
		<g>
			<g>
				<g>
					<g id="Group_170521_7_" transform="translate(991.572 432.999)">
						
							<path id="Path_95785-2_7_" fill="none" stroke="#000000" stroke-width="4" stroke-linecap="round" stroke-linejoin="round" d="
							M-949.316-350.925l-0.21-4.653c-0.037-4.094-5.932-3.946-5.117-1.516c0.629,1.989,0.728,6.878,0.735,9.399
							c0.008,2.85,0.679,4.221,1.287,5.468c1.407,2.888,3.764,4.549,5.283,5.413"/>
						<g id="Path_95789-2_11_">
							<g>
								<path fill="none" stroke="#000000" stroke-width="4" stroke-linecap="round" stroke-linejoin="round" d="M-935.141-351.932
									v-9.488c0-1.31,1.062-2.372,2.372-2.372c0.078,0,0.155,0.004,0.233,0.011c1.237,0.154,2.16,1.216,2.139,2.462l0.499,14.152
									c0,3.531-2.278,8.377-5.161,9.98"/>
							</g>
						</g>
						
							<path id="Path_95788-2_7_" fill="none" stroke="#000000" stroke-width="4" stroke-linecap="round" stroke-linejoin="round" d="
							M-939.885-351.96v-13.13c-0.021-1.247,0.901-2.309,2.139-2.462c1.304-0.128,2.465,0.824,2.593,2.128
							c0.008,0.077,0.011,0.155,0.011,0.232v4.379"/>
						
							<path id="Path_95786-2_7_" fill="none" stroke="#000000" stroke-width="4" stroke-linecap="round" stroke-linejoin="round" d="
							M-949.479-355.56l0.107-8.668c-0.021-1.247,0.901-2.309,2.139-2.462c1.304-0.129,2.465,0.824,2.593,2.128
							c0.008,0.077,0.011,0.155,0.011,0.233v12.424"/>
						
							<path id="Path_95787-2_7_" fill="none" stroke="#000000" stroke-width="4" stroke-linecap="round" stroke-linejoin="round" d="
							M-944.628-362.886v-4.361c-0.021-1.247,0.901-2.309,2.139-2.462c1.304-0.129,2.465,0.824,2.593,2.128
							c0.008,0.077,0.011,0.155,0.011,0.233v3.818"/>
					</g>
				</g>
			</g>
		</g>
		<path d="M58.503,47.073h-0.628c-0.146-0.442-0.326-0.868-0.54-1.274l0.573-0.573c0.567-0.567,0.567-1.486,0-2.053l-1.687-1.687
			c-0.567-0.567-1.486-0.567-2.053,0l-0.642,0.642c-0.325-0.157-0.659-0.296-1.006-0.411v-0.772c0-0.802-0.65-1.452-1.452-1.452
			h-2.386c-0.802,0-1.452,0.65-1.452,1.452v0.772c-0.318,0.105-0.626,0.232-0.926,0.373l-0.604-0.604
			c-0.567-0.567-1.486-0.567-2.053,0l-1.688,1.687c-0.567,0.567-0.567,1.486,0,2.053l0.493,0.493
			c-0.232,0.43-0.423,0.884-0.578,1.354h-1.102c-0.802,0-1.452,0.65-1.452,1.452v2.386c0,0.802,0.65,1.452,1.452,1.452h1.102
			c0.161,0.488,0.362,0.959,0.606,1.403l-0.521,0.521c-0.567,0.567-0.567,1.486,0,2.053l1.688,1.687
			c0.567,0.567,1.486,0.567,2.053,0l0.656-0.656c0.284,0.131,0.575,0.249,0.875,0.348v0.311c0,0.802,0.65,1.452,1.452,1.452h2.386
			c0.802,0,1.452-0.65,1.452-1.452v-0.311c0.328-0.108,0.645-0.24,0.954-0.386l0.694,0.694c0.567,0.567,1.486,0.567,2.053,0
			l1.687-1.687c0.567-0.567,0.567-1.486,0-2.053l-0.598-0.598c0.226-0.421,0.413-0.866,0.565-1.326h0.628
			c0.802,0,1.452-0.65,1.452-1.452v-2.386C59.955,47.723,59.305,47.073,58.503,47.073z M49.638,53.634
			c-2.29,0-4.146-1.856-4.146-4.146c0-2.29,1.856-4.146,4.146-4.146c2.29,0,4.146,1.856,4.146,4.146
			C53.784,51.777,51.927,53.634,49.638,53.634z"/>
	</g>
</g>
</svg>
