<?xml version="1.0" encoding="UTF-8"?>
<svg xmlns="http://www.w3.org/2000/svg" version="1.1" viewBox="0 0 100 100">
  <!-- Generator: Adobe Illustrator 30.3.0, SVG Export Plug-In . SVG Version: 2.1.3 Build 182)  -->
  <g id="Warning_x5F_Hexagon" display="none">
    <path d="M60.457,91.874l14.907-24.93c.009-.016.019-.031.029-.047,1.101-1.785,3.01-2.85,5.107-2.85s4.006,1.065,5.107,2.85c.01.016.019.031.029.047l6.744,11.278c2.881-2.251,4.62-5.713,4.62-9.44V31.217c0-4.38-2.386-8.41-6.225-10.518L55.774,1.488c-3.615-1.984-7.933-1.984-11.549,0L9.225,20.7c-3.84,2.108-6.225,6.138-6.225,10.517v37.566c0,4.38,2.385,8.41,6.225,10.517l35,19.211c1.808.993,3.792,1.489,5.775,1.489s3.967-.496,5.775-1.489l3.966-2.177c-.344-1.504-.107-3.107.716-4.46Z"/>
    <path d="M97.119,93.9l-14.917-24.95c-.781-1.267-2.623-1.267-3.405,0l-14.917,24.95c-.822,1.333.137,3.05,1.702,3.05h29.834c1.565,0,2.524-1.717,1.702-3.05ZM79,78c0-.828.672-1.5,1.5-1.5s1.5.672,1.5,1.5v7c0,.828-.672,1.5-1.5,1.5s-1.5-.672-1.5-1.5v-7ZM80.5,93c-1.105,0-2-.895-2-2s.895-2,2-2,2,.895,2,2-.895,2-2,2Z"/>
  </g>
  <g id="TopLeft_x5F_Gap_x5F_Hexagon" display="none">
    <path d="M5,32.046v36.74c0,3.65,1.988,7.01,5.188,8.766l35,19.214c2.997,1.645,6.627,1.645,9.625,0l35-19.214c3.199-1.756,5.188-5.116,5.188-8.766V31.214c0-3.65-1.988-7.01-5.188-8.766L54.812,3.234c-2.997-1.645-6.627-1.645-9.625,0l-23.178,12.724" fill="none" stroke="#000" stroke-linecap="round" stroke-linejoin="round" stroke-width="4"/>
  </g>
  <g id="TopRight_x5F_Gap_x5F_Hexagon" display="none">
    <path d="M95,32.046v36.74c0,3.65-1.988,7.01-5.188,8.766l-35,19.214c-2.997,1.645-6.627,1.645-9.625,0l-35-19.214c-3.199-1.756-5.188-5.116-5.188-8.766V31.214c0-3.65,1.988-7.01,5.188-8.766L45.188,3.234c2.997-1.645,6.627-1.645,9.625,0l23.178,12.724" fill="none" stroke="#000" stroke-linecap="round" stroke-linejoin="round" stroke-width="4"/>
  </g>
  <g id="BottomRight_x5F_Gap_x5F_Hexagon" display="none">
    <path d="M95,67.954V31.214c0-3.65-1.988-7.01-5.188-8.766L54.812,3.234c-2.997-1.645-6.627-1.645-9.625,0L10.188,22.448c-3.199,1.756-5.188,5.116-5.188,8.766v37.572c0,3.65,1.988,7.01,5.188,8.766l35,19.214c2.997,1.645,6.627,1.645,9.625,0l23.178-12.724" fill="none" stroke="#000" stroke-linecap="round" stroke-linejoin="round" stroke-width="4"/>
  </g>
  <g id="BottomLeft_x5F_Gap_x5F_Hexagon" display="none">
    <path d="M5,67.954V31.214c0-3.65,1.988-7.01,5.188-8.766L45.188,3.234c2.997-1.645,6.627-1.645,9.625,0l35,19.214c3.199,1.756,5.188,5.116,5.188,8.766v37.572c0,3.65-1.988,7.01-5.188,8.766l-35,19.214c-2.997,1.645-6.627,1.645-9.625,0l-23.178-12.724" fill="none" stroke="#000" stroke-linecap="round" stroke-linejoin="round" stroke-width="4"/>
  </g>
  <g id="Cycle_x5F_Hexagon" display="none">
    <path d="M29.983,11.579l-19.224,10.554c-3.546,1.947-5.759,5.732-5.759,9.852v36.031c0,4.119,2.213,7.905,5.759,9.852l34.421,18.897c3.001,1.648,6.639,1.648,9.64,0l6.156-3.388" fill="none" stroke="#000" stroke-linecap="round" stroke-linejoin="round" stroke-width="4"/>
    <polyline points="18.4 7.856 29.983 11.579 26.324 23.386" fill="none" stroke="#000" stroke-linecap="round" stroke-linejoin="round" stroke-width="4"/>
    <g>
      <path d="M69.939,88.464l19.224-10.554c3.546-1.947,5.759-5.732,5.759-9.852v-36.031c0-4.119-2.213-7.905-5.759-9.852L54.741,3.279c-3.001-1.648-6.639-1.648-9.64,0l-6.156,3.388" fill="none" stroke="#000" stroke-linecap="round" stroke-linejoin="round" stroke-width="4"/>
      <polyline points="81.521 92.187 69.939 88.464 73.597 76.657" fill="none" stroke="#000" stroke-linecap="round" stroke-linejoin="round" stroke-width="4"/>
    </g>
    <polyline points="81.521 92.187 69.939 88.464 73.597 76.657" fill="none" stroke="#000" stroke-linecap="round" stroke-linejoin="round" stroke-width="4"/>
  </g>
  <g id="Blocked_x5F_Hexagon" display="none">
    <g id="Default">
      <path d="M95,68.786V31.214c0-3.65-1.988-7.01-5.188-8.766L54.812,3.234c-2.997-1.645-6.627-1.645-9.625,0L10.188,22.448c-3.199,1.756-5.188,5.116-5.188,8.766v37.572c0,3.65,1.988,7.01,5.188,8.766l35,19.214c2.997,1.645,6.627,1.645,9.625,0l35-19.214c3.199-1.756,5.188-5.116,5.188-8.766Z" fill="none" stroke="#000" stroke-linecap="round" stroke-linejoin="round" stroke-width="4"/>
    </g>
    <line x1="18.103" y1="18.103" x2="81.538" y2="81.538" fill="none" stroke="#000" stroke-linecap="round" stroke-linejoin="round" stroke-width="4"/>
  </g>
  <g id="Your_Icon">
    <polygon points="49.965 39.581 36.069 47.604 35.909 62.646 50.218 70.754 64.003 63.285 64.17 47.529 49.965 39.581" fill="#52372e"/>
    <g>
      <g id="Default1" data-name="Default">
        <path d="M64.183,61.109v-11.842c0-1.15-.627-2.209-1.635-2.763l-11.031-6.056c-.945-.519-2.089-.519-3.033,0l-11.031,6.056c-1.008.554-1.635,1.613-1.635,2.763v11.842c0,1.15.627,2.209,1.635,2.763l11.031,6.056c.945.519,2.089.519,3.033,0l11.031-6.056c1.008-.554,1.635-1.613,1.635-2.763Z" fill="none" stroke="#fff" stroke-linecap="round" stroke-linejoin="round" stroke-width="1.261"/>
      </g>
      <g id="Group_170520">
        <path id="Path_95785" d="M35.838,50.845c.204.459.397.794.487.9.336.511.792.827,1.51,1.448.718.62,1.827,1.941,2.163,1.757.478-.264.652-.866.388-1.344-.054-.098-.124-.186-.207-.26,0,0-.529-.512-1.142-1.188.414-1.154-.376-2.677-.376-2.677" fill="none" stroke="#fff" stroke-linecap="round" stroke-linejoin="round" stroke-width="1.261"/>
        <path id="Path_95789" d="M40.144,45.134c.406-.05,1.153.401,1.488.595l4.162,2.374c.417.232.592.74.407,1.179-.207.456-.744.659-1.201.452-.027-.012-.428-.213-.454-.228l-1.943-1.122" fill="none" stroke="#fff" stroke-linecap="round" stroke-linejoin="round" stroke-width="1.261"/>
        <path id="Path_95788" d="M41.746,49.985l3.484,1.982c.409.245.937.143,1.225-.238.292-.407.198-.974-.209-1.266-.024-.017-.424-.221-.449-.235l-1.906-1.1" fill="none" stroke="#fff" stroke-linecap="round" stroke-linejoin="round" stroke-width="1.261"/>
        <path id="Path_95786" d="M39.963,53.064l3.167,1.881c.409.245.937.143,1.225-.238.292-.407.198-.974-.209-1.266-.024-.017-.049-.033-.075-.048l-2.28-1.288" fill="none" stroke="#fff" stroke-linecap="round" stroke-linejoin="round" stroke-width="1.261"/>
        <path id="Path_95787" d="M40.839,51.556l4.198,2.395c.409.245.937.143,1.225-.238.292-.407.198-.974-.209-1.266-.024-.017-.049-.033-.075-.048l-1.906-1.1" fill="none" stroke="#fff" stroke-linecap="round" stroke-linejoin="round" stroke-width="1.261"/>
      </g>
      <g id="Group_1705201" data-name="Group_170520">
        <path id="Path_957851" data-name="Path_95785" d="M61.347,45.913c-.524-.059-.933-.059-1.075-.034-.61.036-1.113.272-2.009.584-.896.312-2.594.612-2.604.995-.01.546.424.998.97,1.008.112.002.223-.015.329-.05,0,0,.708-.202,1.6-.396.792.935,2.507,1.013,2.507,1.013" fill="none" stroke="#fff" stroke-linecap="round" stroke-linejoin="round" stroke-width="1.261"/>
        <path id="Path_957891" data-name="Path_95789" d="M64.087,52.493c-.16.376-.924.798-1.259.991l-4.137,2.418c-.409.245-.937.143-1.225-.238-.292-.407-.198-.974.209-1.266.024-.017.399-.264.424-.279l1.943-1.122" fill="none" stroke="#fff" stroke-linecap="round" stroke-linejoin="round" stroke-width="1.261"/>
        <path id="Path_957881" data-name="Path_95788" d="M59.085,51.455l-3.459,2.026c-.417.232-.592.74-.407,1.179.207.456.745.659,1.201.452.027-.012.403-.257.429-.271l1.906-1.1" fill="none" stroke="#fff" stroke-linecap="round" stroke-linejoin="round" stroke-width="1.261"/>
        <path id="Path_957861" data-name="Path_95786" d="M57.31,48.371l-3.212,1.803c-.417.232-.592.74-.407,1.179.207.456.744.659,1.201.452.027-.012.053-.026.079-.041l2.255-1.331" fill="none" stroke="#fff" stroke-linecap="round" stroke-linejoin="round" stroke-width="1.261"/>
        <path id="Path_957871" data-name="Path_95787" d="M58.178,49.884l-4.173,2.438c-.417.232-.592.74-.407,1.179.207.456.744.659,1.201.452.027-.012.053-.026.079-.041l1.906-1.1" fill="none" stroke="#fff" stroke-linecap="round" stroke-linejoin="round" stroke-width="1.261"/>
      </g>
      <g id="Group_1705202" data-name="Group_170520">
        <path id="Path_957852" data-name="Path_95785" d="M53.333,68.771c.274-.547.321-1.1.499-2.031.178-.932.767-2.552.44-2.752-.468-.282-1.076-.132-1.358.336-.058.096-.099.2-.122.31,0,0-.179.715-.457,1.583-1.206.218-2.131,1.665-2.131,1.665" fill="none" stroke="#fff" stroke-linecap="round" stroke-linejoin="round" stroke-width="1.261"/>
        <path id="Path_957892" data-name="Path_95789" d="M45.641,68.376c-.246-.327-.172-.807-.172-1.194l-.025-4.792c-.008-.477.345-.883.818-.942.499-.049.943.315.992.814.003.03.029.477.029.507v2.244" fill="none" stroke="#fff" stroke-linecap="round" stroke-linejoin="round" stroke-width="1.261"/>
        <path id="Path_957882" data-name="Path_95788" d="M49.097,64.956l-.025-4.008c.008-.477-.345-.883-.818-.942-.499-.049-.943.315-.992.814-.003.029.021.477.021.507v2.201" fill="none" stroke="#fff" stroke-linecap="round" stroke-linejoin="round" stroke-width="1.261"/>
        <path id="Path_957862" data-name="Path_95786" d="M52.656,64.961l.045-3.683c.008-.477-.345-.883-.818-.942-.499-.049-.943.315-.992.814-.003.03-.004.059-.004.089l.025,2.619" fill="none" stroke="#fff" stroke-linecap="round" stroke-linejoin="round" stroke-width="1.261"/>
        <path id="Path_957872" data-name="Path_95787" d="M50.912,64.956l-.025-4.833c.008-.477-.345-.883-.818-.942-.499-.049-.943.315-.992.814-.003.03-.004.059-.004.089v2.201" fill="none" stroke="#fff" stroke-linecap="round" stroke-linejoin="round" stroke-width="1.261"/>
      </g>
      <line x1="42.731" y1="61.298" x2="44.419" y2="60.513" fill="none" stroke="#fff" stroke-linecap="round" stroke-linejoin="round" stroke-width="1.261"/>
      <path d="M51.372,51.149c.198.516-.123.903-.58.699-.393-.176-.858-.456-1.257-.895-.89-.98-1.11-2.379-1.11-2.379,0,0,1.224.19,2.114,1.17.399.439.663.962.833,1.405Z" fill="none" stroke="#fff" stroke-linecap="round" stroke-linejoin="round" stroke-width="1.261"/>
      <path d="M44.991,56.673c.127-.435.671-.662.982-.41.267.217.54.528.651.946.249.934-.398,2.045-.398,2.045,0,0-1.051-.402-1.301-1.336-.112-.418-.043-.872.066-1.246Z" fill="none" stroke="#fff" stroke-linecap="round" stroke-linejoin="round" stroke-width="1.261"/>
      <line x1="48.879" y1="46.581" x2="47.687" y2="45.848" fill="none" stroke="#fff" stroke-linecap="round" stroke-linejoin="round" stroke-width="1.261"/>
      <line x1="58.687" y1="61.123" x2="57.173" y2="60.6" fill="none" stroke="#fff" stroke-linecap="round" stroke-linejoin="round" stroke-width="1.261"/>
      <line x1="41.921" y1="59.999" x2="41.921" y2="58.834" fill="none" stroke="#fff" stroke-linecap="round" stroke-linejoin="round" stroke-width="1.261"/>
      <line x1="51.65" y1="46.305" x2="50.703" y2="47.251" fill="none" stroke="#fff" stroke-linecap="round" stroke-linejoin="round" stroke-width="1.261"/>
      <line x1="58.079" y1="58.807" x2="59.385" y2="58.509" fill="none" stroke="#fff" stroke-linecap="round" stroke-linejoin="round" stroke-width="1.261"/>
      <line x1="54.401" y1="60.767" x2="55.69" y2="61.719" fill="none" stroke="#fff" stroke-linecap="round" stroke-linejoin="round" stroke-width="1.261"/>
      <line x1="52.63" y1="48.164" x2="52.63" y2="49.422" fill="none" stroke="#fff" stroke-linecap="round" stroke-linejoin="round" stroke-width="1.261"/>
      <line x1="56.062" y1="57.945" x2="56.062" y2="59.203" fill="none" stroke="#fff" stroke-linecap="round" stroke-linejoin="round" stroke-width="1.261"/>
      <line x1="41.728" y1="57.009" x2="43.011" y2="57.391" fill="none" stroke="#fff" stroke-linecap="round" stroke-linejoin="round" stroke-width="1.261"/>
      <g>
        <path d="M49.2,55.073c.83-1.449-.553-1.988-.553-1.988h0s-1.153,1.219,1.509,2.441h0c-.345-.137-1.5-.629-2.042.451" stroke="#fff" stroke-linecap="round" stroke-linejoin="round" stroke-width="1.262"/>
        <path d="M52.625,55.965c-.977-.448-1.391-1.337-1.24-2.049.001-.006.004-.012.005-.018-.218.08-.407.198-.551.35-.365.384-.408.901-.395,1.208.007.157-.07.303-.203.386-.261.163-.663.491-.773,1.009-.039.183-.04.378-.004.574.797-.483,2.237-.315,3.133.986.167.24.349.485.457.779.069-.024.138-.05.205-.079.622-.265.746-.985.616-1.4.405-.09.848-.706.908-1.146.012-.09.017-.176.015-.258-.537.144-1.179.114-2.174-.343Z" fill="none" stroke="#fff" stroke-linecap="round" stroke-linejoin="round" stroke-width="1.261"/>
      </g>
    </g>
  </g>
  <g id="Modifier_x5F_Star_copy_2" display="none">
    <path d="M83,66c-9.373,0-17,7.627-17,17s7.627,17,17,17,17-7.627,17-17-7.627-17-17-17Z"/>
    <polygon points="83 87.63 77.53 90.377 78.575 84.557 74.149 80.436 80.265 79.587 83 74.292 85.736 79.587 91.852 80.436 87.426 84.557 88.471 90.377 83 87.63" fill="#fff" stroke="#fff" stroke-linecap="round" stroke-linejoin="round" stroke-width="2"/>
  </g>
  <g id="Modifier_x5F_Check" display="none">
    <path d="M83,66c-9.373,0-17,7.627-17,17s7.627,17,17,17,17-7.627,17-17-7.627-17-17-17Z"/>
    <polyline points="76 84 82 89 90 77" fill="none" stroke="#fff" stroke-linecap="round" stroke-linejoin="round" stroke-width="4"/>
  </g>
  <g id="Modifier_x5F_Down" display="none">
    <path d="M83,66c-9.373,0-17,7.627-17,17s7.627,17,17,17,17-7.627,17-17-7.627-17-17-17Z"/>
    <line x1="82.986" y1="90.994" x2="82.986" y2="74.994" fill="none" stroke="#fff" stroke-linecap="round" stroke-linejoin="round" stroke-width="4"/>
    <line x1="82.986" y1="90.994" x2="90.986" y2="82.994" fill="none" stroke="#fff" stroke-linecap="round" stroke-linejoin="round" stroke-width="4"/>
    <line x1="83.034" y1="90.994" x2="75.034" y2="82.994" fill="none" stroke="#fff" stroke-linecap="round" stroke-linejoin="round" stroke-width="4"/>
  </g>
  <g id="Modifier_x5F_Up" display="none">
    <path d="M83,66c-9.373,0-17,7.627-17,17s7.627,17,17,17,17-7.627,17-17-7.627-17-17-17Z"/>
    <line x1="83.003" y1="75.016" x2="83.003" y2="91.016" fill="none" stroke="#fff" stroke-linecap="round" stroke-linejoin="round" stroke-width="4"/>
    <line x1="83.003" y1="75.016" x2="75.003" y2="83.016" fill="none" stroke="#fff" stroke-linecap="round" stroke-linejoin="round" stroke-width="4"/>
    <line x1="82.955" y1="75.016" x2="90.955" y2="83.016" fill="none" stroke="#fff" stroke-linecap="round" stroke-linejoin="round" stroke-width="4"/>
  </g>
  <g id="Modifier_x5F_Add_copy" display="none">
    <path d="M83,66c-9.373,0-17,7.627-17,17s7.627,17,17,17,17-7.627,17-17-7.627-17-17-17Z"/>
    <g>
      <line x1="83" y1="75" x2="83" y2="91" fill="none" stroke="#fff" stroke-linecap="round" stroke-linejoin="round" stroke-width="4"/>
      <line x1="91" y1="83" x2="75" y2="83" fill="none" stroke="#fff" stroke-linecap="round" stroke-linejoin="round" stroke-width="4"/>
    </g>
  </g>
  <g id="Modifier_x5F_Remove" display="none">
    <path d="M83,66c-9.373,0-17,7.627-17,17s7.627,17,17,17,17-7.627,17-17-7.627-17-17-17Z"/>
    <line x1="91" y1="83" x2="75" y2="83" fill="none" stroke="#fff" stroke-linecap="round" stroke-linejoin="round" stroke-width="4"/>
  </g>
  <g id="Modifier_x5F_Equal" display="none">
    <path d="M83,66c-9.373,0-17,7.627-17,17s7.627,17,17,17,17-7.627,17-17-7.627-17-17-17Z"/>
    <line x1="91" y1="79.022" x2="75" y2="79.022" fill="none" stroke="#fff" stroke-linecap="round" stroke-linejoin="round" stroke-width="4"/>
    <line x1="91" y1="86.983" x2="75" y2="86.983" fill="none" stroke="#fff" stroke-linecap="round" stroke-linejoin="round" stroke-width="4"/>
  </g>
  <g id="Modifier_x5F_Exclude" display="none">
    <path d="M83,66c-9.373,0-17,7.627-17,17s7.627,17,17,17,17-7.627,17-17-7.627-17-17-17Z"/>
    <line x1="89" y1="77" x2="77" y2="89" fill="none" stroke="#fff" stroke-linecap="round" stroke-linejoin="round" stroke-width="4"/>
    <line x1="89" y1="89" x2="77" y2="77" fill="none" stroke="#fff" stroke-linecap="round" stroke-linejoin="round" stroke-width="4"/>
  </g>
  <g id="Modifier_x5F_Time" display="none">
    <path d="M83,66c-9.373,0-17,7.627-17,17s7.627,17,17,17,17-7.627,17-17-7.627-17-17-17Z"/>
    <polyline points="83 75 83 85 90 88" fill="none" stroke="#fff" stroke-linecap="round" stroke-linejoin="round" stroke-width="4"/>
  </g>
</svg>