<?xml version="1.0" encoding="utf-8"?>
<!-- Generator: Adobe Illustrator 25.4.1, SVG Export Plug-In . SVG Version: 6.00 Build 0)  -->
<svg version="1.1" id="Your_Icon" xmlns="http://www.w3.org/2000/svg" xmlns:xlink="http://www.w3.org/1999/xlink" x="0px" y="0px"
	 viewBox="0 0 100 100" enable-background="new 0 0 100 100" xml:space="preserve">
<g>
	<path fill="#231F20" d="M90.7,20.7l-35-19.2c-3.6-2-7.9-2-11.5,0L21.1,14.2c-1,0.5-1.3,1.7-0.8,2.7s1.7,1.3,2.7,0.8L46.1,5
		c2.4-1.3,5.3-1.3,7.7,0l35,19.2c2.6,1.4,4.2,4.1,4.2,7v37.5c0,2.9-1.6,5.6-4.2,7l-35,19.2c-2.4,1.3-5.3,1.3-7.7,0L21.02,81.142
		c2.45-4.437,7.971-12.724,13.18-13.442c2.3-0.3,7,0.8,11.6,1.8c6.673,1.552,13.034,3.031,17.189,1.987
		c0.246-0.021,0.491-0.083,0.737-0.214c0.885-0.311,1.655-0.753,2.274-1.373c1.6-1.5,5.6-6.4,5.6-10.4
		c0-6.851-13.367-19.087-20.469-25.104c2.444-3.013,3.75-7.622,3.168-11.496c-0.3-1.7-1.3-3.1-2.9-3.8c-1.6-0.7-3.4-0.5-4.8,0.4
		c-2.54,1.723-7.468,4.427-13.062,5.14c-3.21-0.15-6.926,0.6-11.637,2.56c-0.4,0.2-0.9,0-1.2-0.4c-2.6-3.7-9.3-8.9-18-4.8
		c-1.1,0.6-2,1.6-2.5,2.8c-0.4,1.2-0.4,2.6,0.2,3.8c0.53,1.143,1.432,2.635,2.6,4.158V68.8c0,4.4,2.4,8.4,6.2,10.5l35,19.2
		c1.8,1,3.8,1.5,5.8,1.5s4-0.5,5.7-1.5l35-19.2c3.8-2.1,6.2-6.1,6.2-10.5V31.2C96.9,26.8,94.5,22.8,90.7,20.7z M63.574,66.815
		c-0.607-1.131-1.014-2.361-0.674-3.315c0.45-1.08,1.962-2.076,4.589-2.848C66.878,62.606,65.036,65.261,63.574,66.815z M48.9,22.9
		c0.4-0.3,0.8-0.2,1-0.1c0.2,0.1,0.5,0.3,0.6,0.7c0.383,3.259-0.889,6.594-2.316,8.451c-0.258-0.209-0.494-0.4-0.684-0.551
		c-2.249-1.805-4.315-3.355-6.432-4.522C44.16,25.722,46.828,24.228,48.9,22.9z M7,68.7V36.918c0.794,0.64,1.629,1.216,2.5,1.682
		c5.9,3.1,8.2,3.7,12.6,1.9c1-0.4,1.5-1.6,1.1-2.6s-1.6-1.5-2.6-1.1c-2.8,1.2-3.8,1.1-9.2-1.7c-1.623-0.838-3.211-2.281-4.55-3.851
		c-0.153-0.375-0.416-0.693-0.749-0.915C5.217,29.184,4.488,28.015,4,27c-0.1-0.4-0.1-0.7,0-0.8s0.2-0.4,0.5-0.5
		c7.8-3.7,12.5,2.7,13,3.4c1.3,2,3.8,2.7,6,1.8c3.184-1.297,5.767-1.972,8.014-2.16c0.157,0.036,0.318,0.06,0.486,0.06
		c0.486-0.021,0.967-0.058,1.443-0.105c4.323,0.211,7.458,2.471,11.657,5.805c11.764,9.443,19.159,17.66,21.649,22.26
		c-2.902,0.749-6.441,2.187-7.65,5.44c-0.626,1.669-0.459,3.584,0.462,5.669c-3.603-0.107-8.858-1.294-12.762-2.169
		c-5.4-1.2-10-2.3-13-1.9c-7.48,1.02-13.874,11.429-16.116,15.512L11.1,75.7C8.6,74.3,7,71.6,7,68.7z"/>
	<path fill="#231F20" d="M26.1,60c0.1,0,0.2,0,0.3,0l9.8-2.4c0.3-0.1,0.5-0.2,0.6-0.5c0.2-0.3,0.2-0.6,0.2-0.8l-2.1-6.7
		c-0.1-0.2-0.2-0.4-0.4-0.6L28,45.1C27.7,45,27.4,45,27.1,45c-0.3,0.1-0.5,0.3-0.7,0.5l-3.3,6.3C23,52.1,23,52.4,23,52.6l2.1,6.7
		C25.2,59.7,25.7,60,26.1,60z"/>
	<path fill="#231F20" d="M42.1,45c1.2,0,1.9-0.8,1.9-2s-0.8-2-2-2s-1.9,0.8-2,2.1C40.2,44.3,40.8,45,42.1,45z"/>
</g>
</svg>
