<?xml version="1.0" encoding="utf-8"?>
<svg version="1.1" xmlns="http://www.w3.org/2000/svg" xmlns:xlink="http://www.w3.org/1999/xlink" x="0px" y="0px"
     viewBox="0 0 100 100" style="enable-background:new 0 0 100 100;" xml:space="preserve">
  <g id="BottomLeft_x5F_Gap_x5F_Hexagon">
    <path d="M50,100c-2,0-4-0.5-5.8-1.5L9.2,79.3C5.4,77.2,3,73.2,3,68.8V31.2c0-4.4,2.4-8.4,6.2-10.5l35-19.2c3.6-2,7.9-2,11.5,0
      l35,19.2c3.8,2.1,6.2,6.1,6.2,10.5v37.6c0,4.4-2.4,8.4-6.2,10.5l-35,19.2C54,99.5,52,100,50,100z M50,4c-1.3,0-2.6,0.3-3.9,1
      l-35,19.2c-2.6,1.4-4.1,4.1-4.1,7v37.6c0,2.9,1.6,5.6,4.1,7l35,19.2c2.4,1.3,5.3,1.3,7.7,0l35-19.2c2.6-1.4,4.2-4.1,4.2-7V31.2
      c0-2.9-1.6-5.6-4.2-7L53.8,5C52.6,4.3,51.3,4,50,4z"/>
  </g>

  <g id="Your_Icon" fill="none" stroke="#000000" stroke-width="4" stroke-linecap="round" stroke-linejoin="round">
    <path d="M28 67
             C33 62, 39 60, 44 60
             H56
             C61 60, 67 62, 72 67" />
    <path d="M36 72
             C41 68, 46 67, 50 67
             C54 67, 59 68, 64 72" />
    <path d="M39 56
             C35 49, 35 42, 40 36" />
    <path d="M50 55
             C46 48, 46 40, 51 33" />
    <path d="M61 56
             C57 49, 57 42, 62 36" />
  </g>
</svg>
