<?xml version="1.0" encoding="utf-8"?>
<!-- Generator: Adobe Illustrator 25.4.1, SVG Export Plug-In . SVG Version: 6.00 Build 0)  -->
<svg version="1.1" id="Layer_1" xmlns="http://www.w3.org/2000/svg" xmlns:xlink="http://www.w3.org/1999/xlink" x="0px" y="0px"
	 viewBox="0 0 100 100" enable-background="new 0 0 100 100" xml:space="preserve">
<g>
	<path fill="#231F20" d="M90.7,20.7l-35-19.2c-3.6-2-7.9-2-11.5,0l-35,19.2C5.4,22.8,3,26.8,3,31.2v37.6c0,4.4,2.4,8.4,6.2,10.5
		l35,19.2c1.8,1,3.8,1.5,5.8,1.5s4-0.5,5.7-1.5l35-19.2c3.8-2.1,6.2-6.1,6.2-10.5V31.2C96.9,26.8,94.5,22.8,90.7,20.7z
		 M37.507,71.833l-2.841,16.894l-3.881-2.129C29.372,79.053,32.924,73.684,37.507,71.833z M34.4,68.5c-5.4-3.6-8.4-7.6-9-12.1
		c-0.67-5.781,2.932-10.846,4.18-12.4h2.72h0.4h3.056c-0.49,1.003-0.843,2.06-1.156,3c-0.517,1.493-0.972,2.676-1.565,3.48
		C33.025,50.253,33,50.029,33,49.8c0-1.1-0.9-2-2-2s-2,0.9-2,2c0,7.377,3.907,13.856,9.744,17.524
		c-0.303,0.038-0.616,0.093-0.944,0.176c-1.143,0.289-2.194,0.695-3.156,1.199C34.567,68.629,34.489,68.559,34.4,68.5z M40.9,26.4
		c4.2-1.2,8.2,0.9,8.2,0.9c0.6,0.3,1.3,0.3,1.9,0c0-0.1,4-2.2,8.2-0.9c3.859,1.224,7.361,6.258,6.759,13.6H34.205
		C33.625,32.615,37.087,27.516,40.9,26.4z M73.9,56.4c-0.5,4.5-3.6,8.6-9,12.1c-0.003,0.002-0.005,0.005-0.008,0.006
		c-0.873-0.429-1.775-0.77-2.692-1.006c-0.499-0.127-0.963-0.19-1.406-0.216C66.623,63.609,70.5,57.15,70.5,49.8c0-1.1-0.9-2-2-2
		s-2,0.9-2,2c0,0.511-0.032,1.015-0.077,1.514c-0.715-0.55-1.218-1.735-1.923-3.914c-0.378-1.096-0.785-2.293-1.356-3.4h6.583
		C70.996,45.554,74.654,50.619,73.9,56.4z M69.247,86.526l-3.666,2.011L62.63,71.892C67.142,73.792,70.731,79.143,69.247,86.526z
		 M41.8,44h15.7c1.7,0.3,2.3,2,3.2,4.6c0.902,2.46,1.942,5.589,4.878,6.637C63.302,61.853,57.014,66.6,49.7,66.6
		c-7.374,0-13.646-4.888-15.849-11.563c2.692-1.362,3.696-4.264,4.549-6.737C39.5,44.9,40.1,43.9,41.8,44z M49.7,70.5
		c2.151,0,4.225-0.326,6.175-0.93c-0.802,0.946-1.429,2.047-1.975,3.03c-1.5,2.5-2.3,3.7-3.8,3.7c-1.6,0-2.5-1.4-3.9-3.7
		c-0.555-0.902-1.174-1.935-1.938-2.851C45.998,70.224,47.816,70.5,49.7,70.5z M53.8,95c-2.4,1.3-5.3,1.3-7.7,0l-7.859-4.311
		l3.147-18.135c0.404,0.524,0.852,1.213,1.412,2.146c1.5,2.6,3.4,5.7,7.3,5.7c3.9,0,5.8-3.3,7.2-5.7
		c0.554-0.977,0.996-1.688,1.4-2.219l3.142,18.107L53.8,95z M93,68.8c0,2.9-1.6,5.6-4.2,7l-15.254,8.368
		c0.291-5.679-1.883-10.258-5.126-13.238c5.603-4.006,8.733-8.761,9.38-14.03c0.666-5.325-1.413-9.979-3.227-12.9H79
		c1.1,0,2-0.9,2-2s-0.9-2-2-2h-8.974c0.699-9.318-4.113-15.718-9.626-17.4c-4.5-1.4-8.6-0.1-10.4,0.7c-1.9-0.7-5.9-2-10.4-0.7
		c-5.462,1.574-10.227,8.039-9.557,17.4H19c-1.1,0-2,0.9-2,2s0.9,2,2,2h5.77c-1.82,2.921-3.936,7.575-3.27,12.9
		c0.662,5.393,3.925,10.248,9.779,14.312c-3.344,3.382-4.859,8.324-4.714,13.071L11.1,75.8c-2.5-1.4-4.1-4.1-4.1-7V31.2
		c0-2.9,1.5-5.6,4.1-7L46.1,5c1.3-0.7,2.6-1,3.9-1s2.6,0.3,3.8,1l35,19.2c2.6,1.4,4.2,4.1,4.2,7V68.8z"/>
	<circle fill="#231F20" cx="43" cy="49" r="2"/>
	<circle fill="#231F20" cx="57" cy="49" r="2"/>
	<path fill="#231F20" d="M43.5,59.2c0,0.4,0.5,3.8,6.5,3.8s6.5-3.4,6.5-3.8c0.1-1.1-0.7-2.1-1.8-2.2c-1-0.1-1.9,0.6-2.1,1.5
		C52.4,58.6,51.8,59,50,59s-2.5-0.4-2.6-0.5c-0.2-1-1.1-1.6-2.1-1.5C44.2,57.1,43.4,58.1,43.5,59.2z"/>
</g>
</svg>
