<?xml version="1.0" encoding="utf-8"?>
<!-- Generator: Adobe Illustrator 25.4.1, SVG Export Plug-In . SVG Version: 6.00 Build 0)  -->
<svg version="1.1" id="Your_Icon" xmlns="http://www.w3.org/2000/svg" xmlns:xlink="http://www.w3.org/1999/xlink" x="0px" y="0px"
	 viewBox="0 0 100 100" enable-background="new 0 0 100 100" xml:space="preserve">
<g>
	<path fill="#231F20" d="M90.7,20.7l-35-19.2c-3.6-2-7.9-2-11.5,0l-35,19.2C5.4,22.8,3,26.8,3,31.2v37.6c0,4.4,2.4,8.4,6.2,10.5
		l35,19.2c1.8,1,3.8,1.5,5.8,1.5s4-0.5,5.7-1.5l35-19.2c3.8-2.1,6.2-6.1,6.2-10.5V31.2C96.9,26.8,94.5,22.8,90.7,20.7z
		 M37.507,71.833l-2.841,16.894l-3.881-2.129C29.372,79.053,32.924,73.684,37.507,71.833z M40.9,27.4c4.2-1.2,8.2,0.9,8.2,0.9
		c0.6,0.3,1.3,0.3,1.9,0c0-0.1,4-2.2,8.2-0.9c3.859,1.224,7.361,6.258,6.759,13.6H34.205C33.625,33.615,37.087,28.516,40.9,27.4z
		 M34.088,45h31.887c0.514,1.673,0.825,3.405,0.825,5.2C66.8,59.5,59.2,67,50,67s-16.8-7.5-16.7-16.8
		C33.3,48.405,33.553,46.673,34.088,45z M69.247,86.526l-3.666,2.011L62.63,71.892C67.142,73.792,70.731,79.143,69.247,86.526z
		 M55.325,70.279c-0.548,0.763-1.011,1.575-1.425,2.321c-1.5,2.5-2.3,3.7-3.8,3.7c-1.6,0-2.5-1.4-3.9-3.7
		c-0.45-0.732-0.943-1.549-1.52-2.321C46.382,70.734,48.159,71,50,71C51.841,71,53.62,70.734,55.325,70.279z M53.8,95
		c-2.4,1.3-5.3,1.3-7.7,0l-7.859-4.311l3.147-18.135c0.404,0.524,0.852,1.213,1.412,2.146c1.5,2.6,3.4,5.7,7.3,5.7
		c3.9,0,5.8-3.3,7.2-5.7c0.554-0.977,0.996-1.688,1.4-2.219l3.142,18.107L53.8,95z M93,68.8c0,2.9-1.6,5.6-4.2,7l-15.254,8.368
		C74,75.294,68.424,69.101,62.2,67.5c-0.184-0.047-0.356-0.074-0.532-0.106C67.161,63.651,70.8,57.353,70.8,50.2
		c0-1.805-0.258-3.526-0.698-5.2H79c1.1,0,2-0.9,2-2s-0.9-2-2-2h-8.974c0.699-9.318-4.113-15.718-9.626-17.4
		c-4.5-1.4-8.6-0.1-10.4,0.7c-1.9-0.7-5.9-2-10.4-0.7c-5.462,1.574-10.227,8.039-9.557,17.4H19c-1.1,0-2,0.9-2,2s0.9,2,2,2h11.005
		c-0.445,1.703-0.705,3.448-0.705,5.2c0,7.15,3.598,13.446,9.058,17.189c-0.184,0.033-0.366,0.062-0.558,0.111
		c-7.93,2.004-11.453,9.628-11.235,16.784L11.1,75.8c-2.5-1.4-4.1-4.1-4.1-7V31.2c0-2.9,1.5-5.6,4.1-7L46.1,5c1.3-0.7,2.6-1,3.9-1
		s2.6,0.3,3.8,1l35,19.2c2.6,1.4,4.2,4.1,4.2,7V68.8z"/>
	<circle fill="#231F20" cx="43" cy="49" r="2"/>
	<circle fill="#231F20" cx="57" cy="49" r="2"/>
	<path fill="#231F20" d="M44,60c0,1.1,0.9,2,2,2h8c1.1,0,2-0.9,2-2s-0.9-2-2-2h-8C44.9,58,44,58.9,44,60z"/>
</g>
</svg>
