<?xml version="1.0" encoding="utf-8"?>
<!-- Generator: Adobe Illustrator 26.2.1, SVG Export Plug-In . SVG Version: 6.00 Build 0)  -->
<svg version="1.1" xmlns="http://www.w3.org/2000/svg" xmlns:xlink="http://www.w3.org/1999/xlink" x="0px" y="0px"
	 viewBox="0 0 100 100" style="enable-background:new 0 0 100 100;" xml:space="preserve">
<style type="text/css">
	.st0{display:none;}
	.st1{display:inline;}
	.st2{display:inline;fill:none;stroke:#000000;stroke-width:4;stroke-linecap:round;stroke-linejoin:round;}
	.st3{fill:none;stroke:#000000;stroke-width:4;stroke-linecap:round;stroke-linejoin:round;}
	.st4{display:inline;fill:none;stroke:#FFFFFF;stroke-width:4;stroke-linecap:round;stroke-linejoin:round;}
	.st5{fill:none;stroke:#FFFFFF;stroke-width:4;stroke-linecap:round;stroke-linejoin:round;}
</style>
<g id="Warning_x5F_Hexagon" class="st0">
	<path class="st1" d="M60.5,91.9l14.9-24.9c0,0,0,0,0,0c1.1-1.8,3-2.9,5.1-2.9s4,1.1,5.1,2.9c0,0,0,0,0,0l6.7,11.3
		c2.9-2.3,4.6-5.7,4.6-9.4V31.2c0-4.4-2.4-8.4-6.2-10.5l-35-19.2c-3.6-2-7.9-2-11.5,0l-35,19.2C5.4,22.8,3,26.8,3,31.2v37.6
		c0,4.4,2.4,8.4,6.2,10.5l35,19.2c1.8,1,3.8,1.5,5.8,1.5s4-0.5,5.8-1.5l4-2.2C59.4,94.8,59.6,93.2,60.5,91.9z"/>
	<path class="st1" d="M97.1,93.9L82.2,69c-0.8-1.3-2.6-1.3-3.4,0l-14.9,25c-0.8,1.3,0.1,3,1.7,3h29.8C97,97,97.9,95.2,97.1,93.9z
		 M79,78c0-0.8,0.7-1.5,1.5-1.5S82,77.2,82,78v7c0,0.8-0.7,1.5-1.5,1.5S79,85.8,79,85V78z M80.5,93c-1.1,0-2-0.9-2-2
		c0-1.1,0.9-2,2-2s2,0.9,2,2C82.5,92.1,81.6,93,80.5,93z"/>
</g>
<g id="TopLeft_x5F_Gap_x5F_Hexagon" class="st0">
	<path class="st2" d="M5,32v36.7c0,3.6,2,7,5.2,8.8l35,19.2c3,1.6,6.6,1.6,9.6,0l35-19.2c3.2-1.8,5.2-5.1,5.2-8.8V31.2
		c0-3.6-2-7-5.2-8.8l-35-19.2c-3-1.6-6.6-1.6-9.6,0L22,16"/>
</g>
<g id="TopRight_x5F_Gap_x5F_Hexagon" class="st0">
	<path class="st2" d="M95,32v36.7c0,3.6-2,7-5.2,8.8l-35,19.2c-3,1.6-6.6,1.6-9.6,0l-35-19.2C7,75.8,5,72.4,5,68.8V31.2
		c0-3.6,2-7,5.2-8.8l35-19.2c3-1.6,6.6-1.6,9.6,0L78,16"/>
</g>
<g id="BottomRight_x5F_Gap_x5F_Hexagon" class="st0">
	<path class="st2" d="M95,68V31.2c0-3.6-2-7-5.2-8.8l-35-19.2c-3-1.6-6.6-1.6-9.6,0l-35,19.2C7,24.2,5,27.6,5,31.2v37.6
		c0,3.6,2,7,5.2,8.8l35,19.2c3,1.6,6.6,1.6,9.6,0L78,84"/>
</g>
<g id="BottomLeft_x5F_Gap_x5F_Hexagon" class="st0">
	<path class="st2" d="M5,68V31.2c0-3.6,2-7,5.2-8.8l35-19.2c3-1.6,6.6-1.6,9.6,0l35,19.2c3.2,1.8,5.2,5.1,5.2,8.8v37.6
		c0,3.6-2,7-5.2,8.8l-35,19.2c-3,1.6-6.6,1.6-9.6,0L22,84"/>
</g>
<g id="Cycle_x5F_Hexagon" class="st0">
	<path class="st2" d="M30,11.6L10.8,22.1C7.2,24.1,5,27.9,5,32v36c0,4.1,2.2,7.9,5.8,9.9l34.4,18.9c3,1.6,6.6,1.6,9.6,0l6.2-3.4"/>
	<polyline class="st2" points="18.4,7.9 30,11.6 26.3,23.4 	"/>
	<g class="st1">
		<path class="st3" d="M69.9,88.5l19.2-10.6c3.5-1.9,5.8-5.7,5.8-9.9V32c0-4.1-2.2-7.9-5.8-9.9L54.7,3.3c-3-1.6-6.6-1.6-9.6,0
			l-6.2,3.4"/>
		<polyline class="st3" points="81.5,92.2 69.9,88.5 73.6,76.7 		"/>
	</g>
	<polyline class="st2" points="81.5,92.2 69.9,88.5 73.6,76.7 	"/>
</g>
<g id="Default_x5F_Hexagon">
	<g id="Default">
		<path d="M50,100c-2,0-4-0.5-5.8-1.5l-35-19.2C5.4,77.2,3,73.2,3,68.8V31.2c0-4.4,2.4-8.4,6.2-10.5l35-19.2c3.6-2,7.9-2,11.5,0
			l35,19.2c3.8,2.1,6.2,6.1,6.2,10.5v37.6c0,4.4-2.4,8.4-6.2,10.5l-35,19.2C54,99.5,52,100,50,100z M50,4c-1.3,0-2.6,0.3-3.9,1
			l-35,19.2c-2.6,1.4-4.1,4.1-4.1,7v37.6c0,2.9,1.6,5.6,4.1,7l35,19.2c2.4,1.3,5.3,1.3,7.7,0l35-19.2c2.6-1.4,4.2-4.1,4.2-7V31.2
			c0-2.9-1.6-5.6-4.2-7L53.8,5C52.6,4.3,51.3,4,50,4z"/>
	</g>
</g>
<g id="_x2D_---SELECT_x5F_HEXAGON_x5F_STYLE----">
</g>
<g id="_x2D_-----------GRID------------" class="st0">
</g>
<g id="Your_Icon">
	<g>
		<path d="M50,71c-11.4,0-20.7-9.3-20.7-20.8c0-2.8,0.6-5.6,1.7-8.2c0.4-1,1.6-1.5,2.6-1c1,0.4,1.5,1.6,1,2.6
			c-0.9,2.1-1.3,4.3-1.3,6.6C33.2,59.5,40.8,67,50,67c9.2,0,16.8-7.5,16.8-16.8c0-2.3-0.5-4.5-1.3-6.6c-0.4-1,0-2.2,1-2.6
			c1-0.4,2.2,0,2.6,1c1.1,2.6,1.7,5.3,1.7,8.2C70.8,61.7,61.4,71,50,71z"/>
	</g>
	<path d="M79,45H19c-1.1,0-2-0.9-2-2s0.9-2,2-2h60c1.1,0,2,0.9,2,2S80.1,45,79,45z"/>
	<path d="M32.3,45c-1,0-1.8-0.7-2-1.7c-1.7-10.6,3.4-18,9.3-19.7c4.5-1.3,8.5,0,10.4,0.7c1.8-0.8,5.9-2.1,10.4-0.7
		c5.9,1.8,11,9,9.4,19.4c-0.2,1.1-1.2,1.8-2.3,1.7c-1.1-0.2-1.8-1.2-1.7-2.3c1.2-8.1-2.5-13.7-6.6-15c-4.2-1.3-8.2,0.8-8.2,0.9
		c-0.6,0.3-1.3,0.3-1.9,0c0,0-4-2.1-8.2-0.9c-4.1,1.2-7.8,7-6.5,15.3c0.2,1.1-0.6,2.1-1.7,2.3C32.5,45,32.4,45,32.3,45z"/>
	<path d="M71.1,89.2c-0.1,0-0.3,0-0.4,0c-1.1-0.2-1.8-1.3-1.5-2.4c1.8-8.3-2.8-14.1-8-15.4c-1.5-0.4-2.2,0.3-3.9,3.3
		c-1.4,2.4-3.3,5.7-7.2,5.7c-3.9,0-5.8-3.1-7.3-5.7c-1.8-3-2.5-3.7-4-3.3c-5.2,1.3-9.6,7-8,15.3c0.2,1.1-0.5,2.1-1.6,2.3
		c-1.1,0.2-2.1-0.5-2.3-1.6c-1.5-7.9,1.8-17.6,10.9-19.9c4.7-1.2,6.8,2.5,8.4,5.1c1.4,2.3,2.3,3.7,3.9,3.7c1.5,0,2.3-1.2,3.8-3.7
		c1.5-2.7,3.6-6.3,8.3-5.1c7,1.8,13.2,9.4,10.9,20.1C72.9,88.5,72,89.2,71.1,89.2z"/>
	<path d="M36.2,93.2c-0.1,0-0.2,0-0.3,0c-1.1-0.2-1.8-1.2-1.6-2.3L38,68.9c0.2-1.1,1.2-1.8,2.3-1.6c1.1,0.2,1.8,1.2,1.6,2.3
		l-3.8,21.9C38,92.5,37.2,93.2,36.2,93.2z"/>
	<path d="M64,93.2c-1,0-1.8-0.7-2-1.7l-3.8-21.9c-0.2-1.1,0.5-2.1,1.6-2.3c1.1-0.2,2.1,0.5,2.3,1.6L66,90.9c0.2,1.1-0.5,2.1-1.6,2.3
		C64.2,93.2,64.1,93.2,64,93.2z"/>
	<circle id="Ellipse_228_7_" cx="43" cy="49" r="2"/>
	<circle id="Ellipse_229_7_" cx="57" cy="49" r="2"/>
	<path d="M27.4,85.9c-0.8,0-1.6-0.5-1.9-1.4c-6.7-21.2,4-43,4.5-43.9c0.5-1,1.7-1.4,2.7-0.9c1,0.5,1.4,1.7,0.9,2.7
		c-0.1,0.2-10.5,21.3-4.3,40.9c0.3,1.1-0.2,2.2-1.3,2.5C27.8,85.9,27.6,85.9,27.4,85.9z"/>
	<path d="M72.8,87.4c-0.2,0-0.4,0-0.6-0.1c-1.1-0.3-1.6-1.5-1.3-2.5c6.2-19.6-4.2-40.7-4.3-40.9c-0.5-1-0.1-2.2,0.9-2.7
		c1-0.5,2.2-0.1,2.7,0.9c0.5,0.9,11.2,22.7,4.5,43.9C74.5,86.9,73.7,87.4,72.8,87.4z"/>
	<path d="M50,63c-6,0-6.5-3.4-6.5-3.8c-0.1-1.1,0.7-2.1,1.8-2.2c1-0.1,1.9,0.5,2.1,1.5c0.1,0.1,0.8,0.5,2.6,0.5s2.4-0.4,2.6-0.5
		c0.2-0.9,1.1-1.6,2.1-1.5c1.1,0.1,1.9,1.1,1.8,2.2C56.5,59.6,56,63,50,63z M52.5,58.8C52.5,58.8,52.5,58.8,52.5,58.8
		C52.5,58.8,52.5,58.8,52.5,58.8z M47.5,58.8C47.5,58.8,47.5,58.8,47.5,58.8C47.5,58.8,47.5,58.8,47.5,58.8z M47.5,58.8L47.5,58.8
		L47.5,58.8z M52.5,58.8C52.5,58.8,52.5,58.8,52.5,58.8S52.5,58.8,52.5,58.8z"/>
</g>
<g id="_x2D_-------INNER_x5F_ELEMENT--------">
</g>
<g id="Modifier_x5F_Check_1_" class="st0">
	<circle class="st1" cx="83" cy="83" r="17"/>
	<polyline class="st4" points="76,84 82,89 90,77 	"/>
</g>
<g id="Modifier_x5F_Add" class="st0">
	<circle class="st1" cx="83" cy="83" r="17"/>
	<g class="st1">
		<line class="st5" x1="83" y1="75" x2="83" y2="91"/>
		<line class="st5" x1="91" y1="83" x2="75" y2="83"/>
	</g>
</g>
<g id="Modifier_x5F_Remove" class="st0">
	<circle class="st1" cx="83" cy="83" r="17"/>
	<line class="st4" x1="91" y1="83" x2="75" y2="83"/>
</g>
<g id="Modifier_x5F_Exclude" class="st0">
	<circle class="st1" cx="83" cy="83" r="17"/>
	<line class="st4" x1="89" y1="77" x2="77" y2="89"/>
	<line class="st4" x1="89" y1="89" x2="77" y2="77"/>
</g>
<g id="Modifier_x5F_Time" class="st0">
	<circle class="st1" cx="83" cy="83" r="17"/>
	<g class="st1">
		<polyline class="st5" points="83,75 83,85 90,88 		"/>
	</g>
</g>
<g id="_x2D_----------MODIFIER----------">
</g>
</svg>
