<?xml version="1.0" encoding="utf-8"?>
<!-- Generator: Adobe Illustrator 25.4.1, SVG Export Plug-In . SVG Version: 6.00 Build 0)  -->
<svg version="1.1" id="Layer_1" xmlns="http://www.w3.org/2000/svg" xmlns:xlink="http://www.w3.org/1999/xlink" x="0px" y="0px"
	 viewBox="0 0 94.2 100.1" style="enable-background:new 0 0 94.2 100.1;" xml:space="preserve">
<g id="Default_x5F_Hexagon_copy">
	<g id="Default_1_">
		<path d="M47.1,100.1c-2,0-4-0.5-5.8-1.5l-35-19.2c-3.8-2.1-6.2-6.1-6.2-10.5V31.3c0-4.4,2.4-8.4,6.2-10.5l35-19.2
			c3.6-2,7.9-2,11.5,0l35,19.2c3.8,2.1,6.2,6.1,6.2,10.5v37.6c0,4.4-2.4,8.4-6.2,10.5l-35,19.2C51.1,99.6,49.1,100.1,47.1,100.1z
			 M47.1,4.1c-1.3,0-2.6,0.3-3.9,1l-35,19.2c-2.6,1.4-4.1,4.1-4.1,7v37.6c0,2.9,1.6,5.6,4.1,7l35,19.2c2.4,1.3,5.3,1.3,7.7,0
			l35-19.2c2.6-1.4,4.2-4.1,4.2-7V31.3c0-2.9-1.6-5.6-4.2-7l-35-19.2C49.7,4.4,48.4,4.1,47.1,4.1z"/>
	</g>
</g>
<g id="Your_Icon">
	<path d="M61.4,52.1c-0.7,0-1.4-0.4-1.8-1c-0.5-1-0.2-2.2,0.8-2.7c0.2-0.1,0.4-0.2,0.7-0.4c4.2-2.4,7.2-7.8,8.6-10.9
		c-3.5-0.3-10-0.4-14.3,2.3c-0.9,0.6-2.2,0.3-2.8-0.6c-0.6-0.9-0.3-2.2,0.6-2.8c7.5-4.8,19.2-2.7,19.7-2.6c0.6,0.1,1.1,0.5,1.4,1
		s0.3,1.1,0.2,1.7c-0.2,0.5-4,11.1-11.3,15.3c-0.2,0.1-0.5,0.3-0.8,0.4C62,52,61.7,52.1,61.4,52.1z"/>
	<path d="M32.8,52.1c-0.3,0-0.6-0.1-0.9-0.2C24,47.8,20,36.6,19.8,36.1c-0.2-0.6-0.1-1.2,0.2-1.7c0.3-0.5,0.8-0.9,1.4-1
		c0.5-0.1,11.6-2.1,18.9,2.1c0.3,0.1,0.5,0.3,0.7,0.4c0.9,0.6,1.2,1.8,0.7,2.8s-1.8,1.2-2.8,0.7c-0.2-0.1-0.4-0.3-0.6-0.4
		c-4.2-2.4-10.3-2.3-13.7-2c1.5,3.2,4.6,8.9,9.2,11.2c1,0.5,1.4,1.7,0.9,2.7C34.3,51.7,33.6,52.1,32.8,52.1z"/>
	<path d="M47.1,81.4L47.1,81.4c-0.6,0-1.1-0.3-1.5-0.7c-0.3-0.4-7.6-9-7.6-17.5c0-0.3,0-0.6,0-0.9c0-1.1,0.9-2,2.1-1.9
		c1.1,0,2,1,1.9,2.1c0,0.2,0,0.5,0,0.7c0,4.9,3.1,10.1,5.1,12.9c2-2.9,5.4-8.4,5.1-13.6c0-1.1,0.8-2,1.9-2.1c1.1,0,2,0.8,2.1,1.9
		c0.4,8.9-7.3,18-7.6,18.4C48.2,81.2,47.7,81.4,47.1,81.4z"/>
	<path d="M32.2,37.2c-1,0-1.9-0.7-2-1.8c-0.7-5.6,0.3-10.9,0.3-11.1c0.1-0.6,0.4-1.1,0.9-1.4s1.1-0.4,1.6-0.2
		c0.2,0.1,5.2,1.7,9.8,5.3c0.9,0.7,1,1.9,0.3,2.8s-1.9,1-2.8,0.3c-2.2-1.7-4.6-3-6.3-3.7c-0.2,1.9-0.3,4.6,0.1,7.4
		c0.1,1.1-0.6,2.1-1.7,2.2C32.3,37.2,32.2,37.2,32.2,37.2z"/>
	<path d="M26.7,57.6c-0.3,0-0.5-0.1-0.8-0.2c-5.2-2.2-9.3-5.6-9.4-5.8c-0.4-0.4-0.7-0.9-0.7-1.5s0.2-1.1,0.7-1.5
		c0.2-0.1,4-3.6,9.5-5.8c1-0.4,2.2,0.1,2.6,1.1s-0.1,2.2-1.1,2.6c-2.6,1.1-4.9,2.5-6.4,3.6c1.5,1.1,3.8,2.6,6.4,3.7
		c1,0.4,1.5,1.6,1.1,2.6C28.2,57.1,27.5,57.6,26.7,57.6z"/>
	<path d="M32.4,77.5c-0.3,0-0.7-0.1-1-0.3c-0.5-0.3-0.9-0.8-1-1.3c0-0.2-1.1-5.3-0.3-11.1c0.2-1.1,1.2-1.9,2.3-1.7
		c1.1,0.2,1.9,1.2,1.7,2.3c-0.4,2.8-0.3,5.5-0.1,7.3c1.7-0.8,4.1-2.1,6.4-3.7c0.9-0.7,2.1-0.5,2.8,0.4s0.5,2.1-0.4,2.8
		c-4.5,3.4-9.5,5.2-9.7,5.3C32.9,77.5,32.7,77.5,32.4,77.5z"/>
	<path d="M61.8,77.5c-0.2,0-0.4,0-0.6-0.1c-0.2-0.1-5.2-1.7-9.8-5.3c-0.9-0.7-1-1.9-0.3-2.8s1.9-1,2.8-0.3c2.2,1.7,4.6,3,6.3,3.7
		c0.2-1.9,0.3-4.6-0.1-7.4c-0.1-1.1,0.6-2.1,1.7-2.2c1.1-0.1,2.1,0.6,2.2,1.7c0.7,5.6-0.3,10.8-0.3,11.1c-0.1,0.6-0.4,1.1-0.9,1.4
		C62.5,77.4,62.1,77.5,61.8,77.5z"/>
	<path d="M67.5,57.6c-0.8,0-1.5-0.5-1.9-1.2c-0.4-1,0.1-2.2,1.1-2.6c2.6-1.1,4.9-2.5,6.4-3.6c-1.5-1.1-3.8-2.6-6.4-3.7
		c-1-0.4-1.5-1.6-1.1-2.6s1.6-1.5,2.6-1.1c5.2,2.2,9.3,5.6,9.4,5.8c0.4,0.4,0.7,0.9,0.7,1.5s-0.2,1.1-0.7,1.5
		c-0.2,0.1-4,3.6-9.5,5.8C68,57.5,67.8,57.6,67.5,57.6z"/>
	<path d="M62,37.1c-0.1,0-0.2,0-0.3,0c-1.1-0.2-1.9-1.2-1.7-2.3c0.4-2.8,0.3-5.5,0.1-7.3c-1.7,0.8-4.1,2.1-6.4,3.7
		c-0.9,0.7-2.1,0.5-2.8-0.4s-0.5-2.1,0.4-2.8c4.5-3.4,9.5-5.2,9.7-5.3c0.5-0.2,1.1-0.1,1.6,0.1c0.5,0.3,0.9,0.8,1,1.3
		c0,0.2,1.1,5.3,0.3,11.1C63.9,36.4,63,37.1,62,37.1z"/>
	<path d="M66.1,67.3c-3.8,0-8.5-0.5-12.2-2.7c-0.1-0.1-0.3-0.2-0.4-0.2l-0.3-0.2c-2.1-1.2-4.1-2.8-5.6-4.7c-0.4-0.5-0.6-1.2-0.4-1.9
		s0.7-1.1,1.4-1.3c2.8-0.7,4.7-3.2,4.7-6.1c0-0.6-0.1-1.2-0.3-1.8c-0.2-0.7,0-1.4,0.4-1.9s1.2-0.8,1.9-0.6c2.4,0.5,5.1,1.5,7.6,2.9
		c7.3,4.2,11.2,14.9,11.3,15.3c0.2,0.6,0.1,1.2-0.2,1.7c-0.3,0.5-0.8,0.9-1.4,1C72.6,66.8,69.8,67.3,66.1,67.3z M52.7,58.9
		c0.8,0.7,1.7,1.3,2.6,1.8l0.7,0.4c4.2,2.4,10.3,2.3,13.7,2c-1.4-3.1-4.4-8.5-8.6-10.9l0,0c-1.2-0.7-2.5-1.3-3.7-1.7
		C57.3,54,55.5,57.1,52.7,58.9z"/>
	<path d="M41.1,46.4c-0.1,0-0.3,0-0.4,0c-0.7-0.1-1.2-0.6-1.5-1.3c-0.9-2.4-1.3-5.2-1.3-8.2c0-8.5,7.3-17.1,7.6-17.5
		c0.4-0.4,0.9-0.7,1.5-0.7l0,0c0.6,0,1.1,0.3,1.5,0.7c0.3,0.4,7.6,9,7.6,17.5v0.8c0,2.6-0.5,5.1-1.3,7.4c-0.2,0.6-0.8,1.1-1.5,1.2
		c-0.7,0.1-1.4-0.1-1.8-0.6c-1.2-1.2-2.8-1.9-4.5-1.9s-3.3,0.7-4.5,1.9C42.2,46.2,41.7,46.4,41.1,46.4z M47.1,39.9
		c1.7,0,3.3,0.4,4.8,1.2c0.2-1.1,0.3-2.2,0.3-3.3V37c0-4.9-3.1-10.1-5.1-12.9c-2,2.8-5.1,8-5.1,12.9c0,1.5,0.1,2.8,0.4,4.1
		C43.8,40.3,45.4,39.9,47.1,39.9z"/>
	<path d="M28.1,67.3c-3.7,0-6.5-0.5-6.7-0.6c-0.6-0.1-1.1-0.5-1.4-1s-0.3-1.1-0.2-1.7c0.2-0.5,4-11.1,11.3-15.3
		c0.1-0.1,0.3-0.2,0.4-0.2l0.3-0.2c2.2-1.3,4.6-2.1,7-2.5c0.7-0.1,1.4,0.1,1.8,0.7c0.5,0.5,0.6,1.2,0.4,1.9
		c-0.2,0.6-0.3,1.2-0.3,1.8c0,2.9,1.9,5.4,4.7,6.1c0.7,0.2,1.2,0.7,1.4,1.3s0.1,1.4-0.4,1.9c-1.6,1.9-3.7,3.6-6.2,5
		C36.6,66.7,31.9,67.3,28.1,67.3z M24.6,63.1c3.4,0.3,9.5,0.4,13.7-2c1.2-0.7,2.3-1.4,3.2-2.2c-2.8-1.8-4.6-4.9-4.7-8.4
		c-1,0.4-2,0.8-2.9,1.4l-0.8,0.3C28.9,54.7,26,60,24.6,63.1z"/>
	<g>
		<path d="M47.1,60.5c-5.7,0-10.3-4.6-10.3-10.3s4.6-10.3,10.3-10.3s10.3,4.6,10.3,10.3S52.8,60.5,47.1,60.5z M47.1,43.9
			c-3.5,0-6.3,2.8-6.3,6.3s2.8,6.3,6.3,6.3s6.3-2.8,6.3-6.3S50.6,43.9,47.1,43.9z"/>
	</g>
</g>
</svg>
