<svg xmlns="http://www.w3.org/2000/svg" id="Layer_25" data-name="Layer 25" viewBox="0 0 94 100"><defs><style>.cls-1{fill:none;stroke:#000;stroke-linecap:round;stroke-linejoin:round;stroke-width:4px;}</style></defs><g id="Default"><path class="cls-1" d="M94,68.79V31.21a10,10,0,0,0-5.19-8.76l-35-19.22a10,10,0,0,0-9.62,0l-35,19.22A10,10,0,0,0,4,31.21V68.79a10,10,0,0,0,5.19,8.76l35,19.22a10,10,0,0,0,9.62,0l35-19.22A10,10,0,0,0,94,68.79Z" transform="translate(-2 0)"></path></g><line class="cls-1" x1="35" y1="52.7" x2="35" y2="73.7"></line><path class="cls-1" d="M66,73.7V28a1,1,0,0,0-1.81-.59c-3,4.16-8.64,13.07-8.64,20.95C55.55,59.09,66,57.08,66,57.08" transform="translate(-2 0)"></path><path class="cls-1" d="M27,30v9.82h0C27,46.55,29.82,52,37,52h0c7.18,0,10-5.45,10-12.18h0V30" transform="translate(-2 0)"></path><line class="cls-1" x1="32" y1="30.03" x2="32" y2="43.03"></line><line class="cls-1" x1="38" y1="30.03" x2="38" y2="43.03"></line></svg>