<?xml version="1.0" encoding="utf-8"?>
<!-- Generator: Adobe Illustrator 25.4.1, SVG Export Plug-In . SVG Version: 6.00 Build 0)  -->
<svg version="1.1" id="Fruit" xmlns="http://www.w3.org/2000/svg" xmlns:xlink="http://www.w3.org/1999/xlink" x="0px" y="0px"
	 viewBox="0 0 100 100" enable-background="new 0 0 100 100" xml:space="preserve">
<g>
	<path fill="#231F20" d="M90.775,20.694L55.774,1.48c-3.615-1.984-7.932-1.984-11.549,0l-35,19.215C5.385,22.803,3,26.834,3,31.214
		v37.572c0,4.381,2.385,8.411,6.225,10.519l35,19.214c1.808,0.993,3.792,1.489,5.775,1.489c1.983,0,3.967-0.496,5.775-1.489
		l34.999-19.214C94.614,77.197,97,73.167,97,68.786V31.214C97,26.834,94.614,22.803,90.775,20.694z M93,68.786
		c0,2.921-1.59,5.608-4.151,7.013l-35,19.214c-2.41,1.322-5.289,1.322-7.699,0l-35-19.214C8.59,74.393,7,71.707,7,68.786V31.214
		c0-2.92,1.59-5.607,4.149-7.012l35-19.214C47.355,4.326,48.678,3.995,50,3.995s2.645,0.331,3.85,0.992l35,19.214
		c2.56,1.406,4.15,4.093,4.15,7.013V68.786z"/>
	<path fill="#231F20" d="M52.591,58.915l0.287-0.489c3.448-5.778,4.23-12.355,2.145-18.045c-1.576-4.297-4.666-7.6-8.269-8.836
		c-3.865-1.325-7.568-0.195-9.762,0.811c0.051-1.148,0.137-2.204,0.259-3.155c3.16-0.11,5.712-1.089,7.605-2.924
		c3.497-3.39,3.244-8.393,3.231-8.604c-0.05-0.854-0.64-1.569-1.44-1.804c-0.603-0.185-4.355-1.184-7.869,1.333
		c-2.169,1.552-3.74,4.063-4.703,7.503c-1.634-2.19-4.135-3.724-7.911-3.857c-1.116-0.052-2.033,0.824-2.072,1.93
		c-0.039,1.106,0.825,2.033,1.93,2.072c4.291,0.152,5.911,3.035,6.542,6.314c-2.028-0.848-4.658-1.45-7.509-0.807
		c-5.298,1.19-11,6.657-11,15.847c0,10.73,3.254,15.169,6.771,18.365c3.794,3.449,8.782,2.727,11.899,0.928
		c2.004,1.45,4.947,2.2,7.588,2.2c1.131,0,2.207-0.137,3.128-0.417C48.615,65.713,50.82,61.944,52.591,58.915z M42.283,63.452
		c-2.365,0.714-6.659-0.239-7.788-1.732c-0.338-0.447-0.847-0.731-1.405-0.785c-0.064-0.006-0.127-0.009-0.19-0.009
		c-0.492,0-0.969,0.181-1.337,0.513c-1.443,1.298-5.284,2.68-8.045,0.171c-3.278-2.98-5.461-6.741-5.461-15.406
		c0-6.991,4.083-11.092,7.877-11.945c2.974-0.667,5.76,0.775,7.157,1.695c1.514,0.997,3.456,1.103,5.068,0.277
		c1.488-0.762,4.416-1.893,7.299-0.904c2.474,0.849,4.646,3.252,5.81,6.429c1.668,4.552,1.003,9.881-1.83,14.63l-0.298,0.509
		C47.502,59.695,45.956,62.34,42.283,63.452z"/>
	<path fill="#231F20" d="M72.461,28.049c-3.422,0.332-5.672-1.356-6.146-1.747l-3.391-3.831c-0.865-0.976-2.283-1.247-3.444-0.66
		l-0.69,0.348c-1.342,0.677-1.932,2.24-1.372,3.633l1.654,4.135c0.393,0.988,1.283,1.673,2.323,1.788
		c0.318,0.035,3.215,0.549,6.971,7.684c2.782,5.287,2.66,10.544-0.364,15.625l-0.153,0.261c-0.657,1.148-5.971,8.156-11.585,11.887
		c-5.258,3.495-6.962,7.426-7.449,8.952c-0.303,0.944-0.097,1.961,0.549,2.723l1.797,2.117c0.534,0.627,1.311,0.995,2.135,1.012
		c0.142,0.002,0.287,0.003,0.436,0.003c4.835,0,13.864-1.328,22.942-9.629l0.09-0.088c8.641-8.952,9.338-15.677,10.015-22.212
		c0.697-7.97-3.199-14.908-6.748-18.428C77.483,29.096,74.793,27.823,72.461,28.049z M82.801,49.671
		c-0.658,6.349-1.226,11.834-8.868,19.769c-7.996,7.287-15.814,8.515-20.058,8.539l-1.031-1.216c0.541-1.28,2.005-3.846,5.636-6.26
		c6.287-4.179,12.075-11.892,12.841-13.23l0.12-0.203c4.714-7.92,2.856-14.995,0.466-19.535c-1.383-2.628-2.731-4.562-3.988-5.983
		c1.37,0.414,3.033,0.66,4.926,0.479c0.812-0.076,2.437,0.513,4.373,2.432C80.152,37.373,83.374,43.111,82.801,49.671z"/>
</g>
</svg>
