<svg xmlns="http://www.w3.org/2000/svg" id="INSECT-INGREDIENT_-_Foodicons_Community" data-name="INSECT-INGREDIENT - Foodicons Community" viewBox="0 0 94 100.02"><g id="Default"><path d="M50,100a12,12,0,0,1-5.77-1.49L9.23,79.3A12,12,0,0,1,3,68.79V31.21A12,12,0,0,1,9.23,20.7l35-19.22a11.9,11.9,0,0,1,11.54,0l35,19.22A12,12,0,0,1,97,31.21V68.79h0A12,12,0,0,1,90.77,79.3l-35,19.22A12,12,0,0,1,50,100ZM50,4a8,8,0,0,0-3.85,1l-35,19.22a8,8,0,0,0-4.15,7V68.79a8,8,0,0,0,4.15,7L46.15,95a8,8,0,0,0,7.7,0l35-19.22a8,8,0,0,0,4.15-7V31.21a8,8,0,0,0-4.15-7L53.85,5A8,8,0,0,0,50,4Zm45,64.8h0Z" transform="translate(-3 0.01)"></path></g><g id="Path_584" data-name="Path 584"><path d="M50,99.82a2,2,0,0,1-2-2V78.75a2,2,0,0,1,4,0V97.82A2,2,0,0,1,50,99.82Z" transform="translate(-3 0.01)"></path></g><g id="Group_274" data-name="Group 274"><g id="Line_94" data-name="Line 94"><path d="M74,59a2,2,0,0,1-1.42-.59l-8.8-8.83a2,2,0,1,1,2.84-2.82l8.8,8.83a2,2,0,0,1,0,2.83A2,2,0,0,1,74,59Z" transform="translate(-3 0.01)"></path></g><g id="Line_95" data-name="Line 95"><path d="M65.2,40.83a2,2,0,0,1-1.41-.58,2,2,0,0,1,0-2.83l8.8-8.83a2,2,0,0,1,2.84,2.82l-8.8,8.83A2,2,0,0,1,65.2,40.83Z" transform="translate(-3 0.01)"></path></g><g id="Line_96" data-name="Line 96"><path d="M30,50.38a2,2,0,0,1-2-2V38.11a2,2,0,1,1,4,0V48.38A2,2,0,0,1,30,50.38Z" transform="translate(-3 0.01)"></path></g><g id="Path_580" data-name="Path 580"><path d="M53.28,45,53,45c-1.35-.21-13.33-2.19-16.77-7.28-3.62-5.35-2.65-12.76,2.16-16.51a10.25,10.25,0,0,1,8-2.05,11.45,11.45,0,0,1,7.63,5c3.39,5,1.47,17.73,1.23,19.16A2,2,0,0,1,53.28,45ZM44.71,23a6.23,6.23,0,0,0-3.89,1.35c-3.18,2.48-3.77,7.46-1.3,11.11,1.6,2.37,7.59,4.28,12.07,5.2.58-4.92.76-11.83-.89-14.27h0a7.44,7.44,0,0,0-5-3.29A6.18,6.18,0,0,0,44.71,23Z" transform="translate(-3 0.01)"></path></g><g id="Path_582" data-name="Path 582"><path d="M55.33,52a2.23,2.23,0,0,1-1.44-.51A2.27,2.27,0,0,1,53.05,50V49.9a1,1,0,0,1,0-.17V36.41a2.26,2.26,0,0,1,.56-1.57,2.37,2.37,0,0,1,1.58-.79h4.14A8.06,8.06,0,0,1,68,42.62v.77C68,48.62,64.61,52,59.36,52h-4Zm-.18-4ZM57,48h2.32C63.2,48,64,45.49,64,43.39v-.77a4.8,4.8,0,0,0-1.19-3.42,4.86,4.86,0,0,0-3.47-1.15H57Zm0-11.77Z" transform="translate(-3 0.01)"></path></g><g id="Path_583" data-name="Path 583"><path d="M35.59,52H30.45C24.1,52,20,48.62,20,43.39A1.58,1.58,0,0,1,20,43a1.72,1.72,0,0,1,0-.39C20,37.38,24.11,34,30.47,34h5.11A2.34,2.34,0,0,1,38,36.31V49.69A2.33,2.33,0,0,1,35.59,52ZM24,43a1.58,1.58,0,0,1,0,.38C24,47.55,28.51,48,30.45,48H34V38H30.47c-1.95,0-6.47.45-6.47,4.62A1.72,1.72,0,0,1,24,43Z" transform="translate(-3 0.01)"></path></g><g id="Path_580-2" data-name="Path 580-2"><path d="M44.69,67a10.22,10.22,0,0,1-6.33-2.19c-4.81-3.75-5.78-11.16-2.16-16.51C39.64,43.21,51.62,41.23,53,41a2,2,0,0,1,2.28,1.66c.24,1.43,2.16,14.14-1.23,19.17a11.47,11.47,0,0,1-7.63,5A10.83,10.83,0,0,1,44.69,67Zm6.9-21.66c-4.48.92-10.47,2.83-12.07,5.2-2.47,3.64-1.88,8.63,1.3,11.11a6.28,6.28,0,0,0,4.93,1.26,7.44,7.44,0,0,0,5-3.29h0C52.36,57.16,52.17,50.26,51.59,45.34Z" transform="translate(-3 0.01)"></path></g></g><path d="M50.23,79h-.36a15,15,0,0,1-12.75-7.09,2,2,0,1,1,3.38-2.12A11,11,0,0,0,49.92,75h.26A10.8,10.8,0,0,0,61,64.41V57a2,2,0,0,1,4,0v7.45A14.81,14.81,0,0,1,50.23,79Z" transform="translate(-3 0.01)"></path></svg>