<?xml version="1.0" encoding="utf-8"?>
<!-- Generator: Adobe Illustrator 25.4.1, SVG Export Plug-In . SVG Version: 6.00 Build 0)  -->
<svg version="1.1" id="Your_Icon" xmlns="http://www.w3.org/2000/svg" xmlns:xlink="http://www.w3.org/1999/xlink" x="0px" y="0px"
	 viewBox="0 0 100 100" enable-background="new 0 0 100 100" xml:space="preserve">
<path fill="#231F20" d="M90.7,20.7l-35-19.2c-3.6-2-7.9-2-11.5,0l-35,19.2C5.4,22.8,3,26.8,3,31.2V68
	c0,0.432,0.142,0.831,0.378,1.159C3.386,69.172,3.391,69.187,3.4,69.2c0.021,0.026,0.048,0.046,0.07,0.071
	c0.077,0.092,0.16,0.176,0.252,0.253c0.008,0.007,0.016,0.013,0.024,0.02c0.232,0.189,0.503,0.33,0.803,0.4
	c0.002,0,0.003,0.001,0.005,0.002C4.698,69.979,4.846,70,5,70c0.435,0,0.835-0.144,1.164-0.383C6.176,69.612,6.188,69.606,6.2,69.6
	L23.9,57c1.7-1.2,3.7-1.8,5.7-1.8h17.7c1.2,0,2.3,0.5,3.1,1.3s1.3,1.9,1.3,3.1v0.2c0,1.974-1.36,3.657-3.175,4.2H36
	c-1.1,0-2,0.9-2,2s0.9,2,2,2h10.446c0.26,0.125,0.548,0.2,0.854,0.2c0.613,0,1.211-0.072,1.788-0.2H49.8c1.5,0,2.9-0.4,4.2-1.2
	l18.2-11.4c0.8-0.3,1.6-0.5,2.5-0.3c1.6,0.3,3,1.7,3.2,3.3c0.3,1.5-0.3,2.9-1.4,3.8L49.4,80.3c-1.6,1.1-3.5,1.7-5.5,1.7H22
	c-0.453,0-0.867,0.158-1.203,0.415c-0.073,0.051-0.141,0.108-0.206,0.17c-0.002,0.002-0.004,0.004-0.006,0.006
	c-0.15,0.144-0.284,0.308-0.385,0.509c-0.5,1-0.2,2.2,0.8,2.7l23.2,12.7c1.8,1,3.8,1.5,5.8,1.5s4-0.5,5.7-1.5l35-19.2
	c3.8-2.1,6.2-6.1,6.2-10.5V31.2C96.9,26.8,94.5,22.8,90.7,20.7z M53.298,35.038c0.002-0.014,0-0.024,0.002-0.038
	c0.5-2.1,1.3-3.9,2.4-5.1c1.5-1.8,3.7-2.6,5.3-2.9c-0.3,1.9-1,4.7-2.7,6.7c-1.1,1.2-2.5,2-4.3,2.6c0,0-0.2,0.1-0.4-0.1
	c-0.122-0.122-0.236-0.329-0.29-0.602C53.318,35.412,53.311,35.225,53.298,35.038z M52.7,27.2c-0.546,0.619-1.02,1.343-1.46,2.116
	c-0.769-1.409-1.677-2.653-2.74-3.716c-0.11-0.11-0.228-0.204-0.34-0.309c0.286-2.776,1.779-5.81,3.04-7.791
	c1.234,2.183,2.899,5.353,3.067,8.235C53.721,26.161,53.193,26.646,52.7,27.2z M45.6,28.5c1.535,1.535,2.69,3.636,3.4,6.187v1.559
	c-0.122,0.306-0.328,0.53-0.7,0.754c-0.5,0.3-0.9,0.3-1.4,0.2c-2.7-0.7-4.9-1.9-6.5-3.5c-2.8-2.8-3.8-6.8-4.1-9.3
	C38.8,24.7,42.9,25.7,45.6,28.5z M93.1,68.8c0,2.9-1.6,5.6-4.2,7L53.9,95c-2.4,1.3-5.3,1.3-7.7,0l-16.512-9H43.9
	c2.7,0,5.4-0.8,7.7-2.3l27.1-18.3l0.1-0.1c2.3-1.7,3.4-4.6,3-7.5c-0.5-3.3-3.1-6-6.4-6.6c-1.8-0.3-3.6-0.1-5.2,0.8
	c-0.1,0.1-0.2,0.1-0.3,0.2l-6.912,4.301L62.9,54.3c0-4.5-4.1-8.2-9.2-8.2H53v-5.898c0.296,0.061,0.597,0.098,0.9,0.098
	c0.4,0,0.8,0,1.3-0.2c2.5-0.7,4.6-2,6.1-3.8c3.9-4.4,3.9-11.3,3.9-11.6c0-1.1-0.9-2-2-2c-0.12,0-2.456,0.007-5.166,0.99
	c-1.068-5.419-5.061-10.63-5.234-10.89c-0.8-1-2.4-1-3.2,0c-0.164,0.164-3.74,4.817-5.035,9.955
	C39.723,20.212,34.511,20.2,34.2,20.2c-1.1,0-2,0.9-2,2c0,0.4,0,8.9,5.4,14.3c2.1,2.1,4.9,3.7,8.3,4.6c0.5,0.1,1,0.2,1.5,0.2
	c0.533,0,1.067-0.092,1.6-0.262V46.1h-6.6c-4.292,0-6.947,1.987-7.683,5H29.5c-2.9,0-5.6,0.9-8,2.5L7,64.086V31.2
	c0-2.9,1.5-5.6,4.1-7L46.1,5c2.4-1.3,5.3-1.3,7.7,0l35.1,19.2c2.6,1.4,4.2,4.1,4.2,7V68.8z"/>
</svg>
