<?xml version="1.0" encoding="utf-8"?>
<!-- Generator: Adobe Illustrator 25.4.1, SVG Export Plug-In . SVG Version: 6.00 Build 0)  -->
<svg version="1.1" id="Layer_1" xmlns="http://www.w3.org/2000/svg" xmlns:xlink="http://www.w3.org/1999/xlink" x="0px" y="0px"
	 viewBox="0 0 100 100" enable-background="new 0 0 100 100" xml:space="preserve">
<g>
	<path fill="#231F20" d="M96.9,60.421V31.2c0-4.4-2.4-8.4-6.2-10.5l-35-19.2c-3.6-2-7.9-2-11.5,0l-35,19.2C5.4,22.8,3,26.8,3,31.2
		v37.6c0,4.4,2.4,8.4,6.2,10.5l35,19.2c1.8,1,3.8,1.5,5.8,1.5s4-0.5,5.7-1.5l31.083-17.051c0.896,0.121,1.741-0.334,2.105-1.155
		L90.7,79.3c3.8-2.1,6.2-6.1,6.2-10.5v-7.07c0.049-0.136,0.086-0.278,0.1-0.43C97.028,60.993,96.988,60.697,96.9,60.421z M11.1,24.2
		L46.1,5c1.3-0.7,2.6-1,3.9-1s2.6,0.3,3.8,1l34.9,19.2c2.6,1.4,4.2,4.1,4.2,7v14.238c-4.396-1.629-8.267-2.911-12.412-3.769
		C80.5,41.362,80.5,41.044,80.5,40.7c0-0.433-0.03-0.86-0.078-1.283L85,38.4c1.1-0.2,1.7-1.3,1.5-2.4s-1.3-1.7-2.4-1.5l-4.827,1.073
		c-0.225-0.448-0.474-0.882-0.754-1.294L79.8,33.1c0.8-0.8,0.9-2.1,0.1-2.9c-0.8-0.8-2.1-0.9-2.9-0.1l-1.357,1.248
		c-0.493-0.348-1.019-0.65-1.566-0.916L75.5,24.9c0.3-1.1-0.3-2.2-1.4-2.5c-1.1-0.3-2.2,0.3-2.5,1.4l-1.427,5.55
		c-0.321-0.028-0.644-0.05-0.973-0.05c-0.415,0-0.828,0.028-1.237,0.073L67.1,26.6c-0.3-1-1.4-1.6-2.5-1.3c-1,0.3-1.6,1.4-1.3,2.5
		l0.838,2.694c-0.332,0.162-0.657,0.34-0.974,0.534L58.9,27c-0.9-0.7-2.1-0.7-2.9,0.1c-0.7,0.9-0.7,2.1,0.1,2.9l3.972,3.751
		c-0.488,0.62-0.903,1.286-1.244,1.988L55.7,34.9c-1.1-0.3-2.2,0.3-2.5,1.4c-0.3,1.1,0.3,2.2,1.4,2.5l3.148,0.845
		C57.721,39.962,57.7,40.28,57.7,40.6c0,0.969,0.034,1.706,0.201,2.445c-0.133,0.051-0.27,0.104-0.401,0.155
		c-3.7,1.5-6.7,2.6-10.7,1.6c-0.074-0.013-0.148-0.014-0.222-0.02c-1.197-0.754-2.392-1.518-3.578-2.28c-8.1-5.2-15.7-10-22.1-10.4
		c-6.5-0.4-10.1,2.1-13.3,4.2c-0.208,0.138-0.4,0.258-0.6,0.387V31.2C7,28.3,8.5,25.6,11.1,24.2z M61.916,41.623
		C61.902,41.351,61.9,41.031,61.9,40.6c0-2,0.8-3.8,2.2-5.2c0.78-0.78,1.777-1.374,2.859-1.73c0.08-0.014,0.161-0.03,0.241-0.07
		c0.012-0.003,0.022-0.01,0.033-0.014c0.639-0.183,1.302-0.286,1.967-0.286c2,0,3.8,0.8,5.2,2.2c1.4,1.4,2.1,3.2,2.1,5.2
		c0,0.107-0.006,0.2-0.011,0.294c-1.791-0.239-3.665-0.408-5.689-0.494C67.345,40.315,64.464,40.855,61.916,41.623z M53.8,95
		c-2.4,1.3-5.3,1.3-7.7,0l-35-19.2c-2.5-1.4-4.1-4.1-4.1-7V41.346C7.966,40.85,8.93,40.18,9.8,39.6c2.9-2,5.7-3.8,10.8-3.5
		c5.4,0.3,12.6,4.9,20.2,9.8c8.6,5.4,17.4,11.1,25.4,11.7c0.1,0,0.1,0,0.2,0c1,0,1.9-0.8,2-1.8c0-1.1-0.8-2.1-1.9-2.2
		c-3.933-0.285-8.386-2.164-12.988-4.688C55.437,48.48,57.229,47.781,59,47.1c3.4-1.4,6.9-2.7,11.7-2.5
		c8.483,0.289,14.186,2.162,22.2,5.163v9.071c-2.503,0.026-5.383,0.568-8.6,1.166c-5.2,1-11,2-16.3,1.1c-19.8-3.5-35.4-1-41.8,6.9
		c-3,3.7-3.9,7.1-2.5,10c3.3,7,18.8,7.8,25.3,7.8c4.4,0,8.9-1.3,13.8-2.4c5.719-1.655,11.551-3.309,17.624-3.005L53.8,95z
		 M88.8,75.8l-2.492,1.367c-8.823-2.133-17.17,0.135-24.608,2.233c-4.5,1.3-8.8,2.5-12.7,2.5c-13.2,0-20.4-2.8-21.7-5.5
		c-0.7-1.4,0-3.4,2-5.8c4.2-5.2,16.5-9.3,38-5.5c6,1,12.2-0.1,17.7-1.1c2.866-0.542,5.665-1.078,7.9-1.109V68.8
		C92.9,71.7,91.4,74.4,88.8,75.8z"/>
	<path fill="#231F20" d="M51.4,65.7c-0.6,0-14-0.5-20.8,7.1c-0.7,0.8-0.6,2.1,0.2,2.8c0.3,0.3,0.8,0.5,1.3,0.5
		c0.6,0,1.1-0.3,1.4-0.6c5.6-6.2,17.6-5.8,17.7-5.8c1.1,0.1,2.1-0.8,2.1-1.9C53.4,66.7,52.5,65.7,51.4,65.7z"/>
	<path fill="#231F20" d="M87.2,71.2c-8.6-2.5-16.5-0.7-24.5,1.5c-1.1,0.3-1.7,1.4-1.4,2.5c0.2,0.9,1,1.5,1.9,1.5
		c0.2,0,0.4-0.1,0.6-0.1c7.4-2,14.7-3.7,22.3-1.5c1.1,0.3,2.2-0.3,2.5-1.4C88.9,72.6,88.3,71.5,87.2,71.2z"/>
</g>
</svg>
