<?xml version="1.0" encoding="UTF-8"?>
<svg id="Layer_73" xmlns="http://www.w3.org/2000/svg" viewBox="0 0 94 100.02">
  <g id="Default">
    <path d="M47,100.01c-2.02,0-4-.52-5.77-1.49L6.23,79.31C2.39,77.21,0,73.18,0,68.8V31.22c0-4.38,2.39-8.41,6.23-10.51L41.23,1.49c3.59-1.97,7.95-1.97,11.54,0l35,19.21c3.84,2.11,6.23,6.14,6.23,10.52v37.58c0,4.38-2.39,8.41-6.23,10.51l-35,19.22c-1.77.97-3.75,1.48-5.77,1.48ZM47,4.01c-1.35,0-2.67.35-3.85,1L8.15,24.22c-2.56,1.4-4.15,4.08-4.15,7v37.58c0,2.92,1.59,5.6,4.15,7l35,19.21c2.4,1.32,5.3,1.32,7.7,0l35-19.21c2.56-1.4,4.15-4.08,4.15-7V31.22c0-2.92-1.59-5.6-4.15-7L50.85,5.01c-1.18-.65-2.5-1-3.85-1Z"/>
  </g>
  <path d="M44,56.01c-.25,0-.5-.05-.73-.14-1.03-.4-1.53-1.56-1.13-2.59,5.2-13.31,14.61-17.89,15-18.08,1-.47,2.19-.03,2.66.97,0,0,0,.02.01.03.46,1,.02,2.19-.98,2.65,0,0-.01,0-.02,0-.1.05-8.41,4.18-13,15.93-.31.73-1.02,1.21-1.81,1.22Z"/>
  <g id="Group_468">
    <g id="Line_194">
      <path d="M44,76.92c-1.1,0-2-.9-2-2v-20.82c0-1.1.9-2,2-2s2,.9,2,2v20.82c0,1.1-.9,2-2,2Z"/>
    </g>
    <g id="Path_1001">
      <path d="M49.11,55.34c-3.85-.02-7.22-2.61-8.23-6.33-.4-1.47-.4-3.03,0-4.5,1.25-5.16,3.83-9.9,7.5-13.74,8.94-8.93,23.11-8.92,23.69-8.93,1.1,0,2,.9,2,2,0,.6,0,14.75-8.94,23.69-3.85,3.66-8.59,6.24-13.76,7.48-.74.21-1.5.32-2.26.33ZM69.94,26.01c-4,.35-12.86,1.79-18.73,7.65-3.18,3.36-5.41,7.5-6.47,12-.21.79-.21,1.61,0,2.4.66,2.42,3.16,3.85,5.58,3.19h0c4.5-1.06,8.64-3.29,12-6.47,5.84-5.93,7.27-14.77,7.62-18.77Z"/>
    </g>
    <g id="Path_1002">
      <path d="M39.13,62.3c-.62,0-1.23-.08-1.83-.24-3.94-.93-7.57-2.89-10.51-5.68-6.85-6.77-6.85-17.46-6.85-17.91,0-1.1.9-2,2-2,.43,0,11.24,0,18.07,6.75,2.81,2.9,4.8,6.49,5.76,10.41h0c.98,3.66-1.19,7.43-4.86,8.42-.58.16-1.18.23-1.77.23v.02ZM24.13,40.63c.35,3.11,1.52,9,5.51,12.9,2.45,2.29,5.45,3.9,8.72,4.66,1.02.29,2.11,0,2.85-.75.73-.71,1.01-1.76.73-2.74h0c-.78-3.24-2.41-6.21-4.71-8.61-4.04-3.96-9.99-5.08-13.14-5.46h.04Z"/>
    </g>
  </g>
  <path d="M44,64.01c-1.1,0-2-.9-2-2,0-3.38-6.12-8.41-9.08-10.32-.96-.55-1.29-1.77-.75-2.73.55-.96,1.77-1.29,2.73-.75.06.03.12.07.18.11,1.12.68,10.92,7.21,10.92,13.68,0,1.1-.9,2-2,2Z"/>
  <path d="M47,86.01c-19.88,0-36.01-16.1-36.01-35.99,0-19.88,16.1-36.01,35.99-36.01,4.82,0,9.59.96,14.03,2.84,1.03.39,1.55,1.55,1.16,2.58-.39,1.03-1.55,1.55-2.58,1.16-.05-.02-.1-.04-.14-.06-16.28-6.87-35.05.76-41.93,17.04-6.87,16.28.76,35.05,17.04,41.93,16.28,6.87,35.05-.76,41.93-17.04,3.69-8.74,3.31-18.67-1.04-27.11-.51-.98-.12-2.19.86-2.7.98-.51,2.19-.12,2.7.86,9.11,17.67,2.17,39.38-15.5,48.5-5.1,2.63-10.76,4-16.5,4Z"/>
</svg>