<?xml version="1.0" encoding="utf-8"?>
<!-- Generator: Adobe Illustrator 25.4.1, SVG Export Plug-In . SVG Version: 6.00 Build 0)  -->
<svg version="1.1" id="Your_Icon" xmlns="http://www.w3.org/2000/svg" xmlns:xlink="http://www.w3.org/1999/xlink" x="0px" y="0px"
	 viewBox="0 0 100 100" enable-background="new 0 0 100 100" xml:space="preserve">
<g>
	<path fill="#231F20" d="M90.7,20.7l-35-19.2c-3.6-2-7.9-2-11.5,0l-35,19.2C5.4,22.8,3,26.8,3,31.2v37.6c0,4.4,2.4,8.4,6.2,10.5
		l35,19.2c1.8,1,3.8,1.5,5.8,1.5s4-0.5,5.7-1.5l35-19.2c3.8-2.1,6.2-6.1,6.2-10.5V31.2C96.9,26.8,94.5,22.8,90.7,20.7z M50,51H27
		c-1.7,0-3-1.3-3-3v-5c0-1.2,1-2.1,2.2-2.1c10.7,0.7,19.5-5,24.6-7.4c7.2-3.3,12.7-4.2,17.2-3.6c2.4,0.3,4.6,1.1,6.1,2.8
		C75.3,34.2,76,36,76,38c0,7-1.5,13-9,13H50z M39,59h4h17h1v5.5C61,70.3,56.1,75,50,75s-11-4.7-11-10.5V59z M93,68.8
		c0,2.9-1.6,5.6-4.2,7L53.8,95c-0.576,0.312-1.181,0.544-1.8,0.706v-16.85c7.348-0.947,13-7.012,13-14.357V59h1h2
		c4.6,0,8.5-2.7,10.6-6.4C80.3,49.7,80,40,80,38c0-6.6-5.3-11.7-12-12c-7,0-12.9,0.8-19.4,4.2c-2.9,1.5-11.6,7.4-22.3,6.7
		c-3.4-0.2-6.3,2.6-6.3,6V54c0,2.8,2.2,5,5,5h2h8v5.5c0,7.345,5.652,13.41,13,14.357v16.879c-0.654-0.162-1.293-0.407-1.9-0.735
		l-35-19.2c-2.5-1.4-4.1-4.1-4.1-7V31.2c0-2.9,1.5-5.6,4.1-7L46.1,5c1.3-0.7,2.6-1,3.9-1s2.6,0.3,3.8,1l35,19.2
		c2.6,1.4,4.2,4.1,4.2,7V68.8z"/>
	<circle fill="#231F20" cx="64" cy="39" r="4"/>
</g>
</svg>
