<?xml version="1.0" encoding="utf-8"?>
<!-- Generator: Adobe Illustrator 25.4.1, SVG Export Plug-In . SVG Version: 6.00 Build 0)  -->
<svg version="1.1" id="Layer_1" xmlns="http://www.w3.org/2000/svg" xmlns:xlink="http://www.w3.org/1999/xlink" x="0px" y="0px"
	 viewBox="0 0 100 100" enable-background="new 0 0 100 100" xml:space="preserve">
<g>
	<path fill="#231F20" d="M90.7,20.7l-35-19.2c-3.6-2-7.9-2-11.5,0L21.1,14.2c-1,0.5-1.3,1.7-0.8,2.7s1.7,1.3,2.7,0.8L46.1,5
		c2.4-1.3,5.3-1.3,7.7,0l35,19.2c2.6,1.4,4.2,4.1,4.2,7v37.5c0,2.9-1.6,5.6-4.2,7l-35,19.2c-2.4,1.3-5.3,1.3-7.7,0l-35-19.2
		c-1.289-0.722-2.332-1.792-3.046-3.054C8.395,72.574,8.722,72.439,9,72.3c4.1-4.2,12-11.1,16-11.6c1.6-0.3,4.7,0.2,7.6,0.6
		c6,0.9,12.1,1.8,15-0.9c1.4-1,6.5-4.9,5.7-9c0-0.3-0.1-0.6-0.3-0.8c-0.342-0.427-6.669-9.245-13.867-15.984
		c1.086-1.601,2.345-3.92,2.567-5.916c0.2-1.9-0.7-3.8-2.3-4.8c-1.7-1-3.7-1-5.3,0c-0.5,0.3-1,0.6-1.5,1c-1.7,1.2-3.3,2.4-5.8,2.4
		c-0.211,0-0.412,0.042-0.603,0.104c-2.723-0.299-5.521,0.116-8.324,1.263c-2.49-2.102-6.612-4.537-11.473-3.166
		c-1.4,0.4-2.6,1.4-3.2,2.7c-0.518,1.123-0.561,2.459-0.184,3.643C3.012,31.896,3,31.946,3,32v36.8c0,4.4,2.4,8.4,6.2,10.5l35,19.2
		c1.8,1,3.8,1.5,5.8,1.5s4-0.5,5.7-1.5l35-19.2c3.8-2.1,6.2-6.1,6.2-10.5V31.2C96.9,26.8,94.5,22.8,90.7,20.7z M45.3,57.2
		c-0.1,0-0.2,0.1-0.3,0.2c-0.15,0.15-0.366,0.269-0.618,0.37c-0.429-1.045-0.279-2.018,0.418-2.87
		c1.023-1.302,2.987-1.897,4.305-1.414C48.394,54.645,46.853,56.191,45.3,57.2z M34.9,28.1c0.5-0.3,0.9-0.6,1.3-0.9
		c0.4-0.3,0.8-0.1,1,0c0.2,0.1,0.6,0.4,0.5,0.9c-0.139,1.039-0.902,2.552-1.69,3.787c-0.203-0.164-0.406-0.328-0.61-0.487
		c-0.874-0.699-1.771-1.3-2.682-1.822C33.546,29.083,34.269,28.555,34.9,28.1z M6.9,29.8c0-0.1,0.2-0.4,0.6-0.5
		c5.2-1.4,9.7,4.2,9.7,4.3c0.7,0.9,1.9,1.1,2.8,0.4c0.705-0.548,0.972-1.401,0.723-2.178C25.026,30.515,29.04,31.43,32.9,34.5
		c5.376,4.271,10.907,10.812,14.132,14.886c-1.966,0.279-3.912,1.264-5.232,2.814c-1.515,1.721-1.961,3.821-1.423,5.909
		c-2.287-0.112-4.96-0.499-7.077-0.809c-3.4-0.5-6.5-1-8.7-0.7C18.779,57.394,9.851,65.729,7,68.51V37.49
		c0.982,0.914,2.07,1.726,3.2,2.31c0.3,0.1,0.6,0.2,0.9,0.2c0.7,0,1.4-0.4,1.9-1.1c0.6-1,0.2-2.2-0.8-2.7c-2.2-1.1-4.5-3.7-5.3-5.5
		C6.7,30.3,6.8,30,6.9,29.8z"/>
	<path fill="#231F20" d="M75.5,19.5h-24c-1.1,0-2,0.9-2,2v8.032L45.8,36.3c-0.5,1-0.2,2.2,0.8,2.7s2.2,0.2,2.7-0.8l2.3-4.3l3.5,6.5
		V72h-7c0-0.2,0-0.4,0-0.8v-3.6c0-1.1-0.9-2-2-2c-1.1,0-2,0.9-2,2v3.6c0,4.3,2.6,4.8,3.8,4.8h9.2h23c2.6,0,4.8-2.1,4.8-4.7V40.175
		c0.068-0.452-0.038-0.921-0.315-1.34c-0.016-0.025-0.03-0.05-0.046-0.074c-0.014-0.02-0.023-0.042-0.039-0.061l-7-9.6v-7.6
		C77.5,20.4,76.6,19.5,75.5,19.5z M53.5,23.4h20v4.3h-20V23.4z M81,71.2c0,0.5-0.4,0.8-0.8,0.8h-21V41.9H81V71.2z M78.96,37.9
		H58.455l-3.322-6.1H74.5L78.96,37.9z"/>
	<path fill="#231F20" d="M20.5,53.5c0.1,0.3,0.4,0.6,0.7,0.6c0.1,0,0.1,0,0.2,0l7-2c0.2-0.1,0.4-0.2,0.5-0.4C29,51.5,29,51.2,29,51
		l-1.5-5.4c-0.1-0.2-0.2-0.3-0.3-0.4l-4.6-3.1C22.3,42,22.1,42,21.9,42c-0.2,0.1-0.4,0.2-0.5,0.4L19,47.5c-0.1,0.2-0.1,0.4,0,0.6
		L20.5,53.5z"/>
	<path fill="#231F20" d="M31.1,42c1.2,0,1.9-0.8,1.9-2s-0.8-2-2-2s-1.9,0.8-2,2.1C29.2,41.3,29.8,42,31.1,42z"/>
	<path fill="#231F20" d="M70,64.5c3.9,0,7-3.3,6.9-7.4c0-2.8-2.7-6.3-5-8.8c-1-1.1-2.9-1.1-3.9,0c-2.3,2.5-5,6-5,8.8
		C63,61.2,66.1,64.5,70,64.5z M70,52.1c2.1,2.4,3,4.3,3,5c0,1.9-1.3,3.4-3,3.4s-3-1.5-3-3.4C67,56.3,67.9,54.5,70,52.1z"/>
</g>
</svg>
