<?xml version="1.0" encoding="utf-8"?>
<!-- Generator: Adobe Illustrator 27.7.0, SVG Export Plug-In . SVG Version: 6.00 Build 0)  -->
<svg version="1.1" id="katman_1" xmlns="http://www.w3.org/2000/svg" xmlns:xlink="http://www.w3.org/1999/xlink" x="0px" y="0px"
	 viewBox="0 0 100 100" enable-background="new 0 0 100 100" xml:space="preserve">
<g id="Warning_x5F_Hexagon" display="none">
	<path display="inline" d="M60.457,91.874l14.907-24.93c0.009-0.016,0.019-0.031,0.029-0.047c1.101-1.785,3.01-2.85,5.107-2.85
		s4.006,1.065,5.107,2.85c0.01,0.016,0.019,0.031,0.029,0.047l6.744,11.278c2.881-2.251,4.62-5.713,4.62-9.44V31.217
		c0-4.38-2.386-8.41-6.225-10.518L55.774,1.488c-3.615-1.984-7.933-1.984-11.549,0l-35,19.212C5.385,22.807,3,26.838,3,31.217
		v37.566c0,4.38,2.385,8.41,6.225,10.517l35,19.211C46.033,99.504,48.017,100,50,100s3.967-0.496,5.775-1.489l3.966-2.177
		C59.397,94.831,59.634,93.227,60.457,91.874z"/>
	<path display="inline" d="M97.119,93.9L82.202,68.95c-0.781-1.267-2.623-1.267-3.405,0L63.881,93.9
		c-0.822,1.333,0.137,3.05,1.702,3.05h29.834C96.982,96.95,97.941,95.233,97.119,93.9z M79,78c0-0.828,0.672-1.5,1.5-1.5
		S82,77.172,82,78v7c0,0.828-0.672,1.5-1.5,1.5S79,85.828,79,85V78z M80.5,93c-1.105,0-2-0.895-2-2s0.895-2,2-2s2,0.895,2,2
		S81.605,93,80.5,93z"/>
</g>
<g id="TopLeft_x5F_Gap_x5F_Hexagon" display="none">
	<path display="inline" fill="none" stroke="#000000" stroke-width="4" stroke-linecap="round" stroke-linejoin="round" d="
		M5,32.046v36.74c0,3.65,1.988,7.01,5.188,8.766l35,19.214c2.997,1.645,6.627,1.645,9.625,0l35-19.214
		C93.012,75.795,95,72.436,95,68.786V31.214c0-3.65-1.988-7.01-5.188-8.766l-35-19.214c-2.997-1.645-6.627-1.645-9.625,0
		L22.009,15.958"/>
</g>
<g id="TopRight_x5F_Gap_x5F_Hexagon" display="none">
	<path display="inline" fill="none" stroke="#000000" stroke-width="4" stroke-linecap="round" stroke-linejoin="round" d="
		M95,32.046v36.74c0,3.65-1.988,7.01-5.188,8.766l-35,19.214c-2.997,1.645-6.627,1.645-9.625,0l-35-19.214
		C6.988,75.795,5,72.436,5,68.786V31.214c0-3.65,1.988-7.01,5.188-8.766l35-19.214c2.997-1.645,6.627-1.645,9.625,0l23.178,12.724"
		/>
</g>
<g id="BottomRight_x5F_Gap_x5F_Hexagon" display="none">
	<path display="inline" fill="none" stroke="#000000" stroke-width="4" stroke-linecap="round" stroke-linejoin="round" d="
		M95,67.954v-36.74c0-3.65-1.988-7.01-5.188-8.766l-35-19.214c-2.997-1.645-6.627-1.645-9.625,0l-35,19.214
		C6.988,24.205,5,27.564,5,31.214v37.572c0,3.65,1.988,7.01,5.188,8.766l35,19.214c2.997,1.645,6.627,1.645,9.625,0l23.178-12.724"
		/>
</g>
<g id="BottomLeft_x5F_Gap_x5F_Hexagon" display="none">
	<path display="inline" fill="none" stroke="#000000" stroke-width="4" stroke-linecap="round" stroke-linejoin="round" d="
		M5,67.954v-36.74c0-3.65,1.988-7.01,5.188-8.766l35-19.214c2.997-1.645,6.627-1.645,9.625,0l35,19.214
		C93.012,24.205,95,27.564,95,31.214v37.572c0,3.65-1.988,7.01-5.188,8.766l-35,19.214c-2.997,1.645-6.627,1.645-9.625,0
		L22.009,84.042"/>
</g>
<g id="Cycle_x5F_Hexagon" display="none">
	<path display="inline" fill="none" stroke="#000000" stroke-width="4" stroke-linecap="round" stroke-linejoin="round" d="
		M29.983,11.579L10.759,22.133C7.213,24.08,5,27.865,5,31.985v36.031c0,4.119,2.213,7.905,5.759,9.852L45.18,96.764
		c3.001,1.648,6.639,1.648,9.64,0l6.156-3.388"/>
	
		<polyline display="inline" fill="none" stroke="#000000" stroke-width="4" stroke-linecap="round" stroke-linejoin="round" points="
		18.4,7.856 29.983,11.579 26.324,23.386 	"/>
	<g display="inline">
		<path fill="none" stroke="#000000" stroke-width="4" stroke-linecap="round" stroke-linejoin="round" d="M69.939,88.464
			L89.162,77.91c3.546-1.947,5.759-5.732,5.759-9.852v-36.03c0-4.119-2.213-7.905-5.759-9.852L54.741,3.279
			c-3.001-1.648-6.639-1.648-9.64,0l-6.156,3.388"/>
		<polyline fill="none" stroke="#000000" stroke-width="4" stroke-linecap="round" stroke-linejoin="round" points="81.521,92.187 
			69.939,88.464 73.597,76.657 		"/>
	</g>
	
		<polyline display="inline" fill="none" stroke="#000000" stroke-width="4" stroke-linecap="round" stroke-linejoin="round" points="
		81.521,92.187 69.939,88.464 73.597,76.657 	"/>
</g>
<g id="Default_x5F_Hexagon" display="none">
	<g id="Default" display="inline">
		<path fill="none" stroke="#000000" stroke-width="4" stroke-linecap="round" stroke-linejoin="round" d="M95,68.786V31.214
			c0-3.65-1.988-7.01-5.188-8.766l-35-19.214c-2.997-1.645-6.627-1.645-9.625,0l-35,19.214C6.988,24.205,5,27.564,5,31.214v37.572
			c0,3.65,1.988,7.01,5.188,8.766l35,19.214c2.997,1.645,6.627,1.645,9.625,0l35-19.214C93.012,75.795,95,72.436,95,68.786z"/>
	</g>
</g>
<g id="Layer_20">
</g>
<g id="_x2D_---SELECT_x5F_HEXAGON_x5F_STYLE----">
</g>
<g id="_x2D_-----------GRID------------" display="none">
</g>
<g id="Your_Icon">
</g>
<g id="_x2D_-------INNER_x5F_ELEMENT--------">
</g>
<g id="Modifier_x5F_Check_1_" display="none">
	<circle display="inline" cx="83" cy="83" r="17"/>
	
		<polyline display="inline" fill="none" stroke="#FFFFFF" stroke-width="4" stroke-linecap="round" stroke-linejoin="round" points="
		76,84 82,89 90,77 	"/>
</g>
<g id="Modifier_x5F_Add" display="none">
	<circle display="inline" cx="83" cy="83" r="17"/>
	<g display="inline">
		
			<line fill="none" stroke="#FFFFFF" stroke-width="4" stroke-linecap="round" stroke-linejoin="round" x1="83" y1="75" x2="83" y2="91"/>
		
			<line fill="none" stroke="#FFFFFF" stroke-width="4" stroke-linecap="round" stroke-linejoin="round" x1="91" y1="83" x2="75" y2="83"/>
	</g>
</g>
<g id="Modifier_x5F_Remove" display="none">
	<circle display="inline" cx="83" cy="83" r="17"/>
	
		<line display="inline" fill="none" stroke="#FFFFFF" stroke-width="4" stroke-linecap="round" stroke-linejoin="round" x1="91" y1="83" x2="75" y2="83"/>
</g>
<g id="Modifier_x5F_Exclude" display="none">
	<circle display="inline" cx="83" cy="83" r="17"/>
	
		<line display="inline" fill="none" stroke="#FFFFFF" stroke-width="4" stroke-linecap="round" stroke-linejoin="round" x1="89" y1="77" x2="77" y2="89"/>
	
		<line display="inline" fill="none" stroke="#FFFFFF" stroke-width="4" stroke-linecap="round" stroke-linejoin="round" x1="89" y1="89" x2="77" y2="77"/>
</g>
<g id="Modifier_x5F_Time" display="none">
	<circle display="inline" cx="83" cy="83" r="17"/>
	<g display="inline">
		<polyline fill="none" stroke="#FFFFFF" stroke-width="4" stroke-linecap="round" stroke-linejoin="round" points="83,75 83,85 
			90,88 		"/>
	</g>
</g>
<g id="_x2D_----------MODIFIER----------">
</g>
<g id="Layer_19">
	<g>
		<g>
			<g>
				<path d="M94.736,72.908H51.096c-2.258,0-4.096-1.837-4.096-4.096V34.096C47,31.838,48.837,30,51.096,30h43.434
					c1.104,0,2,0.896,2,2c0,1.104-0.896,2-2,2H51.096C51.048,34,51,34.047,51,34.096v34.716c0,0.048,0.048,0.096,0.096,0.096h43.641
					c1.104,0,2,0.896,2,2S95.841,72.908,94.736,72.908z"/>
			</g>
			<g>
				<path d="M45.05,98.43c-1.104,0-2-0.896-2-2V73.004c0-2.259,1.837-4.096,4.096-4.096h47.59c1.104,0,2,0.896,2,2s-0.896,2-2,2
					h-47.59c-0.048,0-0.096,0.048-0.096,0.096V96.43C47.05,97.535,46.154,98.43,45.05,98.43z"/>
			</g>
			<g>
				<path d="M94.736,72.908H40.446c-1.104,0-2-0.896-2-2s0.896-2,2-2h54.291c1.104,0,2,0.896,2,2S95.841,72.908,94.736,72.908z"/>
			</g>
			<g>
				<path d="M56.893,95.64c-1.104,0-2-0.896-2-2V81.643c0-1.694,1.379-3.073,3.073-3.073h24.37c1.104,0,2,0.896,2,2s-0.896,2-2,2
					H58.893v11.07C58.893,94.745,57.997,95.64,56.893,95.64z"/>
			</g>
		</g>
		<g>
			<g>
				<g>
					<path d="M50,100.007c-1.983,0-3.966-0.496-5.774-1.488l-35-19.214C5.385,77.198,3,73.167,3,68.786V31.214
						c0-4.379,2.385-8.41,6.224-10.519l35-19.214c3.617-1.985,7.935-1.985,11.55,0l35,19.213C94.614,22.802,97,26.833,97,31.214
						v37.572c0,4.379-2.385,8.409-6.224,10.52l-35,19.214C53.968,99.511,51.983,100.007,50,100.007z M50,3.995
						c-1.322,0-2.645,0.331-3.851,0.993l-35,19.214C8.59,25.607,7,28.294,7,31.214v37.572c0,2.921,1.59,5.608,4.15,7.014l35,19.214
						c2.41,1.322,5.289,1.323,7.701-0.001l34.999-19.213C91.41,74.393,93,71.706,93,68.786V31.214c0-2.92-1.591-5.608-4.15-7.013
						L53.849,4.987C52.645,4.326,51.322,3.995,50,3.995z"/>
				</g>
			</g>
			<g>
				<path fill="none" d="M5,35.987"/>
			</g>
		</g>
		<g>
			<g>
				<path d="M72.767,53.831c-4.693,0-8.512-3.818-8.512-8.512c0-4.694,3.818-8.512,8.512-8.512c4.694,0,8.513,3.818,8.513,8.512
					C81.279,50.012,77.461,53.831,72.767,53.831z M72.767,40.807c-2.487,0-4.512,2.024-4.512,4.512c0,2.488,2.024,4.512,4.512,4.512
					c2.488,0,4.513-2.024,4.513-4.512C77.279,42.831,75.255,40.807,72.767,40.807z"/>
			</g>
			<g>
				<path d="M84.344,72.638c-1.104,0-2-0.896-2-2v-6.027c0-2.111-2.367-3.896-5.169-3.896H68.36c-2.998,0-5.169,2.327-5.169,3.896
					v6.027c0,1.104-0.896,2-2,2s-2-0.896-2-2v-6.027c0-4.132,4.37-7.896,9.169-7.896h8.814c5.056,0,9.169,3.542,9.169,7.896v6.027
					C86.344,71.743,85.448,72.638,84.344,72.638z"/>
			</g>
		</g>
		<g>
			<path d="M93.596,34H51.404C48.976,34,47,32.025,47,29.596V15.404C47,12.976,48.976,11,51.404,11h21.167c1.104,0,2,0.896,2,2
				s-0.896,2-2,2H51.404C51.186,15,51,15.185,51,15.404v14.192C51,29.815,51.186,30,51.404,30h42.191
				c0.053,0,0.104-0.011,0.153-0.032c1.021-0.431,2.191,0.045,2.622,1.062c0.431,1.017-0.045,2.191-1.062,2.622
				C94.764,33.883,94.187,34,93.596,34z"/>
		</g>
		<g>
			<g>
				<path d="M25.226,74.121c-2.066,0-4.137-0.588-5.828-1.986c-2.811-2.326-3.13-5.672-3.166-6.319
					c-0.169-3.14,1.43-6.493,4.278-8.974c2.767-2.41,6.082-3.452,9.095-2.873l0,0c2.661,0.517,5.071,2.326,6.289,4.725
					c2.46,4.842-0.269,10.931-4.362,13.579C29.781,73.405,27.506,74.121,25.226,74.121z M27.956,57.812
					c-1.565,0-3.308,0.729-4.819,2.046c-1.897,1.652-3.013,3.852-2.911,5.74c0.005,0.085,0.135,2.142,1.721,3.454
					c2.05,1.696,5.35,1.194,7.413-0.139c2.572-1.664,4.388-5.614,2.968-8.409c-0.662-1.303-2.029-2.327-3.484-2.608c0,0,0,0,0-0.001
					C28.556,57.839,28.259,57.812,27.956,57.812z"/>
			</g>
			<g>
				<path d="M34.11,60.375c-0.546,0-1.091-0.223-1.486-0.66c-0.74-0.82-0.674-2.085,0.146-2.825
					c0.092-0.083,2.257-2.065,1.822-4.228c-0.118-0.591-0.361-1.086-0.723-1.473c-0.564-0.604-1.217-0.704-2.522-0.855
					c-1.213-0.141-2.724-0.315-4.32-1.205c-2.049-1.143-3.59-3.152-4.578-5.973c-0.366-1.042,0.183-2.184,1.226-2.549
					c1.043-0.367,2.183,0.183,2.549,1.226c0.665,1.896,1.565,3.14,2.752,3.802c0.9,0.501,1.795,0.605,2.832,0.726
					c1.512,0.175,3.394,0.393,4.986,2.1c0.875,0.938,1.455,2.086,1.721,3.414c0.846,4.207-2.405,7.391-3.065,7.986
					C35.067,60.205,34.588,60.375,34.11,60.375z"/>
			</g>
			<g>
				<path d="M24.447,44.323c-0.072,0-0.146-0.004-0.218-0.012c-1.065-0.117-6.508-0.942-9.102-5.714
					c-2.722-5.009-0.906-11.668,4.224-15.489c0.575-0.428,1.335-0.516,1.992-0.23c0.663,0.288,6.513,3.007,7.734,9.682
					c1.094,5.978-2.42,10.29-3.136,11.094C25.559,44.082,25.014,44.323,24.447,44.323z M20.791,27.119
					c-2.771,2.66-3.73,6.66-2.15,9.568c1.207,2.22,3.567,3.108,4.96,3.45c0.842-1.261,2.106-3.766,1.54-6.858
					C24.532,29.947,22.182,28.002,20.791,27.119z"/>
			</g>
			<g>
				<path d="M26.031,66.498c-0.195,0-0.391-0.006-0.586-0.017c-1.103-0.063-1.946-1.008-1.883-2.11
					c0.062-1.104,1.016-1.932,2.11-1.884c0.754,0.044,2.251-0.02,3.723-0.927c1.892-1.168,2.583-3,2.792-3.733
					c0.303-1.062,1.412-1.677,2.471-1.376c1.062,0.303,1.678,1.409,1.375,2.472c-0.337,1.183-1.453,4.138-4.538,6.042
					C29.878,65.962,27.958,66.498,26.031,66.498z"/>
			</g>
		</g>
	</g>
</g>
</svg>
