<svg width="74" height="79" viewBox="0 0 74 79" fill="none" xmlns="http://www.w3.org/2000/svg">
<path d="M72 54.175V24.825C72 21.9735 70.4523 19.3487 67.9634 17.9737L40.7411 2.96675C38.4078 1.67775 35.5844 1.67775 33.2589 2.96675L6.03667 17.9737C3.54778 19.3487 2 21.9735 2 24.825V54.175C2 57.0265 3.54778 59.6513 6.03667 61.0263L33.2589 76.0333C35.5922 77.3223 38.4156 77.3223 40.7411 76.0333L67.9634 61.0263C70.4523 59.6513 72 57.0265 72 54.175Z" stroke="black" stroke-width="4" stroke-linecap="round" stroke-linejoin="round"/>
<path d="M40.6591 69.1316H34.2955C33.4205 69.1316 32.7045 68.4499 32.7045 67.6166C32.7045 66.7833 33.4205 66.1016 34.2955 66.1016H40.6591C41.5341 66.1016 42.25 66.7833 42.25 67.6166C42.25 68.4499 41.5341 69.1316 40.6591 69.1316Z" fill="black"/>
<path d="M60.8636 60.0415H35.4091C34.5341 60.0415 33.8182 59.3598 33.8182 58.5265C33.8182 57.6932 34.5341 57.0115 35.4091 57.0115H60.8636C61.7386 57.0115 62.4545 57.6932 62.4545 58.5265C62.4545 59.3598 61.7386 60.0415 60.8636 60.0415Z" fill="black"/>
<path d="M29.0454 60.0415H13.1363C12.2613 60.0415 11.5454 59.3598 11.5454 58.5265C11.5454 57.6932 12.2613 57.0115 13.1363 57.0115H29.0454C29.9204 57.0115 30.6363 57.6932 30.6363 58.5265C30.6363 59.3598 29.9204 60.0415 29.0454 60.0415Z" fill="black"/>
<path d="M66.4318 50.9512H7.56816C6.69316 50.9512 5.97725 50.2694 5.97725 49.4362C5.97725 48.6029 6.69316 47.9211 7.56816 47.9211H66.4318C67.3068 47.9211 68.0227 48.6029 68.0227 49.4362C68.0227 50.2694 67.3068 50.9512 66.4318 50.9512Z" fill="black"/>
<path d="M37 49.815C36.125 49.815 35.4091 49.1332 35.4091 48.2999V37.0888C35.4091 36.2555 36.125 35.5737 37 35.5737C37.875 35.5737 38.5909 36.2555 38.5909 37.0888V48.2999C38.5909 49.1332 37.875 49.815 37 49.815Z" fill="black"/>
<path d="M40.5 38.3767C39.1477 38.3767 37.875 37.8465 36.9205 36.9375C35.6477 35.7254 35.0909 33.9074 35.5682 32.1651C36.4432 29.1351 37.7955 26.711 39.7841 24.893C44.7955 20.1207 52.5909 20.1207 52.9091 20.1964C53.7841 20.1964 54.5 20.8782 54.5 21.7114C54.5 22.0145 54.5 29.5138 49.4886 34.2104C47.5796 36.0284 44.9546 37.392 41.8523 38.2252C41.4546 38.301 40.9773 38.3767 40.5 38.3767ZM51.2387 23.378C48.9318 23.6052 44.875 24.4385 42.0909 27.0898C40.5796 28.5291 39.4659 30.5743 38.75 32.9984C38.5909 33.6802 38.75 34.3619 39.2273 34.8164C39.7046 35.2709 40.4205 35.4982 41.1364 35.2709C43.7614 34.5892 45.8296 33.5286 47.3409 32.0894C50.0455 29.4381 50.9205 25.5748 51.2387 23.378Z" fill="black"/>
<path d="M34.5341 42.8458C34.1364 42.8458 33.8182 42.7701 33.4204 42.6943C31.1136 42.0125 29.2045 40.8763 27.8523 39.3613C24.2727 35.4979 24.2727 29.4378 24.2727 29.2106C24.2727 28.3773 24.9886 27.6956 25.8636 27.6956C26.1023 27.6956 31.8295 27.6956 35.4886 31.6346C36.8409 33.1497 37.875 35.1192 38.5114 37.5432C38.9091 39.134 38.4318 40.7248 37.2386 41.7853C36.4432 42.5428 35.4886 42.8458 34.5341 42.8458ZM27.6136 30.9529C27.8523 32.6951 28.4886 35.4979 30.2386 37.3917C31.2727 38.528 32.625 39.2855 34.375 39.8158C34.4545 39.8158 34.6932 39.8915 35.0114 39.6643C35.25 39.437 35.4886 38.9067 35.4091 38.3007C34.9318 36.3312 34.1364 34.8162 33.1023 33.6799C31.4318 31.9376 29.125 31.1801 27.6136 30.9529Z" fill="black"/>
</svg>
