<svg width="80" height="80" viewBox="0 0 80 80" fill="none" xmlns="http://www.w3.org/2000/svg">
<path d="M40 80C38.4 80 36.8 79.6 35.36 78.8L7.36 63.44C4.32 61.76 2.4 58.56 2.4 55.04V24.96C2.4 21.44 4.32 18.24 7.36 16.56L35.36 1.2C38.24 -0.4 41.68 -0.4 44.56 1.2L72.56 16.56C75.6 18.24 77.52 21.44 77.52 24.96V55.04C77.52 58.56 75.6 61.76 72.56 63.44L44.56 78.8C43.2 79.6 41.6 80 40 80ZM40 3.2C38.96 3.2 37.92 3.44 36.88 4L8.88 19.36C6.8 20.48 5.6 22.64 5.6 24.96V55.04C5.6 57.36 6.88 59.52 8.88 60.64L36.88 76C38.8 77.04 41.12 77.04 43.04 76L71.04 60.64C73.12 59.52 74.4 57.36 74.4 55.04V24.96C74.4 22.64 73.12 20.48 71.04 19.36L43.04 4C42.08 3.44 41.04 3.2 40 3.2Z" fill="black"/>
<path d="M59 36.6194C59 33.7348 56.7454 31.3892 53.9426 31.3337C53.8268 25.6042 49.6341 21 44.4687 21C40.8165 21 37.6431 23.306 36.068 26.6898C35.6433 26.6106 35.2033 26.571 34.7554 26.571C31.5048 26.571 28.7329 28.6551 27.6365 31.5951C27.4744 31.5793 27.3122 31.5713 27.1501 31.5713C24.3087 31.5713 22 33.9409 22 36.8572C22 39.7735 24.3087 42.1429 27.1501 42.1429L53.9195 42.0241C56.7223 41.9686 59 39.5119 59 36.6194Z" stroke="#221F1F" stroke-width="3" stroke-miterlimit="10"/>
<path d="M37.8571 46.3713L30.4571 59.0571" stroke="#221F1F" stroke-width="3" stroke-miterlimit="10" stroke-linecap="round"/>
<path d="M44.2 46.3713L36.8 59.0571" stroke="#221F1F" stroke-width="3" stroke-miterlimit="10" stroke-linecap="round"/>
<path d="M51.6 46.3713L44.2 59.0571" stroke="#221F1F" stroke-width="3" stroke-miterlimit="10" stroke-linecap="round"/>
<path d="M30.4571 46.3713L23.0571 59.0571" stroke="#221F1F" stroke-width="3" stroke-miterlimit="10" stroke-linecap="round"/>
</svg>
