<?xml version="1.0" encoding="UTF-8" standalone="no"?>
<!DOCTYPE svg PUBLIC "-//W3C//DTD SVG 1.1//EN" "http://www.w3.org/Graphics/SVG/1.1/DTD/svg11.dtd">
<svg width="100%" height="100%" viewBox="0 0 100 101" version="1.1" xmlns="http://www.w3.org/2000/svg" xmlns:xlink="http://www.w3.org/1999/xlink" xml:space="preserve" xmlns:serif="http://www.serif.com/" style="fill-rule:evenodd;clip-rule:evenodd;stroke-linejoin:round;stroke-miterlimit:2;">
    <g transform="matrix(1,0,0,1,-1898,-1103)">
        <g id="RAINWATERCOLLECTION-Hendi_Perkasa" transform="matrix(0.325733,0,0,0.25974,1752.07,953.446)">
            <rect x="448" y="577" width="307" height="385" style="fill:none;"/>
            <clipPath id="_clip1">
                <rect x="448" y="577" width="307" height="385"/>
            </clipPath>
            <g clip-path="url(#_clip1)">
                <g transform="matrix(3.07,0,0,3.85,-7205.51,-3670.77)">
                    <path d="M2590,1172.12L2590,1134.52C2590,1130.2 2587.61,1126.13 2583.78,1123.97C2583.78,1123.97 2583.77,1123.97 2583.76,1123.96L2548.76,1104.76C2548.76,1104.76 2548.75,1104.76 2548.74,1104.75C2545.15,1102.84 2540.85,1102.84 2537.26,1104.75C2537.25,1104.76 2537.24,1104.76 2537.24,1104.76L2502.24,1123.96C2502.23,1123.97 2502.23,1123.97 2502.22,1123.97C2498.39,1126.13 2496,1130.09 2496,1134.52L2496,1172.12C2496,1176.43 2498.39,1180.5 2502.22,1182.66C2502.23,1182.66 2502.23,1182.67 2502.24,1182.67L2537.24,1201.87C2537.24,1201.87 2537.25,1201.88 2537.26,1201.88C2540.85,1203.79 2545.15,1203.79 2548.74,1201.88C2548.75,1201.88 2548.76,1201.87 2548.76,1201.87L2583.76,1182.67C2583.77,1182.67 2583.78,1182.66 2583.78,1182.66C2587.61,1180.5 2590,1176.43 2590,1172.12ZM2523,1189.5L2539.15,1198.36C2541.56,1199.64 2544.44,1199.64 2546.85,1198.36L2563,1189.5L2563,1160.08C2559.02,1161.98 2551.56,1163.32 2543,1163.32C2534.44,1163.32 2526.98,1161.98 2523,1160.08L2523,1189.5ZM2544.52,1170.02C2544.14,1169.57 2543.58,1169.32 2543,1169.32C2542.42,1169.32 2541.86,1169.57 2541.48,1170.02C2541.48,1170.02 2538.41,1173.61 2536.56,1176.84C2535.6,1178.53 2535,1180.17 2535,1181.32C2535,1185.73 2538.59,1189.32 2543,1189.32C2547.41,1189.32 2551,1185.73 2551,1181.32C2551,1180.17 2550.41,1178.53 2549.44,1176.84C2547.59,1173.61 2544.52,1170.02 2544.52,1170.02ZM2585.32,1175.32L2573.57,1175.32C2573.32,1175.88 2572.97,1176.4 2572.53,1176.84C2571.58,1177.79 2570.3,1178.32 2568.96,1178.32L2567,1178.32L2567,1187.3L2581.83,1179.17C2583.4,1178.28 2584.62,1176.91 2585.32,1175.32ZM2515.48,1121.26L2504.17,1127.46C2501.61,1128.91 2500,1131.55 2500,1134.52C2500,1134.52 2500,1172.12 2500,1172.12C2500,1175 2501.61,1177.72 2504.17,1179.17L2519,1187.3L2519,1169.32L2514,1169.32L2514,1171.32C2514,1172.42 2513.11,1173.32 2512,1173.32L2506,1173.32C2504.89,1173.32 2504,1172.42 2504,1171.32L2504,1167.26C2504,1163.19 2507.06,1159.84 2511,1159.37C2511,1159.37 2511,1157.32 2511,1157.32C2509.9,1157.32 2509,1156.42 2509,1155.32C2509,1154.21 2509.9,1153.32 2511,1153.32L2515,1153.32C2516.1,1153.32 2517,1154.21 2517,1155.32C2517,1156.42 2516.1,1157.32 2515,1157.32L2515,1159.32L2519,1159.32C2519,1159.32 2519,1155.32 2519,1155.32C2519,1153.77 2520.09,1152.07 2522.53,1150.79C2526.37,1148.77 2534.09,1147.32 2543,1147.32C2551.91,1147.32 2559.63,1148.77 2563.47,1150.79C2565.91,1152.07 2567,1153.77 2567,1155.32L2567,1158.32L2568.96,1158.32C2570.3,1158.32 2571.58,1158.85 2572.53,1159.79C2572.97,1160.24 2573.32,1160.75 2573.57,1161.32L2586,1161.32L2586,1134.52C2586,1131.63 2584.39,1128.91 2581.83,1127.46L2572.63,1122.42C2570.66,1125.01 2568.35,1126.61 2565.72,1127.13C2562.95,1127.67 2559.74,1127.02 2556.05,1124.74C2553.66,1126.3 2551.49,1126.95 2549.49,1127C2546.85,1127.06 2544.45,1126.06 2542.21,1124.46C2539.75,1128.27 2535.19,1129.76 2531.14,1129.03C2528.52,1128.56 2526.13,1127.18 2524.62,1124.95C2522.38,1125.78 2520.3,1125.65 2518.7,1124.88C2517.25,1124.19 2516.1,1122.96 2515.48,1121.26ZM2543,1174.5C2543.93,1175.69 2545.1,1177.3 2545.97,1178.83C2546.52,1179.79 2547,1180.66 2547,1181.32C2547,1183.52 2545.21,1185.32 2543,1185.32C2540.79,1185.32 2539,1183.52 2539,1181.32C2539,1180.66 2539.48,1179.79 2540.03,1178.83C2540.9,1177.3 2542.07,1175.69 2543,1174.5ZM2507,1176.82L2507,1177.82C2507,1178.92 2507.9,1179.82 2509,1179.82C2510.1,1179.82 2511,1178.92 2511,1177.82L2511,1176.82C2511,1175.71 2510.1,1174.82 2509,1174.82C2507.9,1174.82 2507,1175.71 2507,1176.82ZM2567,1162.32L2567,1174.32L2568.96,1174.32C2569.24,1174.32 2569.5,1174.21 2569.7,1174.01C2569.89,1173.82 2570,1173.56 2570,1173.28L2570,1163.35C2570,1163.08 2569.89,1162.81 2569.7,1162.62C2569.5,1162.42 2569.24,1162.32 2568.96,1162.32L2567,1162.32ZM2586,1171.32L2586,1165.32L2574,1165.32L2574,1171.32L2586,1171.32ZM2519,1163.32L2511.94,1163.32C2509.76,1163.32 2508,1165.08 2508,1167.26C2508,1167.26 2508,1169.32 2508,1169.32C2508,1169.32 2510,1169.32 2510,1169.32L2510,1167.32C2510,1166.21 2510.89,1165.32 2512,1165.32L2519,1165.32L2519,1163.32ZM2562.94,1155.32C2562.86,1155.41 2562.73,1155.57 2562.61,1155.66C2562.02,1156.15 2561.14,1156.58 2560.06,1156.98C2556.21,1158.41 2550,1159.32 2543,1159.32C2536,1159.32 2529.79,1158.41 2525.94,1156.98C2524.86,1156.58 2523.98,1156.15 2523.39,1155.66C2523.27,1155.57 2523.14,1155.41 2523.06,1155.32C2523.14,1155.22 2523.27,1155.07 2523.39,1154.97C2523.98,1154.48 2524.86,1154.05 2525.94,1153.65C2529.79,1152.22 2536,1151.32 2543,1151.32C2550,1151.32 2556.21,1152.22 2560.06,1153.65C2561.14,1154.05 2562.02,1154.48 2562.61,1154.97C2562.73,1155.07 2562.86,1155.22 2562.94,1155.32ZM2524.71,1138.42L2523.71,1140.42C2523.22,1141.41 2523.62,1142.61 2524.61,1143.11C2525.59,1143.6 2526.8,1143.2 2527.29,1142.21L2528.29,1140.21C2528.78,1139.22 2528.38,1138.02 2527.39,1137.53C2526.41,1137.03 2525.2,1137.43 2524.71,1138.42ZM2556.21,1138.42L2555.21,1140.42C2554.72,1141.41 2555.12,1142.61 2556.11,1143.11C2557.09,1143.6 2558.3,1143.2 2558.79,1142.21L2559.79,1140.21C2560.28,1139.22 2559.88,1138.02 2558.89,1137.53C2557.91,1137.03 2556.7,1137.43 2556.21,1138.42ZM2545.71,1138.42L2544.71,1140.42C2544.22,1141.41 2544.62,1142.61 2545.61,1143.11C2546.59,1143.6 2547.8,1143.2 2548.29,1142.21L2549.29,1140.21C2549.78,1139.22 2549.38,1138.02 2548.39,1137.53C2547.41,1137.03 2546.2,1137.43 2545.71,1138.42ZM2535.21,1138.42L2534.21,1140.42C2533.72,1141.41 2534.12,1142.61 2535.11,1143.11C2536.09,1143.6 2537.3,1143.2 2537.79,1142.21L2538.79,1140.21C2539.28,1139.22 2538.88,1138.02 2537.89,1137.53C2536.91,1137.03 2535.7,1137.43 2535.21,1138.42ZM2541.71,1132.42L2540.71,1134.42C2540.22,1135.41 2540.62,1136.61 2541.61,1137.11C2542.59,1137.6 2543.8,1137.2 2544.29,1136.21L2545.29,1134.21C2545.78,1133.22 2545.38,1132.02 2544.39,1131.53C2543.41,1131.03 2542.2,1131.43 2541.71,1132.42ZM2531.21,1132.42L2530.21,1134.42C2529.72,1135.41 2530.12,1136.61 2531.11,1137.11C2532.09,1137.6 2533.3,1137.2 2533.79,1136.21L2534.79,1134.21C2535.28,1133.22 2534.88,1132.02 2533.89,1131.53C2532.91,1131.03 2531.7,1131.43 2531.21,1132.42ZM2552.21,1132.42L2551.21,1134.42C2550.72,1135.41 2551.12,1136.61 2552.11,1137.11C2553.09,1137.6 2554.3,1137.2 2554.79,1136.21L2555.79,1134.21C2556.28,1133.22 2555.88,1132.02 2554.89,1131.53C2553.91,1131.03 2552.7,1131.43 2552.21,1132.42ZM2569.08,1120.47L2546.85,1108.28C2544.44,1107 2541.56,1107 2539.15,1108.28L2519.08,1119.28C2519.26,1120.23 2519.71,1120.93 2520.43,1121.28C2521.5,1121.79 2522.93,1121.52 2524.48,1120.6C2524.99,1120.3 2525.6,1120.23 2526.16,1120.43C2526.72,1120.62 2527.16,1121.06 2527.37,1121.62C2528.11,1123.6 2529.89,1124.75 2531.84,1125.1C2534.89,1125.64 2538.44,1124.26 2539.6,1120.7C2539.81,1120.06 2540.33,1119.56 2540.98,1119.38C2541.63,1119.21 2542.33,1119.38 2542.83,1119.83C2544.85,1121.63 2546.92,1123.06 2549.39,1123C2551.03,1122.96 2552.79,1122.26 2554.78,1120.73C2555.48,1120.2 2556.43,1120.18 2557.14,1120.67C2560.18,1122.79 2562.73,1123.64 2564.95,1123.2C2566.53,1122.89 2567.88,1121.92 2569.08,1120.47Z"/>
                </g>
            </g>
        </g>
    </g>
</svg>
