<?xml version="1.0" encoding="utf-8"?>
<!-- Generator: Adobe Illustrator 25.3.1, SVG Export Plug-In . SVG Version: 6.00 Build 0)  -->
<svg version="1.1" id="Layer_1" xmlns="http://www.w3.org/2000/svg" xmlns:xlink="http://www.w3.org/1999/xlink" x="0px" y="0px"
	 viewBox="0 0 100 100" style="enable-background:new 0 0 100 100;" xml:space="preserve">
<g id="Cycle_x5F_Hexagon">
	<path d="M50,100c-2,0-3.9-0.5-5.7-1.4L9.8,79.7C5.6,77.3,3,72.8,3,68V32c0-4.8,2.6-9.3,6.8-11.6L29,9.8c1-0.5,2.2-0.2,2.7,0.8
		c0.5,1,0.2,2.2-0.8,2.7L11.8,23.9C8.8,25.5,7,28.6,7,32v36c0,3.4,1.8,6.5,4.8,8.2L46.2,95c2.4,1.3,5.3,1.3,7.7,0l6.2-3.4
		c1-0.5,2.2-0.2,2.7,0.8c0.5,1,0.2,2.2-0.8,2.7l-6.2,3.4C54,99.5,52,100,50,100z"/>
	<path d="M26.3,25.4c-0.2,0-0.4,0-0.6-0.1c-1.1-0.3-1.6-1.5-1.3-2.5l3.1-9.9l-9.7-3.1c-1.1-0.3-1.6-1.5-1.3-2.5
		C16.8,6.2,18,5.7,19,6l11.6,3.7c1,0.3,1.6,1.5,1.3,2.5L28.2,24C27.9,24.9,27.2,25.4,26.3,25.4z"/>
	<g>
		<path d="M69.9,90.5c-0.7,0-1.4-0.4-1.8-1c-0.5-1-0.2-2.2,0.8-2.7l19.2-10.6c2.9-1.6,4.8-4.8,4.8-8.1V32c0-3.4-1.8-6.5-4.8-8.2
			L53.7,5.1c-2.4-1.3-5.3-1.3-7.7,0l-6.2,3.4c-1,0.5-2.2,0.2-2.7-0.8c-0.5-1-0.2-2.2,0.8-2.7l6.2-3.4c3.6-1.9,7.9-1.9,11.5,0
			l34.4,18.8c4.2,2.3,6.8,6.8,6.8,11.7v36c0,4.9-2.6,9.4-6.8,11.7L70.9,90.3C70.6,90.4,70.2,90.5,69.9,90.5z"/>
		<path d="M81.5,94.2c-0.2,0-0.4,0-0.6-0.1l-11.6-3.7c-1-0.3-1.6-1.5-1.3-2.5l3.7-11.8c0.3-1.1,1.5-1.6,2.5-1.3
			c1.1,0.3,1.6,1.5,1.3,2.5l-3.1,9.9l9.7,3.1c1.1,0.3,1.6,1.5,1.3,2.5C83.1,93.7,82.3,94.2,81.5,94.2z"/>
	</g>
	<path d="M81.5,94.2c-0.2,0-0.4,0-0.6-0.1l-11.6-3.7c-1-0.3-1.6-1.5-1.3-2.5l3.7-11.8c0.3-1.1,1.5-1.6,2.5-1.3
		c1.1,0.3,1.6,1.5,1.3,2.5l-3.1,9.9l9.7,3.1c1.1,0.3,1.6,1.5,1.3,2.5C83.1,93.7,82.3,94.2,81.5,94.2z"/>
</g>
<g id="Your_Icon">
	<path d="M46,83H33c-1.1,0-2-0.9-2-2s0.9-2,2-2h13c1.1,0,2,0.9,2,2S47.1,83,46,83z"/>
	<path d="M62,83h-8c-1.1,0-2-0.9-2-2s0.9-2,2-2h8c1.1,0,2,0.9,2,2S63.1,83,62,83z"/>
	<path d="M80,71H48c-1.1,0-2-0.9-2-2s0.9-2,2-2h32c1.1,0,2,0.9,2,2S81.1,71,80,71z"/>
	<path d="M40,71H20c-1.1,0-2-0.9-2-2s0.9-2,2-2h20c1.1,0,2,0.9,2,2S41.1,71,40,71z"/>
	<path d="M87,59H13c-1.1,0-2-0.9-2-2s0.9-2,2-2h74c1.1,0,2,0.9,2,2S88.1,59,87,59z"/>
	<g>
		<path d="M50,57.5c-1.1,0-2-0.9-2-2V40.7c0-1.1,0.9-2,2-2s2,0.9,2,2v14.8C52,56.6,51.1,57.5,50,57.5z"/>
		<path d="M54.4,42c-1.6,0-3.2-0.6-4.4-1.8c-1.7-1.6-2.4-4-1.8-6.3c1.1-4.1,2.9-7.3,5.2-9.7C59.7,18,69.6,18,70,18c1.1,0,2,0.9,2,2
			c0,0.4,0,10.3-6.3,16.5c-3,3.1-6.9,4.5-9.6,5.2C55.5,41.9,55,42,54.4,42z M67.9,22.1c-2.9,0.3-8.1,1.4-11.6,4.9
			c-1.8,1.8-3.3,4.5-4.2,7.8c-0.2,0.9,0.1,1.8,0.7,2.4c0.6,0.6,1.5,0.8,2.3,0.6c0,0,0,0,0.1,0c2.2-0.5,5.4-1.7,7.7-4.1
			C66.4,30.2,67.5,25,67.9,22.1z"/>
		<path d="M46.9,48c-0.5,0-0.9-0.1-1.4-0.2c-2.9-0.9-5.3-2.4-7-4.4C34.1,38.3,34,30.3,34,30c0-1.1,0.9-2,2-2c0.3,0,7.6-0.1,12.1,5.2
			c2.2,2.6,3.3,5.7,3.7,7.9c0.5,2.1-0.2,4.3-1.7,5.6C49.3,47.6,48.1,48,46.9,48z M38.2,32.2c0.3,2.3,1.1,6,3.3,8.6
			c1.3,1.5,3,2.5,5.2,3.2c0.1,0,0.4,0.1,0.8-0.2c0.3-0.3,0.7-1,0.5-1.8c0,0,0,0,0,0c-0.4-1.7-1.2-4.1-2.9-6.1
			C43.1,33.5,40.2,32.6,38.2,32.2z"/>
	</g>
</g>
</svg>
