<?xml version="1.0" encoding="utf-8"?>
<!-- Generator: Adobe Illustrator 25.4.1, SVG Export Plug-In . SVG Version: 6.00 Build 0)  -->
<svg version="1.1" id="Layer_1" xmlns="http://www.w3.org/2000/svg" xmlns:xlink="http://www.w3.org/1999/xlink" x="0px" y="0px"
	 viewBox="0 0 100 100" enable-background="new 0 0 100 100" xml:space="preserve">
<g>
	<path fill="#231F20" d="M90.7,20.7l-35-19.2c-3.6-2-7.9-2-11.5,0l-35,19.2C5.4,22.8,3,26.8,3,31.2v37.6c0,4.4,2.4,8.4,6.2,10.5
		l35,19.2c1.8,1,3.8,1.5,5.8,1.5s4-0.5,5.7-1.5l35-19.2c3.8-2.1,6.2-6.1,6.2-10.5V31.2C96.9,26.8,94.5,22.8,90.7,20.7z M92.9,68.8
		c0,2.9-1.5,5.6-4.1,7L53.8,95c-2.4,1.3-5.3,1.3-7.7,0l-35-19.2c-2.5-1.4-4.1-4.1-4.1-7V31.2c0-2.9,1.5-5.6,4.1-7L46.1,5
		c1.3-0.7,2.6-1,3.9-1s2.6,0.3,3.8,1l34.9,19.2c2.6,1.4,4.2,4.1,4.2,7V68.8z"/>
	<path fill="#231F20" d="M82.8,41h-8.84c0.123-1.699-0.273-3.409-1.26-5c1.8-2.9,1.7-6.2-0.1-9.1c-2.1-3.4-6.2-5.4-10-4.8
		c-2.1,0.1-4.2,1-6.5,2.7c-4.6-3.6-8.5-3.6-13.2,0c-2.3-1.8-4.4-2.6-6.5-2.7c-3.7-0.6-7.8,1.4-10,4.8c-1.8,2.9-1.9,6.2-0.1,9.1
		c-0.987,1.591-1.383,3.301-1.26,5H16c-1.1,0-2.1,0.5-2.8,1.4c-0.7,0.9-1,2-0.7,3.1c1.2,4.4,5.1,7.5,9.7,7.5h7.921
		c0.022,0.269,0.047,0.537,0.079,0.8c0.3,2.4,0.9,4.1,1.5,5.8c0.4,1.1,0.8,2.2,1.1,3.6c0.6,2.4,1.2,5.6,1.8,9.4
		c1,6,6.1,10.4,12.1,10.4h6.8c5.9,0,11.1-4.5,12.1-10.5c0.6-4,1.2-7.4,1.8-9.9c0.3-1.3,0.7-2.4,1-3.5c0.5-1.6,1-3.2,1.3-5.5
		c0.029-0.198,0.055-0.398,0.08-0.6h6.62c4.6,0,8.5-2.9,9.9-7.3c0.3-1.1,0.1-2.2-0.6-3.2S84,41,82.8,41z M29.8,34.2
		c-1.4-2.2-0.9-4-0.1-5.2c1.2-1.8,3.4-3,5.4-3c0.3,0,0.5,0,0.6,0c0.1,0,0.3,0,0.4,0c1.3,0,2.8,0.8,4.6,2.2c1.1,0.9,2.8,0.9,3.9,0
		c1.8-1.5,3.4-2.2,4.7-2.2c1.3,0,2.9,0.7,4.7,2.2c1.1,0.9,2.8,0.9,3.9,0c1.8-1.4,3.3-2.2,4.6-2.2c0.2,0,0.3,0,0.5,0
		c2.2-0.3,4.8,1,6.1,3c0.8,1.2,1.4,3.1-0.1,5.2c-0.7,1.1-0.7,2.5,0,3.6c1.4,2.2,0.8,4,0.1,5.2c-1.3,2.1-3.9,3.3-6.1,3
		c-0.1,0-0.2,0-0.4,0c-1.3,0-2.8-0.8-4.6-2.2c-1.1-0.9-2.8-0.9-3.9,0c-1.8,1.5-3.4,2.2-4.7,2.2c-1.3,0-2.9-0.7-4.7-2.2
		c-1.1-0.9-2.8-0.9-3.9,0c-1.7,1.4-3.3,2.2-4.6,2.2c-0.1,0-0.3,0-0.4,0c-2.2,0.3-4.8-1-6.1-3c-0.8-1.2-1.4-3.1,0.1-5.2
		C30.5,36.7,30.5,35.3,29.8,34.2z M16.6,45h9.746c0.02,0.033,0.033,0.067,0.054,0.1c0.923,1.457,2.203,2.648,3.662,3.494
		c-0.005,0.132-0.01,0.266-0.015,0.406H22.2C19.7,49,17.4,47.4,16.6,45z M64.6,57.9c-0.4,1.1-0.8,2.3-1.1,3.8
		c-0.6,2.6-1.3,6-1.9,10.2C61,76,57.5,79,53.5,79H52v-1.871l2.7-1.929c0.9-0.7,1.1-1.9,0.5-2.8c-0.7-0.9-1.9-1.1-2.8-0.5
		l-2.399,1.713L47.1,71.8c-1-0.6-2.2-0.4-2.8,0.6c-0.6,1-0.3,2.2,0.6,2.8l3.1,1.938V79h-1.3c-4,0-7.4-3-8.1-7.1
		c-0.7-4-1.3-7.2-1.9-9.7c-0.4-1.6-0.8-2.9-1.2-4c-0.6-1.5-1.1-2.9-1.3-4.9c-0.151-1.091-0.188-2.296-0.176-3.374
		C34.382,49.968,34.741,50,35.1,50c0.5,0,0.9,0,1.3-0.1c2.1-0.1,4.2-1,6.5-2.7c4.6,3.6,8.5,3.6,13.2,0c2.3,1.8,4.4,2.7,6.5,2.7
		c1.118,0.181,2.272,0.122,3.4-0.139v0.895c-0.038,0.788-0.1,1.594-0.2,2.344C65.5,55,65.1,56.3,64.6,57.9z M76.4,49h-6.369
		c0.007-0.412,0.009-0.798,0.007-1.151c0.993-0.754,1.871-1.683,2.561-2.75c0.02-0.033,0.034-0.067,0.054-0.1H82.2
		C81.3,47.4,79,49,76.4,49z"/>
	<circle fill="#231F20" cx="58" cy="59" r="2"/>
	<circle fill="#231F20" cx="42" cy="59" r="2"/>
</g>
</svg>
