<?xml version="1.0" encoding="utf-8"?>
<!-- Generator: Adobe Illustrator 25.2.3, SVG Export Plug-In . SVG Version: 6.00 Build 0)  -->
<svg version="1.1" id="Layer_1" xmlns="http://www.w3.org/2000/svg" xmlns:xlink="http://www.w3.org/1999/xlink" x="0px" y="0px"
	 viewBox="0 0 100 100" style="enable-background:new 0 0 100 100;" xml:space="preserve">
<style type="text/css">
	.st0{display:none;}
	.st1{display:inline;}
	.st2{display:inline;fill:none;stroke:#000000;stroke-width:4;stroke-linecap:round;stroke-linejoin:round;}
	.st3{fill:none;stroke:#000000;stroke-width:4;stroke-linecap:round;stroke-linejoin:round;}
	.st4{display:inline;fill:none;stroke:#FFFFFF;stroke-width:4;stroke-linecap:round;stroke-linejoin:round;}
	.st5{fill:none;stroke:#FFFFFF;stroke-width:4;stroke-linecap:round;stroke-linejoin:round;}
</style>
<g id="Warning_x5F_Hexagon" class="st0">
	<path class="st1" d="M60.5,91.9L75.4,67l0,0c1.1-1.8,3-2.9,5.1-2.9s4,1.1,5.1,2.9l0,0l6.7,11.3c2.9-2.3,4.6-5.7,4.6-9.4V31.2
		c0-4.4-2.4-8.4-6.2-10.5l-35-19.2c-3.6-2-7.9-2-11.5,0l-35,19.2C5.4,22.8,3,26.8,3,31.2v37.6c0,4.4,2.4,8.4,6.2,10.5l35,19.2
		c1.8,1,3.8,1.5,5.8,1.5s4-0.5,5.8-1.5l4-2.2C59.4,94.8,59.6,93.2,60.5,91.9z"/>
	<path class="st1" d="M97.1,93.9L82.2,69c-0.8-1.3-2.6-1.3-3.4,0L63.9,94c-0.8,1.3,0.1,3,1.7,3h29.8C97,97,97.9,95.2,97.1,93.9z
		 M79,78c0-0.8,0.7-1.5,1.5-1.5S82,77.2,82,78v7c0,0.8-0.7,1.5-1.5,1.5S79,85.8,79,85V78z M80.5,93c-1.1,0-2-0.9-2-2s0.9-2,2-2
		s2,0.9,2,2S81.6,93,80.5,93z"/>
</g>
<g id="TopLeft_x5F_Gap_x5F_Hexagon" class="st0">
	<path class="st2" d="M5,32v36.7c0,3.6,2,7,5.2,8.8l35,19.2c3,1.6,6.6,1.6,9.6,0l35-19.2c3.2-1.8,5.2-5.1,5.2-8.8V31.2
		c0-3.6-2-7-5.2-8.8l-35-19.2c-3-1.6-6.6-1.6-9.6,0L22,16"/>
</g>
<g id="TopRight_x5F_Gap_x5F_Hexagon" class="st0">
	<path class="st2" d="M95,32v36.7c0,3.6-2,7-5.2,8.8l-35,19.2c-3,1.6-6.6,1.6-9.6,0l-35-19.2C7,75.8,5,72.4,5,68.8V31.2
		c0-3.6,2-7,5.2-8.8l35-19.2c3-1.6,6.6-1.6,9.6,0L78,16"/>
</g>
<g id="BottomRight_x5F_Gap_x5F_Hexagon" class="st0">
	<path class="st2" d="M95,68V31.2c0-3.6-2-7-5.2-8.8l-35-19.2c-3-1.6-6.6-1.6-9.6,0l-35,19.2C7,24.2,5,27.6,5,31.2v37.6
		c0,3.6,2,7,5.2,8.8l35,19.2c3,1.6,6.6,1.6,9.6,0L78,84"/>
</g>
<g id="BottomLeft_x5F_Gap_x5F_Hexagon" class="st0">
	<path class="st2" d="M5,68V31.2c0-3.6,2-7,5.2-8.8l35-19.2c3-1.6,6.6-1.6,9.6,0l35,19.2c3.2,1.8,5.2,5.1,5.2,8.8v37.6
		c0,3.6-2,7-5.2,8.8l-35,19.2c-3,1.6-6.6,1.6-9.6,0L22,84"/>
</g>
<g id="Cycle_x5F_Hexagon" class="st0">
	<path class="st2" d="M30,11.6L10.8,22.1C7.2,24.1,5,27.9,5,32v36c0,4.1,2.2,7.9,5.8,9.9l34.4,18.9c3,1.6,6.6,1.6,9.6,0l6.2-3.4"/>
	<polyline class="st2" points="18.4,7.9 30,11.6 26.3,23.4 	"/>
	<g class="st1">
		<path class="st3" d="M69.9,88.5l19.2-10.6c3.5-1.9,5.8-5.7,5.8-9.9V32c0-4.1-2.2-7.9-5.8-9.9L54.7,3.3c-3-1.6-6.6-1.6-9.6,0
			l-6.2,3.4"/>
		<polyline class="st3" points="81.5,92.2 69.9,88.5 73.6,76.7 		"/>
	</g>
	<polyline class="st2" points="81.5,92.2 69.9,88.5 73.6,76.7 	"/>
</g>
<g id="Default_x5F_Hexagon">
	<g id="Default">
		<path d="M50,100c-2,0-3.9-0.5-5.7-1.4l-35-19.2C5.4,77.2,3,73.1,3,68.8V31.2c0-4.3,2.4-8.4,6.2-10.5l35-19.2
			c3.6-1.9,7.9-1.9,11.5,0l35,19.2c3.9,2.2,6.2,6.2,6.2,10.6v37.6c0,4.3-2.4,8.4-6.2,10.5l-35,19.2C54,99.5,52,100,50,100z M50,4
			c-1.3,0-2.7,0.3-3.9,1l-35,19.2c-2.6,1.4-4.2,4.1-4.2,7v37.6c0,2.9,1.6,5.6,4.2,7.1l35,19.2c2.4,1.3,5.3,1.3,7.7,0l35-19.2
			c2.6-1.4,4.2-4.1,4.2-7V31.2c0-2.9-1.6-5.6-4.2-7.1L53.8,5C52.6,4.3,51.3,4,50,4z"/>
	</g>
</g>
<g id="_x2D_---SELECT_x5F_HEXAGON_x5F_STYLE----">
</g>
<g id="_x2D_-----------GRID------------" class="st0">
</g>
<g id="Your_Icon">
	<path d="M49.3,83h-13c-1.1,0-2-0.9-2-2s0.9-2,2-2h13c1.1,0,2,0.9,2,2S50.4,83,49.3,83z"/>
	<path d="M65.3,83h-8c-1.1,0-2-0.9-2-2s0.9-2,2-2h8c1.1,0,2,0.9,2,2S66.4,83,65.3,83z"/>
	<path d="M87,51.9H13c-1.1,0-2-0.9-2-2c0-1.1,0.9-2,2-2h74c1.1,0,2,0.9,2,2C89,51,88.1,51.9,87,51.9z"/>
	<path d="M67.6,61.8H44c-1.1,0-2-0.9-2-2s0.9-2,2-2h23.6c1.1,0,2,0.9,2,2S68.7,61.8,67.6,61.8z"/>
	<path d="M82.8,62.7c0.8-1.5-0.6-4.1-3.4-5.9c-1.9-1.3-3.9-1.9-5.2-1.5c-0.6,0.1-1,0.4-1.3,0.9c-0.8,1.5,0.6,4.1,3.4,5.9
		c1.5,1,3.2,1.6,4.4,1.6c0.3,0,0.5,0,0.8-0.1C82.1,63.4,82.6,63.1,82.8,62.7z"/>
	<path d="M13.9,55.7c-0.9,0.5-1.5,1.2-1.7,1.9c-0.2,0.5-0.1,1,0.2,1.5c0.4,0.7,1.2,1,2,1c0.6,0,1.2-0.2,1.8-0.5
		c0.9-0.4,1.5-1.2,1.7-1.9c0.2-0.5,0.1-1-0.2-1.5C17.1,55.2,15.4,54.9,13.9,55.7z"/>
	<path d="M42.2,72.4c0.7,1.2,2,1.8,3.3,1.8c0.6,0,1.3-0.1,1.8-0.4c0.9-0.5,1.6-1.3,1.8-2.2c0.2-0.9,0.1-1.8-0.4-2.7
		c-1-1.7-3.4-2.3-5.2-1.3c-0.9,0.5-1.6,1.3-1.8,2.2C41.5,70.6,41.7,71.6,42.2,72.4z"/>
	<path d="M78.7,66.1c-1.9,0.4-3.6,0.9-5.1,1.4c-2.6,0.8-4.6,1.4-6.3,1c-0.7-0.2-1.4-0.4-2.1-0.6c-2.6-0.8-5.3-1.6-9.5-0.6
		c-1.1,0.3-3.2,0.7-2.8,2.1c0.4,1.3,2.5,1.4,5.5,1.2c0.6,0.1,1.4,0.3,2.3,0.7c1.4,0.5,3.2,1.1,5.5,1.4C71.1,73.4,76,72,79,70.6
		c0.7-0.3,1-0.3,1-0.4c0.3,0.1,0.7,0.9,0.8,1.2c0.2,0.5,0.7,1.5,2.2,1.5c0,0,0,0,0.1,0c1.6,0,2-1.1,2.1-1.5c0.6-1.6-0.2-3.5-1.7-4.5
		C82.2,66,80.5,65.8,78.7,66.1z"/>
	<g>
		<path d="M27.9,78.9c-1.1,0-2-0.9-2-2v-4.5c0-1.1,0.9-2,2-2s2,0.9,2,2v4.5C29.9,78,29,78.9,27.9,78.9z"/>
		<path d="M27.9,64.5c-1.1,0-2-0.9-2-2v-3.6c0-1.1,0.9-2,2-2s2,0.9,2,2v3.6C29.9,63.6,29,64.5,27.9,64.5z"/>
		<path d="M36.5,69.4h-3.6c-1.1,0-2-0.9-2-2s0.9-2,2-2h3.6c1.1,0,2,0.9,2,2S37.6,69.4,36.5,69.4z"/>
		<path d="M32.9,67.4"/>
		<path d="M21.2,69.4h-6.4c-1.1,0-2-0.9-2-2s0.9-2,2-2h6.4c1.1,0,2,0.9,2,2S22.3,69.4,21.2,69.4z"/>
		<path d="M35.5,77c-0.5,0-1-0.2-1.4-0.6l-3-3c-0.8-0.8-0.8-2,0-2.8c0.8-0.8,2-0.8,2.8,0l3,3c0.8,0.8,0.8,2,0,2.8
			C36.5,76.8,36,77,35.5,77z"/>
		<path d="M31.2,70.7"/>
		<path d="M23.4,66.8c-0.5,0-1-0.2-1.4-0.6l-2.6-2.6c-0.8-0.8-0.8-2,0-2.8c0.8-0.8,2-0.8,2.8,0l2.6,2.6c0.8,0.8,0.8,2,0,2.8
			C24.4,66.6,23.9,66.8,23.4,66.8z"/>
		<path d="M31.4,65.9c-0.6,0-1.2-0.3-1.6-0.8c-0.7-0.9-0.5-2.1,0.4-2.8l4.4-3.4c0.9-0.7,2.1-0.5,2.8,0.4c0.7,0.9,0.5,2.1-0.4,2.8
			l-4.4,3.4C32.3,65.8,31.8,65.9,31.4,65.9z"/>
		<path d="M31.4,63.9"/>
		<path d="M21,76.4c-0.5,0-1-0.2-1.4-0.6c-0.8-0.8-0.8-2-0.1-2.8l2.5-2.6c0.8-0.8,2-0.8,2.8-0.1c0.8,0.8,0.8,2,0.1,2.8l-2.5,2.6
			C22,76.2,21.5,76.4,21,76.4z"/>
		<path d="M27.4,74.4c-4.1,0-7.5-2.8-7.5-6.2s3.4-6.2,7.5-6.2s7.5,2.8,7.5,6.2S31.5,74.4,27.4,74.4z M27.4,66
			c-2.1,0-3.5,1.2-3.5,2.2s1.4,2.2,3.5,2.2s3.5-1.2,3.5-2.2S29.5,66,27.4,66z"/>
	</g>
</g>
<g id="_x2D_-------INNER_x5F_ELEMENT--------">
</g>
<g id="Modifier_x5F_Check_1_" class="st0">
	<circle class="st1" cx="83" cy="83" r="17"/>
	<polyline class="st4" points="76,84 82,89 90,77 	"/>
</g>
<g id="Modifier_x5F_Add" class="st0">
	<circle class="st1" cx="83" cy="83" r="17"/>
	<g class="st1">
		<line class="st5" x1="83" y1="75" x2="83" y2="91"/>
		<line class="st5" x1="91" y1="83" x2="75" y2="83"/>
	</g>
</g>
<g id="Modifier_x5F_Remove" class="st0">
	<circle class="st1" cx="83" cy="83" r="17"/>
	<line class="st4" x1="91" y1="83" x2="75" y2="83"/>
</g>
<g id="Modifier_x5F_Exclude" class="st0">
	<circle class="st1" cx="83" cy="83" r="17"/>
	<line class="st4" x1="89" y1="77" x2="77" y2="89"/>
	<line class="st4" x1="89" y1="89" x2="77" y2="77"/>
</g>
<g id="Modifier_x5F_Time" class="st0">
	<circle class="st1" cx="83" cy="83" r="17"/>
	<g class="st1">
		<polyline class="st5" points="83,75 83,85 90,88 		"/>
	</g>
</g>
<g id="_x2D_----------MODIFIER----------">
</g>
</svg>
