<?xml version="1.0" encoding="utf-8"?>
<!-- Generator: Adobe Illustrator 25.3.1, SVG Export Plug-In . SVG Version: 6.00 Build 0)  -->
<svg version="1.1" id="Layer_1" xmlns="http://www.w3.org/2000/svg" xmlns:xlink="http://www.w3.org/1999/xlink" x="0px" y="0px"
	 viewBox="0 0 100 100" enable-background="new 0 0 100 100" xml:space="preserve">
<g id="Default_x5F_Hexagon">
	<g id="Default">
		<path d="M50,100c-2,0-4-0.5-5.8-1.5l-35-19.2C5.4,77.2,3,73.2,3,68.8V31.2c0-4.4,2.4-8.4,6.2-10.5l35-19.2c3.6-2,7.9-2,11.5,0
			l35,19.2c3.8,2.1,6.2,6.1,6.2,10.5v37.6c0,4.4-2.4,8.4-6.2,10.5l-35,19.2C54,99.5,52,100,50,100z M50,4c-1.3,0-2.6,0.3-3.9,1
			l-35,19.2c-2.6,1.4-4.1,4.1-4.1,7v37.6c0,2.9,1.6,5.6,4.1,7l35,19.2c2.4,1.3,5.3,1.3,7.7,0l35-19.2c2.6-1.4,4.2-4.1,4.2-7V31.2
			c0-2.9-1.6-5.6-4.2-7L53.8,5C52.6,4.3,51.3,4,50,4z"/>
	</g>
</g>
<g id="Your_Icon">
	<g id="Sunlight">
		<path d="M50,26c-1.1,0-2-0.9-2-2v-8c0-1.1,0.9-2,2-2s2,0.9,2,2v8C52,25.1,51.1,26,50,26z"/>
		<path d="M50,86c-1.1,0-2-0.9-2-2v-8c0-1.1,0.9-2,2-2s2,0.9,2,2v8C52,85.1,51.1,86,50,86z"/>
		<path d="M50,70c-11,0-20-9-20-20s9-20,20-20s20,9,20,20S61,70,50,70z M50,34c-8.8,0-16,7.2-16,16s7.2,16,16,16s16-7.2,16-16
			S58.8,34,50,34z"/>
		<path d="M84,52h-8c-1.1,0-2-0.9-2-2s0.9-2,2-2h8c1.1,0,2,0.9,2,2S85.1,52,84,52z"/>
		<path d="M24,52h-8c-1.1,0-2-0.9-2-2s0.9-2,2-2h8c1.1,0,2,0.9,2,2S25.1,52,24,52z"/>
		<path d="M68.4,33.6c-0.5,0-1-0.2-1.4-0.6c-0.8-0.8-0.8-2,0-2.8l5.7-5.7c0.8-0.8,2-0.8,2.8,0s0.8,2,0,2.8L69.8,33
			C69.4,33.4,68.9,33.6,68.4,33.6z"/>
		<path d="M26,76c-0.5,0-1-0.2-1.4-0.6c-0.8-0.8-0.8-2,0-2.8l5.7-5.7c0.8-0.8,2-0.8,2.8,0s0.8,2,0,2.8l-5.7,5.7
			C27,75.8,26.5,76,26,76z"/>
		<path d="M74,76c-0.5,0-1-0.2-1.4-0.6L67,69.8c-0.8-0.8-0.8-2,0-2.8s2-0.8,2.8,0l5.7,5.7c0.8,0.8,0.8,2,0,2.8
			C75.1,75.8,74.6,76,74,76z"/>
		<path d="M31.6,33.6c-0.5,0-1-0.2-1.4-0.6l-5.7-5.7c-0.8-0.8-0.8-2,0-2.8s2-0.8,2.8,0l5.7,5.7c0.8,0.8,0.8,2,0,2.8
			C32.6,33.4,32.1,33.6,31.6,33.6z"/>
	</g>
</g>
</svg>
