<?xml version="1.0" encoding="utf-8"?>
<!-- Generator: Adobe Illustrator 25.3.1, SVG Export Plug-In . SVG Version: 6.00 Build 0)  -->
<svg version="1.1" xmlns="http://www.w3.org/2000/svg" xmlns:xlink="http://www.w3.org/1999/xlink" x="0px" y="0px"
	 viewBox="0 0 100 100" style="enable-background:new 0 0 100 100;" xml:space="preserve">
<g id="BottomLeft_x5F_Gap_x5F_Hexagon">
	<path d="M50,100c-2,0-4-0.5-5.8-1.5L21,85.8c-1-0.5-1.3-1.7-0.8-2.7c0.5-1,1.7-1.3,2.7-0.8L46.2,95c2.4,1.3,5.3,1.3,7.7,0l35-19.2
		c2.6-1.4,4.2-4.1,4.2-7V31.2c0-2.9-1.6-5.6-4.2-7L53.8,5c-2.4-1.3-5.3-1.3-7.7,0l-35,19.2c-2.6,1.4-4.1,4.1-4.1,7V68
		c0,1.1-0.9,2-2,2s-2-0.9-2-2V31.2c0-4.4,2.4-8.4,6.2-10.5l35-19.2c3.6-2,7.9-2,11.5,0l35,19.2c3.8,2.1,6.2,6.1,6.2,10.5v37.6
		c0,4.4-2.4,8.4-6.2,10.5l-35,19.2C54,99.5,52,100,50,100z"/>
</g>
<g id="Your_Icon">
	<path d="M50,50c-8.8,0-16-7.4-16-16.5c0-8.6,13.1-21.5,14.6-22.9c0.8-0.7,2-0.7,2.8,0C52.9,12,66,24.9,66,33.5
		C66,42.6,58.8,50,50,50z M50,14.8c-4.3,4.4-12,13.4-12,18.7C38,40.4,43.4,46,50,46c6.6,0,12-5.6,12-12.5C62,28.2,54.3,19.2,50,14.8
		z"/>
	<path d="M49.3,43c-4.6,0-8.3-4.5-8.3-10c0-1.1,0.9-2,2-2s2,0.9,2,2c0,3.3,2,6,4.3,6c0.3,0,0.7-0.1,1-0.2c1-0.4,2.2,0.2,2.5,1.2
		c0.4,1-0.2,2.2-1.2,2.5C50.9,42.9,50.1,43,49.3,43z"/>
	<g>
		<g>
			<path d="M43.9,86H22c-1.1,0-2-0.9-2-2s0.9-2,2-2h21.9c2,0,3.9-0.6,5.5-1.7l27.1-18.1c1.1-0.9,1.7-2.3,1.4-3.8
				c-0.2-1.6-1.6-3-3.2-3.3c-0.9-0.2-1.7,0-2.5,0.3c0,0,0,0,0,0L54,66.8c-1.3,0.8-2.7,1.2-4.2,1.2H36c-1.1,0-2-0.9-2-2s0.9-2,2-2
				h13.8c0.7,0,1.5-0.2,2.1-0.6l18-11.2c0.1-0.1,0.2-0.1,0.3-0.2c1.6-0.9,3.4-1.1,5.2-0.8c3.3,0.6,5.9,3.3,6.4,6.6
				c0.4,2.9-0.7,5.8-3,7.5c0,0-0.1,0.1-0.1,0.1L51.6,83.7C49.3,85.2,46.6,86,43.9,86z"/>
			<path d="M5,70c-0.6,0-1.2-0.3-1.6-0.8c-0.6-0.9-0.4-2.1,0.4-2.8l17.7-12.8c2.4-1.6,5.1-2.5,8-2.5h17.8c2.3,0,4.4,0.9,6,2.5
				c1.6,1.6,2.5,3.7,2.4,6l0,0.2c0,4.6-3.8,8.4-8.4,8.4c-1.1,0-2-0.9-2-2s0.9-2,2-2c2.4,0,4.4-2,4.4-4.4l0-0.2
				c0-1.2-0.5-2.3-1.3-3.1c-0.8-0.8-1.9-1.3-3.1-1.3H29.6c-2,0-4,0.6-5.7,1.8L6.2,69.6C5.8,69.8,5.4,70,5,70z"/>
		</g>
	</g>
</g>
</svg>
