<?xml version="1.0" encoding="utf-8"?>
<!-- Generator: Adobe Illustrator 25.3.1, SVG Export Plug-In . SVG Version: 6.00 Build 0)  -->
<svg version="1.1" id="Layer_1" xmlns="http://www.w3.org/2000/svg" xmlns:xlink="http://www.w3.org/1999/xlink" x="0px" y="0px"
	 viewBox="0 0 100 100" style="enable-background:new 0 0 100 100;" xml:space="preserve">
<g id="Cycle_x5F_Hexagon">
	<path d="M50,100c-2,0-3.9-0.5-5.7-1.4L9.8,79.7C5.6,77.3,3,72.8,3,68V32c0-4.8,2.6-9.3,6.8-11.6L29,9.8c1-0.5,2.2-0.2,2.7,0.8
		s0.2,2.2-0.8,2.7L11.8,23.9C8.8,25.5,7,28.6,7,32v36c0,3.4,1.8,6.5,4.8,8.2L46.2,95c2.4,1.3,5.3,1.3,7.7,0l6.2-3.4
		c1-0.5,2.2-0.2,2.7,0.8s0.2,2.2-0.8,2.7l-6.2,3.4C54,99.5,52,100,50,100z"/>
	<path d="M26.3,25.4c-0.2,0-0.4,0-0.6-0.1c-1.1-0.3-1.6-1.5-1.3-2.5l3.1-9.9l-9.7-3.1c-1.1-0.3-1.6-1.5-1.3-2.5
		C16.8,6.2,18,5.7,19,6l11.6,3.7c1,0.3,1.6,1.5,1.3,2.5L28.2,24C27.9,24.9,27.2,25.4,26.3,25.4z"/>
	<g>
		<path d="M69.9,90.5c-0.7,0-1.4-0.4-1.8-1c-0.5-1-0.2-2.2,0.8-2.7l19.2-10.6c2.9-1.6,4.8-4.8,4.8-8.1V32c0-3.4-1.8-6.5-4.8-8.2
			L53.7,5.1c-2.4-1.3-5.3-1.3-7.7,0l-6.2,3.4c-1,0.5-2.2,0.2-2.7-0.8S36.9,5.5,37.9,5l6.2-3.4c3.6-1.9,7.9-1.9,11.5,0L90,20.4
			c4.2,2.3,6.8,6.8,6.8,11.7v36c0,4.9-2.6,9.4-6.8,11.7L70.9,90.3C70.6,90.4,70.2,90.5,69.9,90.5z"/>
		<path d="M81.5,94.2c-0.2,0-0.4,0-0.6-0.1l-11.6-3.7c-1-0.3-1.6-1.5-1.3-2.5l3.7-11.8c0.3-1.1,1.5-1.6,2.5-1.3
			c1.1,0.3,1.6,1.5,1.3,2.5l-3.1,9.9l9.7,3.1c1.1,0.3,1.6,1.5,1.3,2.5C83.1,93.7,82.3,94.2,81.5,94.2z"/>
	</g>
	<path d="M81.5,94.2c-0.2,0-0.4,0-0.6-0.1l-11.6-3.7c-1-0.3-1.6-1.5-1.3-2.5l3.7-11.8c0.3-1.1,1.5-1.6,2.5-1.3
		c1.1,0.3,1.6,1.5,1.3,2.5l-3.1,9.9l9.7,3.1c1.1,0.3,1.6,1.5,1.3,2.5C83.1,93.7,82.3,94.2,81.5,94.2z"/>
</g>
<g id="Your_Icon">
	<path d="M50,79c-12.7,0-23-10.9-23-24.3c0-10.1,12.2-24.5,19.4-32.2c2-2,5.2-2,7.2,0C62.5,32,73,45.3,73,54.7
		C73,68.1,62.7,79,50,79z M50.1,25c-0.3,0-0.5,0.1-0.8,0.3C37.9,37.4,31,48.4,31,54.7C31,65.9,39.5,75,50,75s19-9.1,19-20.3
		c0-6.2-6.7-17-18.3-29.4C50.6,25.1,50.3,25,50.1,25z"/>
	<path d="M47.5,70C41.2,70,36,63.7,36,56c0-1.1,0.9-2,2-2s2,0.9,2,2c0,5.4,3.4,10,7.5,10c0.8,0,1.3-0.1,1.8-0.3
		c1-0.4,2.2,0.1,2.6,1.2c0.4,1-0.1,2.2-1.2,2.6C49.7,69.8,48.7,70,47.5,70z"/>
</g>
</svg>
