<?xml version="1.0" encoding="utf-8"?>
<!-- Generator: Adobe Illustrator 25.2.3, SVG Export Plug-In . SVG Version: 6.00 Build 0)  -->
<svg version="1.1" id="Your_Icon" xmlns="http://www.w3.org/2000/svg" xmlns:xlink="http://www.w3.org/1999/xlink" x="0px" y="0px"
	 viewBox="0 0 100 100" style="enable-background:new 0 0 100 100;" xml:space="preserve">
<g id="Default">
	<path d="M50,100c-2,0-4-0.5-5.8-1.5l-35-19.2C5.4,77.2,3,73.2,3,68.8V31.2c0-4.4,2.4-8.4,6.2-10.5l35-19.2c3.6-2,7.9-2,11.5,0
		l35,19.2c3.8,2.1,6.2,6.1,6.2,10.5v37.6c0,4.4-2.4,8.4-6.2,10.5l-35,19.2C54,99.5,52,100,50,100z M50,4c-1.3,0-2.6,0.3-3.9,1
		l-35,19.2c-2.6,1.4-4.1,4.1-4.1,7v37.6c0,2.9,1.6,5.6,4.1,7l35,19.2c2.4,1.3,5.3,1.3,7.7,0l35-19.2c2.6-1.4,4.2-4.1,4.2-7V31.2
		c0-2.9-1.6-5.6-4.2-7L53.8,5C52.6,4.3,51.3,4,50,4z"/>
</g>
<path d="M50,79c-12.7,0-23-10.9-23-24.3c0-10.1,12.2-24.5,19.4-32.2c0.9-1,2.2-1.6,3.6-1.6s2.7,0.6,3.6,1.6
	c7.2,7.7,19.4,22,19.4,32.2C73,68.1,62.7,79,50,79z M50,25c-0.2,0-0.4,0-0.7,0.3C45,29.8,31,45.4,31,54.7C31,65.9,39.5,75,50,75
	s19-9.1,19-20.3c0-9.3-14-24.9-18.3-29.4C50.4,25,50.2,25,50,25z"/>
<path d="M47.5,70C41.1,70,36,63.7,36,56c0-1.1,0.9-2,2-2s2,0.9,2,2c0,5.5,3.4,10,7.5,10c0.6,0,1.3-0.1,1.9-0.3
	c1-0.4,2.2,0.2,2.5,1.2c0.4,1-0.2,2.2-1.2,2.5C49.6,69.8,48.6,70,47.5,70z"/>
</svg>
